<svg version="1.1" xmlns="http://www.w3.org/2000/svg" viewBox="0 0 1115 1068" width="1115" height="1068">
  <!-- svg-source:excalidraw -->
  
  <defs>
    <style>
      @font-face {
        font-family: "Virgil";
        src: url("https://excalidraw.com/Virgil.woff2");
      }
      @font-face {
        font-family: "Cascadia";
        src: url("https://excalidraw.com/Cascadia.woff2");
      }
    </style>
  </defs>
  <g transform="translate(343 101) rotate(0 90.5 48)" stroke="none"><path fill="#1864ab" d="M 1.67,0.20 Q 1.67,0.20 1.33,2.50 1.00,4.79 0.84,7.71 0.69,10.64 0.61,13.90 0.53,17.16 0.49,20.57 0.45,23.97 0.42,27.14 0.40,30.31 0.67,32.73 0.94,35.15 1.33,37.31 1.72,39.48 1.91,41.64 2.09,43.79 2.27,45.27 2.45,46.75 2.53,48.55 2.60,50.35 2.67,51.97 2.74,53.59 2.80,55.15 2.86,56.70 2.86,58.51 2.86,60.32 2.79,62.53 2.72,64.73 2.94,67.01 3.17,69.29 3.26,71.80 3.34,74.30 3.37,76.51 3.39,78.72 3.46,80.52 3.53,82.32 3.61,83.95 3.68,85.58 3.70,87.43 3.72,89.27 3.80,90.63 3.88,91.99 3.94,93.43 3.99,94.87 5.15,95.52 6.30,96.16 9.02,96.44 11.74,96.71 16.69,96.88 21.64,97.06 28.64,97.16 35.64,97.26 44.99,97.90 54.34,98.54 64.30,98.83 74.26,99.12 84.53,99.25 94.81,99.38 104.94,99.73 115.08,100.09 124.54,100.24 134.01,100.40 142.63,100.47 151.25,100.54 157.79,100.57 164.33,100.60 168.83,100.62 173.34,100.64 176.12,100.65 178.89,100.65 180.33,100.55 181.77,100.45 181.77,99.38 181.77,98.30 181.85,96.51 181.93,94.72 181.76,92.32 181.59,89.92 181.54,86.77 181.49,83.62 181.20,79.76 180.92,75.89 180.53,71.07 180.13,66.25 179.40,61.08 178.68,55.91 177.80,50.84 176.93,45.76 176.27,40.69 175.61,35.62 175.33,31.43 175.05,27.23 174.66,24.36 174.26,21.49 173.81,19.44 173.37,17.39 173.04,16.19 172.71,15.00 172.40,13.51 172.08,12.03 171.93,10.91 171.77,9.79 171.82,8.68 171.87,7.56 170.59,7.82 169.32,8.07 167.82,7.90 166.32,7.72 163.55,7.21 160.77,6.71 156.26,6.45 151.75,6.19 146.27,5.46 140.78,4.73 134.21,4.10 127.63,3.48 120.80,2.91 113.98,2.34 107.05,1.79 100.13,1.25 92.56,0.43 85.00,-0.38 78.07,-1.02 71.13,-1.67 65.34,-1.94 59.54,-2.22 54.78,-2.34 50.02,-2.46 46.22,-2.81 42.43,-3.15 39.64,-3.59 36.85,-4.03 34.86,-4.20 32.87,-4.36 31.73,-4.31 30.59,-4.26 28.94,-4.11 27.30,-3.97 25.08,-3.85 22.87,-3.73 21.18,-3.75 19.49,-3.78 17.62,-3.83 15.76,-3.88 13.81,-3.94 11.87,-4.00 10.18,-3.99 8.49,-3.99 6.91,-3.96 5.33,-3.94 4.08,-3.88 2.84,-3.82 1.73,-3.76 0.63,-3.70 -0.41,-3.65 -1.45,-3.59 -1.74,-3.63 -2.03,-3.66 -2.30,-3.77 -2.57,-3.87 -2.80,-4.03 -3.04,-4.20 -3.23,-4.41 -3.43,-4.63 -3.56,-4.89 -3.70,-5.14 -3.76,-5.42 -3.83,-5.71 -3.83,-6.00 -3.83,-6.28 -3.76,-6.57 -3.70,-6.85 -3.56,-7.10 -3.43,-7.36 -3.23,-7.58 -3.04,-7.79 -2.80,-7.96 -2.57,-8.12 -2.30,-8.22 -2.03,-8.33 -1.74,-8.36 -1.45,-8.40 0.26,-4.44 1.97,-0.48 2.00,-0.15 2.02,0.17 1.94,0.49 1.86,0.81 1.68,1.09 1.50,1.36 1.25,1.57 0.99,1.77 0.68,1.89 0.37,2.00 0.04,2.00 -0.28,2.01 -0.60,1.91 -0.91,1.81 -1.18,1.62 -1.44,1.43 -1.63,1.16 -1.82,0.89 -1.92,0.57 -2.01,0.26 -2.00,-0.06 -1.99,-0.39 -1.88,-0.70 -1.76,-1.01 -1.55,-1.26 -1.35,-1.52 -1.07,-1.69 -0.79,-1.87 -0.47,-1.95 -0.15,-2.03 0.17,-2.00 0.50,-1.97 0.80,-1.84 1.10,-1.70 1.35,-1.48 1.59,-1.26 1.75,-0.97 1.91,-0.69 1.97,-0.36 2.03,-0.04 1.98,0.28 1.94,0.60 1.79,0.90 1.64,1.19 1.41,1.42 1.17,1.66 0.88,1.80 0.58,1.95 0.25,1.99 -0.06,2.03 -0.39,1.97 -0.71,1.90 -0.99,1.74 -1.28,1.57 -1.50,1.33 -1.72,1.08 -1.85,0.78 -1.97,0.47 -1.97,0.47 -1.97,0.48 -1.71,-1.55 -1.45,-3.59 -1.74,-3.63 -2.03,-3.66 -2.30,-3.77 -2.57,-3.87 -2.80,-4.03 -3.04,-4.20 -3.23,-4.41 -3.43,-4.63 -3.56,-4.89 -3.70,-5.14 -3.76,-5.42 -3.83,-5.71 -3.83,-5.99 -3.83,-6.28 -3.76,-6.57 -3.70,-6.85 -3.56,-7.10 -3.43,-7.36 -3.23,-7.58 -3.04,-7.79 -2.80,-7.96 -2.57,-8.12 -2.30,-8.22 -2.03,-8.33 -1.74,-8.36 -1.45,-8.40 -0.41,-8.34 0.63,-8.29 1.73,-8.23 2.84,-8.17 4.08,-8.11 5.33,-8.05 6.91,-8.03 8.49,-8.00 10.18,-8.00 11.87,-7.99 13.81,-8.05 15.76,-8.10 17.63,-8.16 19.49,-8.21 21.19,-8.23 22.88,-8.25 25.12,-8.12 27.36,-7.98 29.08,-7.74 30.80,-7.50 31.96,-7.30 33.12,-7.09 35.19,-6.89 37.26,-6.68 39.96,-6.26 42.67,-5.85 46.38,-5.52 50.09,-5.19 54.88,-5.09 59.67,-4.99 65.53,-4.73 71.39,-4.48 78.34,-3.87 85.30,-3.27 92.82,-2.50 100.35,-1.74 107.28,-1.26 114.22,-0.79 121.06,-0.31 127.91,0.16 134.56,0.65 141.20,1.15 146.54,1.69 151.88,2.24 156.60,2.27 161.32,2.31 164.03,2.49 166.73,2.68 168.66,2.78 170.58,2.89 172.74,3.53 174.89,4.17 175.51,5.04 176.12,5.91 176.23,7.32 176.34,8.74 176.18,10.27 176.01,11.80 175.93,13.14 175.85,14.48 175.92,15.65 175.99,16.81 176.46,18.97 176.94,21.12 177.36,24.08 177.78,27.04 178.07,31.15 178.36,35.26 179.04,40.27 179.71,45.27 180.63,50.38 181.55,55.49 182.34,60.74 183.13,65.99 183.60,70.80 184.06,75.62 184.45,79.56 184.84,83.49 185.01,86.51 185.19,89.53 185.55,92.18 185.92,94.82 185.90,96.78 185.89,98.75 184.90,100.83 183.92,102.91 182.90,103.22 181.88,103.53 180.39,103.43 178.89,103.32 176.11,103.32 173.33,103.32 168.83,103.32 164.32,103.31 157.78,103.29 151.23,103.27 142.60,103.22 133.97,103.17 124.48,103.05 114.99,102.92 104.88,102.61 94.78,102.29 84.48,102.21 74.19,102.13 64.16,101.92 54.14,101.70 44.88,101.16 35.62,100.63 28.60,100.66 21.58,100.69 16.53,100.70 11.49,100.71 8.28,100.60 5.08,100.49 3.03,99.73 0.99,98.96 0.49,96.91 0.00,94.87 0.05,93.43 0.11,91.99 0.18,90.63 0.26,89.28 0.27,87.44 0.28,85.60 0.34,83.98 0.39,82.36 0.42,80.58 0.45,78.79 0.37,76.62 0.29,74.45 0.13,72.07 -0.02,69.68 -0.37,67.21 -0.72,64.74 -0.80,62.53 -0.87,60.32 -0.88,58.52 -0.88,56.71 -0.83,55.17 -0.78,53.62 -0.74,52.01 -0.69,50.40 -0.68,48.66 -0.67,46.91 -0.64,45.46 -0.60,44.02 -0.77,41.99 -0.93,39.97 -1.35,37.71 -1.77,35.46 -2.07,32.88 -2.37,30.30 -2.38,27.12 -2.38,23.95 -2.38,20.53 -2.38,17.12 -2.35,13.82 -2.33,10.51 -2.24,7.46 -2.15,4.40 -1.91,2.09 -1.67,-0.20 -1.62,-0.40 -1.57,-0.60 -1.48,-0.78 -1.38,-0.96 -1.25,-1.11 -1.11,-1.26 -0.94,-1.38 -0.77,-1.49 -0.58,-1.57 -0.39,-1.64 -0.19,-1.66 0.00,-1.68 0.20,-1.66 0.41,-1.63 0.60,-1.56 0.79,-1.49 0.95,-1.37 1.12,-1.26 1.25,-1.10 1.39,-0.95 1.48,-0.77 1.58,-0.59 1.63,-0.39 1.67,-0.19 1.67,0.00 1.67,0.20 1.67,0.20 L 1.67,0.20 Z"></path></g><g transform="translate(386 133) rotate(0 49 13)"><text x="0" y="19" font-family="Virgil, Segoe UI Emoji" font-size="20px" fill="#1864ab" text-anchor="start" style="white-space: pre;" direction="ltr">Prototype</text></g><g transform="translate(437 225) rotate(0 3 81)" stroke="none"><path fill="#1864ab" d="M 1.55,0.38 Q 1.55,0.38 0.93,2.67 0.32,4.96 0.07,6.99 -0.18,9.02 -0.23,10.75 -0.27,12.48 -0.35,14.63 -0.43,16.79 -0.47,19.15 -0.52,21.51 -0.54,24.52 -0.57,27.54 -0.59,31.12 -0.60,34.70 -0.62,38.81 -0.63,42.92 -0.92,47.30 -1.22,51.68 -1.35,55.79 -1.47,59.91 -1.53,63.39 -1.58,66.86 -1.61,70.35 -1.63,73.84 -1.65,77.05 -1.66,80.25 -1.66,83.63 -1.67,87.00 -1.67,90.16 -1.67,93.32 -1.68,96.39 -1.68,99.46 -1.68,102.20 -1.68,104.94 -1.40,107.47 -1.11,110.00 -0.99,112.30 -0.86,114.59 -0.48,116.31 -0.09,118.04 0.39,119.61 0.88,121.18 1.16,122.48 1.45,123.79 2.14,125.09 2.84,126.40 3.48,128.30 4.12,130.20 4.02,132.19 3.92,134.18 2.79,135.31 1.66,136.45 -0.35,137.22 -2.36,138.00 -4.42,138.56 -6.49,139.13 -8.17,139.66 -9.85,140.19 -10.93,140.52 -12.00,140.84 -13.29,141.53 -14.57,142.22 -13.59,144.39 -12.60,146.57 -11.89,148.42 -11.17,150.28 -10.53,152.01 -9.89,153.73 -9.32,154.95 -8.75,156.17 -8.03,157.07 -7.31,157.98 -6.45,157.15 -5.60,156.33 -3.73,154.90 -1.86,153.47 0.09,152.05 2.05,150.64 3.99,148.98 5.93,147.31 7.93,145.47 9.93,143.62 11.99,141.95 14.05,140.27 15.81,138.99 17.57,137.71 18.41,136.62 19.26,135.53 18.18,135.91 17.09,136.29 15.34,136.25 13.59,136.20 10.79,136.26 7.99,136.31 7.62,136.25 7.25,136.19 6.92,136.01 6.59,135.84 6.33,135.56 6.07,135.29 5.92,134.95 5.76,134.61 5.72,134.24 5.68,133.86 5.76,133.50 5.84,133.13 6.04,132.81 6.23,132.49 6.52,132.25 6.80,132.01 7.15,131.87 7.50,131.73 7.88,131.71 8.25,131.69 8.61,131.79 8.97,131.89 9.28,132.10 9.59,132.32 9.82,132.61 10.05,132.91 10.16,133.27 10.28,133.63 10.28,134.00 10.28,134.38 10.16,134.73 10.04,135.09 9.81,135.38 9.59,135.68 9.27,135.89 8.96,136.10 8.60,136.20 8.24,136.30 7.87,136.28 7.49,136.26 7.14,136.12 6.80,135.98 6.51,135.73 6.22,135.49 6.03,135.17 5.84,134.85 5.76,134.48 5.68,134.11 5.72,133.74 5.76,133.37 5.92,133.03 6.08,132.69 6.34,132.42 6.60,132.15 6.93,131.97 7.26,131.80 7.63,131.74 8.00,131.68 8.00,131.68 8.00,131.68 10.81,131.75 13.62,131.82 15.39,131.80 17.17,131.77 18.69,131.82 20.21,131.87 21.74,132.66 23.27,133.44 23.34,134.78 23.42,136.13 22.58,136.95 21.73,137.77 20.55,138.93 19.37,140.08 17.72,141.37 16.06,142.66 14.14,144.33 12.22,146.00 10.28,147.96 8.33,149.93 6.40,151.81 4.47,153.69 2.72,155.22 0.97,156.75 -0.46,158.18 -1.90,159.61 -3.33,161.25 -4.77,162.90 -6.12,163.28 -7.48,163.66 -9.28,162.19 -11.09,160.71 -12.00,159.38 -12.92,158.05 -13.48,156.71 -14.04,155.38 -14.71,153.81 -15.38,152.25 -16.39,150.40 -17.41,148.56 -18.25,146.72 -19.09,144.87 -19.36,143.27 -19.63,141.67 -19.33,140.43 -19.03,139.20 -18.18,138.46 -17.33,137.73 -15.97,137.19 -14.60,136.66 -12.89,136.41 -11.18,136.16 -9.51,135.58 -7.84,135.00 -6.08,134.31 -4.31,133.62 -2.44,132.91 -0.56,132.19 -0.59,130.81 -0.62,129.44 -0.96,128.33 -1.30,127.21 -1.64,125.83 -1.99,124.44 -2.07,123.21 -2.15,121.98 -2.53,120.27 -2.90,118.56 -3.20,116.65 -3.49,114.73 -3.61,112.51 -3.73,110.29 -4.02,107.62 -4.31,104.94 -4.31,102.20 -4.31,99.46 -4.31,96.39 -4.31,93.32 -4.31,90.16 -4.31,87.00 -4.31,83.62 -4.30,80.25 -4.30,77.03 -4.29,73.82 -4.27,70.32 -4.25,66.82 -4.20,63.33 -4.15,59.83 -4.04,55.67 -3.92,51.50 -3.64,47.21 -3.36,42.92 -3.37,38.81 -3.38,34.70 -3.39,31.11 -3.40,27.53 -3.41,24.51 -3.42,21.48 -3.42,19.11 -3.43,16.73 -3.42,14.51 -3.41,12.29 -3.25,10.49 -3.09,8.68 -2.85,6.46 -2.62,4.23 -2.08,1.92 -1.55,-0.38 -1.48,-0.56 -1.41,-0.74 -1.30,-0.90 -1.19,-1.06 -1.04,-1.19 -0.90,-1.31 -0.73,-1.40 -0.56,-1.49 -0.37,-1.54 -0.18,-1.58 0.00,-1.58 0.19,-1.58 0.38,-1.53 0.57,-1.49 0.74,-1.40 0.91,-1.31 1.05,-1.18 1.19,-1.05 1.30,-0.89 1.41,-0.73 1.48,-0.55 1.55,-0.37 1.57,-0.18 1.59,0.00 1.57,0.19 1.55,0.38 1.55,0.38 L 1.55,0.38 Z"></path></g><g transform="translate(334 425) rotate(0 96.5 40.5)" stroke="none"><path fill="#1864ab" d="M -0.42,-1.50 Q -0.42,-1.50 1.59,-2.05 3.61,-2.60 7.14,-3.12 10.68,-3.65 16.47,-4.43 22.26,-5.22 31.07,-6.12 39.87,-7.02 50.82,-7.69 61.77,-8.36 74.47,-8.93 87.17,-9.50 100.33,-10.02 113.49,-10.55 126.27,-11.06 139.05,-11.57 149.36,-12.07 159.68,-12.57 167.19,-13.36 174.70,-14.14 179.08,-14.48 183.45,-14.82 185.42,-14.72 187.40,-14.63 188.56,-14.23 189.72,-13.83 190.46,-12.83 191.20,-11.82 191.50,-10.39 191.80,-8.97 191.82,-6.94 191.84,-4.92 191.78,-1.77 191.72,1.36 191.67,6.72 191.62,12.08 191.58,19.24 191.54,26.41 191.51,33.76 191.48,41.12 191.46,47.41 191.43,53.70 191.42,58.96 191.40,64.22 191.67,68.42 191.95,72.62 192.34,75.53 192.74,78.44 192.91,80.89 193.08,83.34 193.53,84.54 193.99,85.74 193.50,87.07 193.02,88.40 191.26,88.95 189.50,89.50 184.81,90.10 180.13,90.71 169.42,90.95 158.72,91.19 142.12,91.27 125.52,91.35 108.12,91.37 90.72,91.39 76.47,92.25 62.21,93.11 52.71,94.05 43.21,94.98 37.71,95.37 32.21,95.77 29.58,95.93 26.96,96.10 25.25,96.25 23.55,96.40 21.00,96.11 18.45,95.83 16.31,95.70 14.16,95.58 11.81,95.51 9.46,95.45 7.75,95.22 6.03,94.99 4.22,94.50 2.40,94.01 1.28,92.80 0.16,91.58 -0.02,90.53 -0.21,89.47 -0.25,87.88 -0.29,86.28 -0.18,84.19 -0.07,82.10 -0.52,79.99 -0.97,77.88 -1.17,74.43 -1.36,70.98 -1.41,67.24 -1.46,63.51 -1.46,59.62 -1.47,55.74 -1.46,51.78 -1.44,47.83 -1.43,43.86 -1.42,39.88 -1.40,35.89 -1.39,31.89 -1.38,28.47 -1.37,25.05 -1.07,22.09 -0.77,19.14 -0.65,16.79 -0.52,14.44 -0.52,12.58 -0.52,10.72 -0.57,9.08 -0.62,7.43 -0.45,5.36 -0.27,3.29 -1.03,2.21 -1.78,1.13 -1.92,0.81 -2.05,0.50 -2.08,0.16 -2.10,-0.18 -2.02,-0.51 -1.94,-0.84 -1.75,-1.13 -1.56,-1.42 -1.30,-1.63 -1.03,-1.84 -0.71,-1.96 -0.38,-2.08 -0.04,-2.08 0.29,-2.09 0.62,-1.99 0.94,-1.89 1.22,-1.69 1.50,-1.48 1.70,-1.21 1.90,-0.93 1.99,-0.60 2.09,-0.27 2.08,0.06 2.07,0.40 1.95,0.72 1.83,1.05 1.62,1.31 1.40,1.58 1.11,1.76 0.82,1.94 0.49,2.02 0.16,2.11 -0.17,2.08 -0.52,2.05 -0.83,1.91 -1.14,1.77 -1.40,1.54 -1.65,1.31 -1.82,1.01 -1.99,0.72 -2.05,0.38 -2.11,0.04 -2.06,-0.29 -2.02,-0.63 -1.86,-0.93 -1.71,-1.24 -1.47,-1.48 -1.22,-1.72 -0.91,-1.87 -0.61,-2.02 -0.27,-2.07 0.06,-2.11 0.40,-2.04 0.73,-1.98 1.03,-1.81 1.33,-1.64 1.56,-1.38 1.78,-1.13 1.78,-1.13 1.78,-1.13 2.60,1.83 3.41,4.79 2.98,6.13 2.56,7.47 2.46,9.14 2.36,10.80 2.26,12.69 2.16,14.58 2.04,16.99 1.92,19.40 1.65,22.23 1.37,25.05 1.39,28.47 1.40,31.89 1.42,35.88 1.44,39.87 1.47,43.85 1.50,47.82 1.55,51.76 1.60,55.70 1.69,59.56 1.77,63.41 1.93,67.07 2.09,70.72 2.39,73.85 2.69,76.97 3.41,79.50 4.12,82.04 4.26,84.11 4.39,86.17 4.14,88.50 3.89,90.82 5.26,91.37 6.63,91.91 8.08,92.29 9.53,92.67 11.91,92.70 14.30,92.74 16.53,92.83 18.76,92.92 21.09,93.15 23.43,93.37 25.10,93.38 26.78,93.39 29.39,93.21 32.00,93.03 37.47,92.61 42.94,92.20 52.49,91.23 62.04,90.26 76.37,89.35 90.71,88.45 108.10,88.36 125.50,88.28 142.06,88.12 158.63,87.96 169.13,87.62 179.64,87.29 185.29,86.83 190.94,86.38 190.66,84.96 190.39,83.54 190.22,81.18 190.04,78.81 189.62,75.81 189.19,72.81 188.89,68.51 188.59,64.22 188.57,58.96 188.55,53.70 188.53,47.41 188.50,41.12 188.47,33.76 188.43,26.41 188.38,19.25 188.33,12.09 188.26,6.74 188.19,1.39 188.08,-1.70 187.97,-4.79 187.87,-6.64 187.77,-8.48 187.45,-10.13 187.12,-11.79 185.39,-11.98 183.65,-12.18 179.31,-11.85 174.98,-11.51 167.39,-10.72 159.81,-9.92 149.48,-9.41 139.16,-8.90 126.38,-8.38 113.60,-7.87 100.45,-7.33 87.30,-6.79 74.62,-6.21 61.94,-5.63 51.05,-4.94 40.16,-4.26 31.41,-3.33 22.65,-2.41 16.89,-1.59 11.13,-0.77 7.78,-0.23 4.43,0.30 2.43,0.90 0.42,1.50 0.24,1.53 0.05,1.56 -0.13,1.54 -0.31,1.53 -0.49,1.47 -0.67,1.41 -0.83,1.31 -0.99,1.20 -1.12,1.07 -1.25,0.93 -1.34,0.77 -1.44,0.60 -1.49,0.42 -1.54,0.24 -1.55,0.05 -1.55,-0.13 -1.52,-0.31 -1.48,-0.50 -1.40,-0.67 -1.31,-0.84 -1.19,-0.98 -1.07,-1.13 -0.92,-1.24 -0.77,-1.35 -0.60,-1.43 -0.42,-1.50 -0.42,-1.50 L -0.42,-1.50 Z"></path></g><g transform="translate(397 451.5) rotate(0 37 13)"><text x="0" y="19" font-family="Virgil, Segoe UI Emoji" font-size="20px" fill="#1864ab" text-anchor="start" style="white-space: pre;" direction="ltr">Choose!</text></g><g transform="translate(349 666) rotate(0 79 58.5)" stroke="none"><path fill="#1864ab" d="M -0.33,-1.52 Q -0.33,-1.52 2.25,-2.06 4.85,-2.60 9.47,-3.12 14.10,-3.64 21.51,-4.43 28.91,-5.21 38.70,-5.83 48.48,-6.45 60.98,-6.99 73.48,-7.54 86.25,-8.34 99.02,-9.14 110.80,-9.48 122.58,-9.82 132.76,-9.97 142.94,-10.11 151.58,-10.17 160.22,-10.23 166.48,-10.25 172.74,-10.28 175.97,-10.29 179.21,-10.30 180.89,-10.39 182.58,-10.48 183.77,-10.04 184.96,-9.60 185.67,-8.30 186.38,-7.00 186.58,-5.24 186.78,-3.47 187.03,-0.53 187.28,2.40 187.37,6.90 187.45,11.40 187.75,18.44 188.05,25.49 188.16,34.84 188.28,44.19 188.32,54.48 188.35,64.78 188.36,73.75 188.37,82.73 188.37,89.42 188.36,96.11 188.36,101.25 188.35,106.39 188.35,110.30 188.34,114.21 188.34,117.03 188.33,119.84 188.44,121.32 188.55,122.80 187.74,124.89 186.93,126.98 185.80,127.10 184.67,127.23 181.49,126.50 178.32,125.76 171.55,124.57 164.78,123.37 153.88,121.97 142.98,120.58 130.31,119.40 117.63,118.21 104.20,117.12 90.76,116.03 78.16,115.27 65.56,114.51 55.62,114.18 45.68,113.86 38.29,113.71 30.90,113.57 25.18,113.50 19.45,113.44 15.01,113.41 10.56,113.38 7.24,113.36 3.91,113.35 1.06,113.34 -1.78,113.33 -4.72,113.33 -7.65,113.32 -10.63,113.32 -13.60,113.32 -16.30,113.32 -19.00,113.32 -21.30,113.31 -23.60,113.31 -24.86,113.44 -26.13,113.56 -27.98,113.12 -29.84,112.67 -30.33,111.56 -30.81,110.46 -31.04,108.16 -31.28,105.87 -31.26,104.18 -31.25,102.48 -30.83,100.19 -30.42,97.91 -29.60,95.17 -28.79,92.43 -27.85,89.57 -26.90,86.71 -25.91,83.24 -24.93,79.77 -23.61,76.22 -22.29,72.66 -21.46,69.52 -20.63,66.38 -19.38,62.95 -18.12,59.51 -17.33,56.42 -16.53,53.33 -15.90,50.29 -15.27,47.25 -14.39,44.72 -13.52,42.18 -12.88,40.02 -12.24,37.86 -12.04,36.14 -11.85,34.43 -11.50,32.72 -11.15,31.01 -11.06,29.53 -10.97,28.06 -10.30,26.51 -9.63,24.95 -9.11,22.42 -8.60,19.88 -8.15,18.50 -7.71,17.12 -7.25,15.73 -6.79,14.34 -6.28,13.25 -5.76,12.16 -4.86,10.23 -3.97,8.30 -3.50,7.30 -3.03,6.30 -2.56,5.30 -2.09,4.30 -2.22,2.35 -2.36,0.40 -2.36,0.01 -2.36,-0.37 -2.24,-0.74 -2.12,-1.11 -1.89,-1.42 -1.65,-1.73 -1.33,-1.95 -1.01,-2.17 -0.64,-2.27 -0.27,-2.38 0.11,-2.36 0.50,-2.34 0.86,-2.20 1.22,-2.06 1.52,-1.81 1.82,-1.56 2.02,-1.23 2.22,-0.89 2.30,-0.52 2.39,-0.14 2.35,0.24 2.31,0.62 2.15,0.98 1.99,1.33 1.72,1.61 1.46,1.90 1.11,2.08 0.77,2.26 0.39,2.33 0.01,2.39 -0.37,2.33 -0.75,2.27 -1.09,2.09 -1.44,1.91 -1.71,1.63 -1.97,1.35 -2.14,1.00 -2.30,0.65 -2.35,0.26 -2.39,-0.11 -2.31,-0.49 -2.23,-0.87 -2.03,-1.21 -1.83,-1.54 -1.54,-1.79 -1.24,-2.04 -0.88,-2.19 -0.52,-2.34 -0.13,-2.36 0.24,-2.38 0.62,-2.28 0.99,-2.18 1.31,-1.96 1.64,-1.74 1.87,-1.44 2.11,-1.13 2.23,-0.76 2.36,-0.39 2.36,-0.40 2.36,-0.40 2.48,3.12 2.61,6.64 2.08,7.63 1.56,8.62 1.02,9.60 0.49,10.58 -0.04,11.55 -0.58,12.53 -1.60,14.16 -2.62,15.79 -3.13,17.20 -3.64,18.60 -4.12,19.74 -4.59,20.89 -5.00,22.50 -5.41,24.12 -5.84,25.40 -6.27,26.69 -6.90,27.61 -7.53,28.53 -7.78,30.15 -8.04,31.78 -8.49,33.33 -8.95,34.87 -9.31,36.74 -9.66,38.61 -10.31,40.84 -10.96,43.06 -11.77,45.43 -12.58,47.81 -13.21,50.91 -13.83,54.01 -14.64,57.24 -15.45,60.47 -16.63,63.79 -17.80,67.11 -18.62,70.40 -19.44,73.69 -20.65,77.14 -21.86,80.60 -22.76,84.15 -23.66,87.70 -24.46,90.53 -25.25,93.36 -25.83,95.90 -26.41,98.44 -26.56,100.45 -26.71,102.46 -26.67,104.11 -26.63,105.77 -26.66,106.94 -26.68,108.12 -26.40,109.27 -26.13,110.43 -24.86,110.55 -23.60,110.68 -21.30,110.68 -19.00,110.68 -16.30,110.67 -13.60,110.67 -10.63,110.67 -7.65,110.67 -4.71,110.67 -1.78,110.67 1.07,110.67 3.92,110.67 7.25,110.68 10.58,110.69 15.03,110.70 19.48,110.72 25.22,110.77 30.95,110.82 38.36,110.94 45.76,111.06 55.75,111.36 65.73,111.66 78.36,112.38 90.99,113.10 104.45,114.13 117.91,115.16 130.64,116.27 143.37,117.38 154.36,118.67 165.34,119.96 172.20,121.02 179.05,122.08 182.24,122.44 185.44,122.80 185.55,121.32 185.65,119.84 185.65,117.03 185.64,114.21 185.63,110.30 185.62,106.39 185.61,101.25 185.59,96.11 185.57,89.42 185.54,82.74 185.50,73.77 185.45,64.80 185.36,54.52 185.27,44.24 185.09,34.94 184.91,25.64 184.51,18.58 184.11,11.51 183.90,7.16 183.70,2.82 183.27,-0.16 182.83,-3.15 182.67,-5.33 182.50,-7.50 180.86,-7.58 179.22,-7.66 175.98,-7.65 172.75,-7.63 166.49,-7.60 160.24,-7.58 151.61,-7.51 142.98,-7.45 132.82,-7.30 122.65,-7.15 110.92,-6.80 99.19,-6.45 86.39,-5.63 73.60,-4.81 61.13,-4.25 48.66,-3.69 38.94,-3.05 29.21,-2.41 21.83,-1.59 14.44,-0.77 9.97,-0.23 5.49,0.30 2.91,0.91 0.33,1.52 0.15,1.54 -0.03,1.56 -0.22,1.53 -0.40,1.50 -0.58,1.43 -0.75,1.36 -0.91,1.25 -1.06,1.14 -1.18,1.00 -1.30,0.85 -1.38,0.68 -1.47,0.52 -1.51,0.33 -1.55,0.15 -1.55,-0.03 -1.54,-0.22 -1.49,-0.40 -1.44,-0.58 -1.35,-0.75 -1.26,-0.91 -1.13,-1.05 -1.00,-1.19 -0.85,-1.29 -0.69,-1.39 -0.51,-1.46 -0.33,-1.52 -0.33,-1.52 L -0.33,-1.52 Z"></path></g><g transform="translate(14 693) rotate(0 88.5 35)" stroke="none"><path fill="#1864ab" d="M -0.44,-1.49 Q -0.44,-1.49 2.43,-2.32 5.32,-3.15 10.06,-4.09 14.80,-5.02 22.59,-5.99 30.38,-6.95 40.88,-7.93 51.38,-8.91 63.60,-9.90 75.83,-10.88 88.79,-11.87 101.74,-12.87 113.87,-13.57 126.00,-14.28 136.62,-14.87 147.23,-15.45 154.90,-15.99 162.56,-16.52 167.52,-17.04 172.49,-17.55 174.75,-17.47 177.01,-17.38 178.34,-16.71 179.67,-16.03 180.56,-13.72 181.45,-11.40 181.74,-7.79 182.04,-4.19 182.14,0.75 182.24,5.71 182.28,11.83 182.31,17.95 182.04,24.61 181.76,31.26 181.64,38.08 181.52,44.91 181.46,50.68 181.41,56.46 181.39,60.93 181.36,65.39 181.35,68.44 181.34,71.49 181.33,73.65 181.33,75.81 181.43,77.30 181.54,78.79 181.64,80.00 181.75,81.21 181.31,83.06 180.88,84.91 177.40,85.66 173.93,86.41 167.91,86.77 161.90,87.13 152.43,87.25 142.96,87.38 129.74,87.41 116.53,87.44 101.42,87.44 86.32,87.44 72.71,87.43 59.11,87.42 49.01,87.41 38.92,87.39 32.36,87.67 25.80,87.95 21.84,88.06 17.88,88.18 15.91,88.26 13.94,88.34 12.81,88.48 11.69,88.62 9.83,88.41 7.97,88.19 7.03,87.28 6.09,86.37 5.02,85.40 3.96,84.43 3.21,83.04 2.47,81.65 1.96,79.87 1.44,78.09 1.06,75.86 0.67,73.62 0.27,71.24 -0.12,68.85 -0.55,65.79 -0.98,62.73 -1.14,59.34 -1.31,55.96 -1.36,52.52 -1.40,49.08 -1.70,45.67 -1.99,42.25 -2.39,39.38 -2.79,36.50 -3.23,33.85 -3.68,31.19 -4.16,29.24 -4.65,27.28 -4.97,25.81 -5.29,24.33 -5.49,23.10 -5.68,21.88 -5.81,20.77 -5.94,19.66 -6.10,17.58 -6.27,15.51 -6.39,14.19 -6.50,12.88 -6.63,11.31 -6.75,9.75 -6.81,8.04 -6.87,6.34 -4.42,2.38 -1.97,-1.58 -1.67,-1.85 -1.36,-2.12 -0.99,-2.29 -0.61,-2.45 -0.20,-2.48 0.20,-2.52 0.59,-2.42 0.99,-2.32 1.34,-2.10 1.68,-1.88 1.94,-1.56 2.19,-1.24 2.34,-0.86 2.48,-0.48 2.49,-0.07 2.50,0.33 2.38,0.72 2.26,1.11 2.03,1.45 1.79,1.78 1.46,2.02 1.12,2.26 0.73,2.38 0.34,2.50 -0.06,2.49 -0.47,2.48 -0.85,2.34 -1.24,2.20 -1.56,1.94 -1.87,1.69 -2.10,1.34 -2.32,1.00 -2.42,0.60 -2.52,0.21 -2.48,-0.19 -2.45,-0.60 -2.29,-0.98 -2.13,-1.35 -1.86,-1.66 -1.58,-1.96 -1.23,-2.17 -0.87,-2.37 -0.47,-2.45 -0.07,-2.52 0.33,-2.47 0.73,-2.41 1.10,-2.23 1.47,-2.05 1.76,-1.76 2.05,-1.47 2.23,-1.11 2.41,-0.74 2.47,-0.34 2.52,0.06 2.45,0.46 2.37,0.86 2.17,1.22 1.97,1.58 1.97,1.58 1.97,1.58 0.38,3.48 -1.21,5.39 -1.19,6.78 -1.17,8.16 -1.28,9.98 -1.39,11.79 -1.49,12.92 -1.59,14.05 -1.70,15.77 -1.82,17.49 -1.93,19.55 -2.05,21.60 -2.07,22.74 -2.09,23.87 -2.00,25.24 -1.91,26.62 -1.41,28.66 -0.92,30.71 -0.43,33.40 0.04,36.09 0.50,39.03 0.95,41.97 1.31,45.49 1.67,49.00 1.80,52.38 1.94,55.75 2.20,58.95 2.46,62.15 3.03,65.10 3.60,68.06 4.20,70.35 4.80,72.65 5.42,74.66 6.03,76.67 6.78,78.90 7.54,81.14 8.53,82.41 9.52,83.67 10.57,84.49 11.62,85.30 12.74,85.40 13.86,85.50 15.83,85.47 17.79,85.45 21.73,85.32 25.68,85.18 32.30,84.88 38.92,84.58 49.01,84.55 59.11,84.53 72.71,84.49 86.31,84.45 101.41,84.38 116.51,84.32 129.70,84.19 142.89,84.07 152.27,83.82 161.64,83.57 167.51,83.06 173.38,82.54 175.81,81.88 178.24,81.21 178.35,80.00 178.46,78.79 178.57,77.29 178.68,75.80 178.68,73.64 178.68,71.48 178.68,68.43 178.69,65.38 178.71,60.91 178.72,56.44 178.76,50.65 178.81,44.86 178.91,38.01 179.02,31.15 179.27,24.56 179.52,17.97 179.46,11.87 179.39,5.78 179.25,0.91 179.11,-3.94 178.84,-7.20 178.56,-10.45 177.64,-12.63 176.71,-14.81 174.74,-14.86 172.76,-14.92 167.75,-14.40 162.75,-13.88 155.06,-13.33 147.38,-12.79 136.77,-12.20 126.16,-11.61 114.06,-10.89 101.95,-10.17 89.00,-9.17 76.05,-8.16 63.84,-7.16 51.64,-6.16 41.19,-5.16 30.74,-4.16 23.05,-3.17 15.37,-2.19 10.77,-1.24 6.17,-0.29 3.31,0.60 0.44,1.49 0.26,1.52 0.07,1.56 -0.11,1.54 -0.29,1.53 -0.47,1.47 -0.65,1.41 -0.81,1.31 -0.97,1.21 -1.10,1.08 -1.23,0.95 -1.33,0.78 -1.43,0.62 -1.48,0.44 -1.53,0.26 -1.54,0.07 -1.55,-0.11 -1.52,-0.29 -1.48,-0.48 -1.40,-0.65 -1.32,-0.82 -1.21,-0.96 -1.09,-1.11 -0.94,-1.23 -0.79,-1.34 -0.62,-1.42 -0.44,-1.49 -0.44,-1.49 L -0.44,-1.49 Z"></path></g><g transform="translate(627 660) rotate(0 116.5 53)" stroke="none"><path fill="#1864ab" d="M 1.53,-0.30 Q 1.53,-0.30 2.07,2.57 2.61,5.45 3.40,8.66 4.18,11.86 5.10,16.14 6.01,20.41 6.68,25.44 7.36,30.46 7.64,36.08 7.93,41.70 8.05,46.96 8.16,52.22 8.21,57.04 8.26,61.86 8.28,66.21 8.29,70.56 8.59,74.38 8.88,78.19 9.01,81.29 9.13,84.39 9.18,86.86 9.24,89.33 9.26,91.53 9.28,93.74 9.40,95.25 9.51,96.76 9.62,97.96 9.73,99.16 10.31,100.76 10.90,102.36 11.35,104.02 11.80,105.69 12.22,106.99 12.64,108.29 13.10,109.34 13.56,110.38 13.92,111.87 14.28,113.35 15.71,113.23 17.14,113.11 18.92,113.03 20.71,112.94 23.58,112.70 26.46,112.45 30.30,112.10 34.14,111.76 38.89,111.08 43.65,110.39 49.14,109.55 54.63,108.71 60.45,108.08 66.27,107.45 72.49,106.90 78.70,106.36 85.08,105.85 91.46,105.35 97.62,104.85 103.78,104.35 110.42,103.86 117.07,103.37 124.24,103.16 131.41,102.95 137.90,102.87 144.39,102.78 150.60,102.75 156.81,102.71 163.22,102.99 169.63,103.26 175.77,103.38 181.91,103.50 188.01,103.84 194.10,104.18 200.11,104.32 206.11,104.46 211.83,104.53 217.55,104.59 221.41,104.61 225.28,104.64 227.49,104.65 229.70,104.67 230.25,103.04 230.80,101.42 230.81,100.15 230.82,98.89 230.95,96.63 231.08,94.37 230.88,91.47 230.69,88.57 230.62,85.24 230.56,81.91 230.55,78.19 230.54,74.48 230.55,70.60 230.56,66.72 230.57,62.78 230.58,58.83 230.59,54.85 230.60,50.88 230.33,46.93 230.05,42.99 229.94,39.55 229.82,36.10 229.77,32.62 229.73,29.14 229.43,26.29 229.12,23.44 228.71,20.80 228.30,18.15 228.12,15.82 227.94,13.48 227.53,11.73 227.13,9.98 226.93,7.98 226.74,5.97 226.34,4.39 225.94,2.81 225.69,1.46 225.43,0.12 224.74,-0.89 224.04,-1.90 223.02,-2.57 222.01,-3.23 220.94,-3.28 219.88,-3.32 217.39,-4.14 214.90,-4.96 211.24,-5.31 207.58,-5.66 201.63,-6.15 195.68,-6.63 188.30,-6.87 180.93,-7.10 173.47,-7.21 166.02,-7.33 159.68,-7.40 153.35,-7.46 148.07,-7.50 142.80,-7.53 138.25,-7.56 133.71,-7.58 130.05,-7.60 126.40,-7.61 122.83,-7.62 119.27,-7.63 115.12,-7.93 110.97,-8.22 107.24,-8.35 103.50,-8.48 99.62,-8.53 95.74,-8.59 91.79,-8.61 87.84,-8.64 84.14,-8.65 80.45,-8.66 77.16,-8.66 73.86,-8.67 70.45,-8.67 67.04,-8.67 63.58,-8.68 60.11,-8.68 57.20,-8.68 54.30,-8.68 51.62,-8.68 48.95,-8.68 46.37,-8.68 43.80,-8.68 41.56,-8.68 39.31,-8.68 37.21,-8.68 35.11,-8.67 33.47,-8.32 31.83,-7.98 30.16,-7.77 28.50,-7.56 27.21,-7.41 25.93,-7.26 24.80,-7.15 23.68,-7.04 21.54,-6.64 19.41,-6.25 17.85,-6.08 16.29,-5.91 15.09,-5.81 13.88,-5.72 12.30,-5.18 10.71,-4.64 9.44,-4.26 8.18,-3.88 6.64,-3.68 5.10,-3.47 3.93,-3.39 2.76,-3.31 2.62,-1.55 2.49,0.21 2.39,0.60 2.29,1.00 2.07,1.34 1.85,1.68 1.53,1.93 1.21,2.18 0.83,2.32 0.45,2.45 0.05,2.46 -0.35,2.47 -0.73,2.35 -1.12,2.23 -1.45,1.99 -1.77,1.75 -2.01,1.42 -2.24,1.09 -2.36,0.71 -2.48,0.32 -2.46,-0.08 -2.45,-0.48 -2.31,-0.86 -2.17,-1.24 -1.91,-1.55 -1.65,-1.87 -1.31,-2.08 -0.97,-2.30 -0.58,-2.39 -0.18,-2.49 0.21,-2.45 0.61,-2.42 0.98,-2.26 1.35,-2.09 1.65,-1.82 1.95,-1.55 2.15,-1.20 2.35,-0.84 2.42,-0.45 2.50,-0.05 2.44,0.34 2.38,0.74 2.20,1.10 2.02,1.47 1.73,1.75 1.44,2.03 1.08,2.21 0.72,2.39 0.31,2.44 -0.08,2.49 -0.47,2.42 -0.87,2.34 -1.22,2.14 -1.57,1.94 -1.84,1.63 -2.11,1.33 -2.27,0.96 -2.43,0.58 -2.46,0.18 -2.49,-0.21 -2.49,-0.21 -2.49,-0.21 -2.11,-3.64 -1.73,-7.07 0.37,-7.96 2.48,-8.84 4.42,-8.93 6.36,-9.03 7.55,-9.38 8.75,-9.72 10.01,-9.74 11.27,-9.76 12.43,-10.10 13.59,-10.43 14.74,-10.44 15.89,-10.45 17.17,-10.52 18.45,-10.60 21.02,-10.81 23.60,-11.02 24.69,-10.95 25.78,-10.88 27.02,-10.84 28.25,-10.79 29.80,-10.83 31.36,-10.86 33.23,-11.09 35.10,-11.32 37.21,-11.31 39.31,-11.31 41.56,-11.31 43.80,-11.31 46.37,-11.31 48.95,-11.31 51.62,-11.31 54.30,-11.31 57.21,-11.31 60.11,-11.31 63.58,-11.31 67.04,-11.31 70.45,-11.31 73.87,-11.31 77.16,-11.31 80.46,-11.30 84.15,-11.30 87.85,-11.29 91.81,-11.27 95.77,-11.25 99.68,-11.20 103.59,-11.15 107.37,-11.03 111.15,-10.91 115.21,-10.64 119.27,-10.36 122.83,-10.36 126.40,-10.37 130.06,-10.38 133.71,-10.39 138.26,-10.40 142.80,-10.42 148.09,-10.43 153.37,-10.44 159.71,-10.44 166.05,-10.44 173.52,-10.41 181.00,-10.39 188.46,-10.27 195.92,-10.16 201.89,-9.84 207.85,-9.52 211.94,-9.32 216.02,-9.13 218.23,-8.66 220.43,-8.20 222.29,-7.92 224.14,-7.64 225.64,-6.49 227.14,-5.33 227.75,-4.16 228.36,-2.99 228.68,-1.65 229.00,-0.30 229.05,0.92 229.09,2.15 229.40,3.94 229.71,5.73 229.82,7.58 229.94,9.43 230.26,11.35 230.58,13.27 230.75,15.51 230.93,17.74 231.36,20.45 231.78,23.16 232.10,26.13 232.42,29.10 232.47,32.55 232.53,36.00 232.66,39.40 232.79,42.79 233.09,46.83 233.40,50.87 233.42,54.85 233.44,58.82 233.47,62.77 233.50,66.71 233.55,70.57 233.60,74.44 233.69,78.11 233.78,81.79 233.95,85.02 234.12,88.26 234.47,91.34 234.82,94.42 234.89,96.76 234.96,99.11 234.82,100.55 234.68,101.99 234.32,103.43 233.96,104.87 233.13,105.80 232.30,106.72 231.01,107.01 229.72,107.29 227.49,107.28 225.26,107.27 221.39,107.25 217.52,107.22 211.78,107.16 206.05,107.10 200.00,106.96 193.95,106.82 187.91,106.48 181.87,106.15 175.69,106.04 169.52,105.92 163.17,105.66 156.83,105.39 150.63,105.43 144.43,105.48 137.96,105.58 131.49,105.67 124.38,105.90 117.28,106.12 110.65,106.64 104.01,107.15 97.85,107.68 91.70,108.21 85.34,108.77 78.98,109.32 72.80,109.92 66.63,110.53 60.89,111.23 55.16,111.94 49.68,112.91 44.21,113.87 39.40,114.72 34.59,115.57 30.81,116.14 27.04,116.70 24.17,117.23 21.29,117.77 19.03,118.18 16.76,118.58 14.04,117.90 11.32,117.22 10.39,116.02 9.46,114.82 9.26,113.51 9.05,112.21 8.58,110.95 8.11,109.70 7.69,108.30 7.28,106.90 6.98,105.54 6.68,104.17 6.71,102.81 6.74,101.45 6.49,100.35 6.25,99.24 6.35,98.01 6.45,96.78 6.55,95.27 6.64,93.76 6.62,91.58 6.60,89.39 6.54,86.94 6.49,84.50 6.36,81.45 6.23,78.39 5.93,74.48 5.63,70.58 5.60,66.24 5.58,61.89 5.52,57.09 5.46,52.28 5.34,47.06 5.21,41.84 4.91,36.34 4.62,30.84 3.94,25.92 3.25,21.01 2.32,16.79 1.38,12.57 0.53,9.30 -0.31,6.04 -0.92,3.17 -1.53,0.30 -1.54,0.11 -1.56,-0.06 -1.52,-0.25 -1.49,-0.44 -1.42,-0.61 -1.34,-0.78 -1.23,-0.93 -1.12,-1.08 -0.97,-1.20 -0.82,-1.32 -0.65,-1.40 -0.48,-1.48 -0.30,-1.52 -0.11,-1.55 0.06,-1.54 0.25,-1.54 0.43,-1.48 0.61,-1.43 0.78,-1.33 0.94,-1.24 1.07,-1.11 1.21,-0.98 1.31,-0.82 1.41,-0.66 1.47,-0.48 1.53,-0.30 1.53,-0.30 L 1.53,-0.30 Z"></path></g><g transform="translate(71 716.5) rotate(0 38 13)"><text x="0" y="19" font-family="Virgil, Segoe UI Emoji" font-size="20px" fill="#1864ab" text-anchor="start" style="white-space: pre;" direction="ltr">Choice 1</text></g><g transform="translate(403 710) rotate(0 42 13)"><text x="0" y="19" font-family="Virgil, Segoe UI Emoji" font-size="20px" fill="#1864ab" text-anchor="start" style="white-space: pre;" direction="ltr">Choice 2</text></g><g transform="translate(705 698) rotate(0 42 13)"><text x="0" y="19" font-family="Virgil, Segoe UI Emoji" font-size="20px" fill="#1864ab" text-anchor="start" style="white-space: pre;" direction="ltr">Choice 3</text></g><g transform="translate(390 530) rotate(0 -102 53)" stroke="none"><path fill="#1864ab" d="M 0.75,1.36 Q 0.75,1.36 -1.84,2.77 -4.44,4.18 -7.83,6.19 -11.22,8.20 -16.46,10.81 -21.70,13.42 -28.24,16.53 -34.77,19.64 -42.41,23.53 -50.06,27.43 -58.76,32.24 -67.46,37.04 -76.34,41.96 -85.22,46.89 -93.87,51.85 -102.53,56.81 -110.49,62.06 -118.45,67.31 -125.01,71.56 -131.58,75.82 -136.67,79.06 -141.76,82.31 -145.95,84.85 -150.14,87.38 -153.70,89.07 -157.26,90.75 -160.26,91.76 -163.25,92.78 -165.91,93.77 -168.57,94.76 -171.45,95.76 -174.33,96.76 -176.72,97.48 -179.11,98.20 -181.47,99.33 -183.82,100.46 -186.38,101.28 -188.94,102.09 -191.09,102.98 -193.24,103.87 -195.04,104.59 -196.84,105.32 -197.89,105.72 -198.93,106.12 -201.40,107.03 -203.87,107.94 -204.19,107.91 -204.50,107.87 -204.79,107.74 -205.07,107.61 -205.30,107.40 -205.53,107.19 -205.68,106.91 -205.83,106.63 -205.89,106.32 -205.94,106.01 -205.89,105.70 -205.84,105.39 -205.70,105.11 -205.55,104.83 -205.33,104.61 -205.10,104.39 -204.82,104.26 -204.53,104.13 -204.22,104.09 -203.91,104.05 -203.60,104.12 -203.29,104.18 -203.02,104.34 -202.75,104.50 -202.54,104.74 -202.34,104.98 -202.22,105.27 -202.10,105.56 -202.08,105.87 -202.06,106.19 -202.14,106.49 -202.22,106.80 -202.40,107.06 -202.57,107.32 -202.82,107.51 -203.07,107.71 -203.37,107.81 -203.66,107.91 -203.98,107.91 -204.29,107.92 -204.59,107.82 -204.89,107.72 -205.14,107.53 -205.40,107.35 -205.57,107.09 -205.75,106.83 -205.84,106.52 -205.93,106.22 -205.91,105.91 -205.90,105.59 -205.78,105.30 -205.67,105.01 -205.47,104.77 -205.27,104.52 -205.00,104.36 -204.73,104.19 -204.42,104.12 -204.12,104.05 -204.12,104.05 -204.12,104.05 -202.03,103.54 -199.95,103.02 -198.89,102.85 -197.83,102.68 -196.03,102.06 -194.24,101.44 -191.99,100.51 -189.73,99.59 -187.34,98.84 -184.95,98.09 -182.41,96.89 -179.88,95.69 -177.53,94.98 -175.19,94.28 -172.34,93.28 -169.49,92.29 -166.79,91.29 -164.09,90.29 -161.24,89.33 -158.38,88.36 -154.94,86.75 -151.51,85.13 -147.35,82.61 -143.18,80.08 -138.10,76.84 -133.02,73.60 -126.46,69.34 -119.91,65.09 -111.88,59.79 -103.85,54.49 -95.19,49.52 -86.52,44.54 -77.64,39.61 -68.76,34.68 -60.03,29.84 -51.30,25.00 -43.63,21.07 -35.96,17.14 -29.46,14.02 -22.96,10.90 -17.84,8.31 -12.71,5.73 -9.31,3.65 -5.90,1.56 -3.32,0.10 -0.75,-1.36 -0.58,-1.43 -0.40,-1.50 -0.22,-1.53 -0.03,-1.56 0.15,-1.54 0.33,-1.52 0.51,-1.46 0.69,-1.40 0.85,-1.29 1.00,-1.19 1.13,-1.05 1.26,-0.91 1.35,-0.75 1.44,-0.58 1.49,-0.40 1.54,-0.22 1.55,-0.03 1.55,0.15 1.51,0.33 1.47,0.51 1.38,0.68 1.30,0.85 1.18,1.00 1.06,1.14 0.91,1.25 0.75,1.36 0.75,1.36 L 0.75,1.36 Z"></path></g><g transform="translate(176 625) rotate(0 8.5 12)" stroke="none"><path fill="#1864ab" d="M 2.02,0.67 Q 2.02,0.67 1.41,2.38 0.81,4.10 0.29,5.49 -0.22,6.88 -1.47,8.71 -2.71,10.54 -3.78,12.12 -4.85,13.70 -5.90,15.43 -6.94,17.16 -7.61,18.73 -8.28,20.30 -8.99,22.34 -9.69,24.38 -9.24,23.87 -8.79,23.37 -8.86,23.62 -8.94,23.87 -9.08,24.09 -9.21,24.31 -9.40,24.50 -9.58,24.68 -9.80,24.81 -10.03,24.95 -10.28,25.03 -10.53,25.10 -10.79,25.12 -11.05,25.14 -11.30,25.09 -11.56,25.04 -11.80,24.93 -12.03,24.83 -12.24,24.67 -12.44,24.50 -12.60,24.30 -12.76,24.09 -12.87,23.86 -12.98,23.62 -13.03,23.36 -13.07,23.11 -13.06,22.85 -13.04,22.58 -11.87,21.74 -10.70,20.89 -8.82,19.74 -6.93,18.58 -4.73,18.16 -2.53,17.74 0.13,17.32 2.80,16.90 5.96,16.47 9.11,16.04 12.24,15.87 15.37,15.70 18.06,15.37 20.74,15.04 22.81,14.88 24.88,14.72 26.37,14.51 27.86,14.31 28.13,14.33 28.41,14.36 28.66,14.46 28.91,14.57 29.11,14.76 29.31,14.94 29.45,15.18 29.58,15.42 29.63,15.68 29.69,15.95 29.65,16.22 29.61,16.49 29.49,16.74 29.37,16.98 29.17,17.18 28.98,17.37 28.73,17.49 28.49,17.61 28.22,17.65 27.95,17.68 27.68,17.63 27.41,17.58 27.17,17.45 26.93,17.31 26.75,17.11 26.57,16.90 26.46,16.65 26.35,16.40 26.33,16.13 26.31,15.85 26.38,15.59 26.44,15.32 26.59,15.09 26.74,14.86 26.95,14.69 27.17,14.52 27.42,14.43 27.68,14.33 27.95,14.33 28.23,14.32 28.49,14.40 28.75,14.48 28.97,14.64 29.19,14.80 29.35,15.02 29.51,15.25 29.59,15.51 29.67,15.77 29.66,16.04 29.65,16.32 29.56,16.57 29.46,16.83 29.29,17.04 29.12,17.26 28.89,17.40 28.66,17.55 28.39,17.61 28.13,17.68 28.13,17.68 28.13,17.68 26.63,17.71 25.12,17.75 23.14,17.91 21.16,18.07 18.38,18.50 15.60,18.92 12.63,19.18 9.66,19.44 6.59,20.01 3.52,20.58 0.99,21.18 -1.52,21.77 -3.42,22.37 -5.32,22.98 -6.43,23.32 -7.55,23.67 -8.81,24.37 -10.07,25.08 -9.43,24.22 -8.79,23.37 -8.86,23.62 -8.94,23.87 -9.08,24.09 -9.21,24.31 -9.40,24.50 -9.58,24.68 -9.80,24.81 -10.03,24.95 -10.28,25.03 -10.53,25.10 -10.79,25.12 -11.05,25.14 -11.30,25.09 -11.56,25.04 -11.80,24.93 -12.03,24.83 -12.24,24.67 -12.44,24.50 -12.60,24.30 -12.76,24.09 -12.87,23.86 -12.98,23.62 -13.03,23.36 -13.07,23.11 -13.06,22.85 -13.04,22.59 -12.74,21.77 -12.44,20.95 -12.01,19.90 -11.58,18.85 -10.81,17.14 -10.05,15.43 -9.06,13.52 -8.07,11.60 -7.06,10.00 -6.06,8.41 -5.13,6.83 -4.20,5.25 -3.65,4.02 -3.11,2.79 -2.56,1.06 -2.02,-0.67 -1.91,-0.90 -1.80,-1.14 -1.64,-1.33 -1.47,-1.53 -1.27,-1.69 -1.06,-1.84 -0.83,-1.94 -0.59,-2.05 -0.34,-2.09 -0.08,-2.13 0.16,-2.11 0.42,-2.09 0.67,-2.01 0.91,-1.92 1.13,-1.79 1.34,-1.65 1.52,-1.46 1.70,-1.28 1.83,-1.06 1.96,-0.83 2.03,-0.59 2.10,-0.34 2.11,-0.08 2.12,0.17 2.07,0.42 2.02,0.67 2.02,0.67 L 2.02,0.67 Z"></path></g><g transform="translate(404 905) rotate(0 13.5 57)" stroke="none"><path fill="#1864ab" d="M 0.99,1.32 Q 0.99,1.32 -1.32,2.99 -3.64,4.67 -5.61,7.78 -7.59,10.89 -9.94,14.85 -12.29,18.81 -14.73,23.08 -17.17,27.35 -19.35,31.72 -21.53,36.09 -23.91,40.56 -26.29,45.04 -28.16,48.65 -30.03,52.26 -31.42,54.68 -32.81,57.11 -33.27,58.63 -33.73,60.15 -33.86,61.58 -33.99,63.00 -33.04,64.58 -32.09,66.17 -30.24,69.64 -28.39,73.11 -25.09,77.37 -21.80,81.63 -17.83,86.04 -13.86,90.45 -9.60,94.61 -5.35,98.78 -1.54,102.28 2.26,105.78 5.31,108.41 8.36,111.05 10.57,113.37 12.78,115.70 14.30,117.57 15.83,119.44 16.82,120.41 17.81,121.38 19.39,120.53 20.97,119.68 23.24,117.97 25.50,116.25 28.42,113.04 31.33,109.84 35.22,105.56 39.11,101.29 43.40,97.15 47.69,93.01 50.94,89.84 54.19,86.67 56.44,84.47 58.69,82.27 59.50,81.05 60.32,79.84 60.33,77.82 60.35,75.80 59.29,73.60 58.24,71.40 56.08,67.50 53.91,63.59 51.00,58.76 48.08,53.93 44.29,48.75 40.51,43.57 37.15,38.74 33.80,33.91 30.64,28.96 27.48,24.01 24.70,19.01 21.91,14.00 19.02,9.33 16.14,4.65 13.76,0.94 11.39,-2.77 9.86,-4.57 8.33,-6.37 7.10,-7.71 5.88,-9.05 5.76,-9.25 5.64,-9.45 5.59,-9.68 5.54,-9.92 5.56,-10.15 5.59,-10.39 5.69,-10.60 5.79,-10.81 5.95,-10.99 6.11,-11.16 6.32,-11.27 6.53,-11.38 6.76,-11.42 6.99,-11.46 7.23,-11.42 7.46,-11.38 7.67,-11.27 7.88,-11.16 8.04,-10.99 8.20,-10.81 8.30,-10.60 8.40,-10.39 8.43,-10.15 8.45,-9.92 8.40,-9.69 8.35,-9.45 8.23,-9.25 8.11,-9.05 7.93,-8.90 7.75,-8.74 7.53,-8.66 7.31,-8.57 7.07,-8.56 6.84,-8.54 6.61,-8.61 6.38,-8.67 6.19,-8.80 5.99,-8.93 5.85,-9.12 5.71,-9.31 5.63,-9.53 5.55,-9.76 5.55,-9.99 5.55,-10.23 5.63,-10.46 5.70,-10.68 5.85,-10.87 5.99,-11.05 6.19,-11.19 6.38,-11.32 6.61,-11.38 6.84,-11.45 7.07,-11.43 7.31,-11.42 7.53,-11.33 7.75,-11.25 7.93,-11.09 8.11,-10.94 8.11,-10.94 8.11,-10.94 9.23,-9.52 10.36,-8.10 12.01,-6.16 13.65,-4.22 16.05,-0.49 18.44,3.23 21.37,7.95 24.30,12.67 27.06,17.59 29.83,22.51 32.98,27.40 36.13,32.28 39.49,37.06 42.86,41.84 46.76,47.09 50.67,52.35 53.67,57.18 56.68,62.02 58.99,65.97 61.29,69.93 62.64,72.69 63.99,75.46 64.02,77.67 64.05,79.88 63.46,80.83 62.86,81.79 61.78,83.04 60.69,84.28 58.47,86.52 56.25,88.76 53.03,91.97 49.82,95.19 45.66,99.30 41.50,103.42 37.69,107.76 33.89,112.09 30.86,115.61 27.84,119.12 25.61,121.05 23.39,122.98 21.72,124.01 20.06,125.05 18.67,124.96 17.28,124.88 16.37,124.17 15.45,123.46 14.60,122.30 13.74,121.15 12.27,119.36 10.81,117.58 8.68,115.36 6.56,113.14 3.47,110.50 0.37,107.85 -3.49,104.35 -7.35,100.84 -11.70,96.64 -16.05,92.44 -20.14,87.99 -24.24,83.53 -27.74,79.11 -31.24,74.69 -33.20,71.27 -35.17,67.85 -36.24,64.49 -37.31,61.14 -36.93,60.13 -36.54,59.12 -35.84,57.45 -35.14,55.78 -33.78,53.40 -32.43,51.02 -30.57,47.39 -28.70,43.76 -26.35,39.31 -24.01,34.86 -21.81,30.41 -19.62,25.96 -17.20,21.66 -14.78,17.35 -12.44,13.32 -10.11,9.28 -7.83,5.75 -5.55,2.22 -3.27,0.45 -0.99,-1.32 -0.81,-1.42 -0.64,-1.52 -0.45,-1.57 -0.26,-1.63 -0.06,-1.63 0.13,-1.64 0.32,-1.60 0.52,-1.56 0.70,-1.48 0.88,-1.39 1.03,-1.26 1.19,-1.14 1.31,-0.98 1.43,-0.82 1.50,-0.64 1.58,-0.45 1.61,-0.26 1.65,-0.06 1.63,0.13 1.61,0.33 1.55,0.52 1.49,0.70 1.38,0.87 1.27,1.04 1.13,1.18 0.99,1.32 0.99,1.32 L 0.99,1.32 Z"></path></g><g transform="translate(387 955.5) rotate(0 30 13)"><text x="0" y="19" font-family="Virgil, Segoe UI Emoji" font-size="20px" fill="#1864ab" text-anchor="start" style="white-space: pre;" direction="ltr">Good?</text></g><g transform="translate(93 794) rotate(0 161.5 40)" stroke="none"><path fill="#1864ab" d="M 1.71,0.19 Q 1.71,0.19 1.37,2.77 1.03,5.35 0.27,8.54 -0.47,11.73 -0.78,15.24 -1.09,18.76 -1.23,21.99 -1.38,25.22 -1.45,28.32 -1.52,31.42 -1.28,33.49 -1.03,35.56 -0.13,37.11 0.76,38.65 1.92,39.44 3.08,40.23 4.60,40.83 6.12,41.42 8.35,41.72 10.58,42.01 14.99,42.17 19.40,42.33 25.64,42.69 31.88,43.06 40.53,43.22 49.19,43.38 59.77,43.45 70.35,43.53 80.88,43.56 91.42,43.60 101.65,43.62 111.88,43.63 121.40,43.64 130.92,43.65 139.57,43.66 148.21,43.66 156.22,43.95 164.24,44.24 172.79,44.37 181.35,44.49 189.61,44.83 197.87,45.17 205.69,45.61 213.51,46.04 221.44,46.51 229.36,46.98 237.35,47.76 245.35,48.54 251.86,48.87 258.38,49.19 264.31,49.33 270.24,49.47 275.06,49.53 279.88,49.59 283.94,49.62 288.00,49.64 291.45,49.65 294.90,49.67 298.09,49.67 301.28,49.67 304.07,49.68 306.87,49.68 308.34,49.57 309.82,49.46 311.69,49.25 313.57,49.05 316.12,48.95 318.68,48.85 320.21,48.83 321.73,48.82 323.28,49.14 324.83,49.46 325.72,50.58 326.61,51.71 327.11,53.39 327.61,55.07 327.72,57.40 327.83,59.72 327.80,62.40 327.78,65.08 327.74,67.35 327.69,69.63 327.65,71.75 327.61,73.86 327.72,76.93 327.82,79.99 327.77,80.28 327.73,80.57 327.59,80.83 327.45,81.09 327.24,81.30 327.02,81.50 326.76,81.63 326.49,81.75 326.20,81.78 325.90,81.82 325.61,81.76 325.33,81.69 325.07,81.54 324.82,81.39 324.63,81.17 324.43,80.94 324.32,80.67 324.21,80.39 324.20,80.10 324.18,79.80 324.26,79.52 324.34,79.23 324.50,78.99 324.67,78.74 324.90,78.56 325.13,78.39 325.41,78.29 325.69,78.19 325.99,78.19 326.28,78.19 326.56,78.29 326.84,78.38 327.08,78.56 327.32,78.74 327.48,78.98 327.65,79.22 327.73,79.51 327.81,79.79 327.79,80.09 327.78,80.38 327.67,80.66 327.56,80.93 327.37,81.16 327.18,81.38 326.93,81.54 326.68,81.69 326.39,81.75 326.10,81.82 325.81,81.79 325.51,81.76 325.24,81.63 324.98,81.51 324.76,81.31 324.55,81.10 324.41,80.84 324.27,80.58 324.22,80.29 324.17,80.00 324.17,80.00 324.17,80.00 324.25,76.94 324.33,73.89 324.26,71.78 324.19,69.68 324.08,67.44 323.96,65.20 323.78,62.66 323.59,60.11 323.31,58.27 323.03,56.43 322.38,54.80 321.73,53.17 320.21,53.16 318.68,53.14 316.12,53.04 313.57,52.94 311.69,52.74 309.81,52.53 308.34,52.42 306.86,52.31 304.07,52.30 301.27,52.30 298.08,52.30 294.89,52.29 291.43,52.28 287.98,52.27 283.91,52.25 279.84,52.22 275.01,52.16 270.17,52.10 264.21,51.96 258.25,51.82 251.67,51.49 245.09,51.16 237.15,50.39 229.21,49.61 221.29,49.14 213.37,48.67 205.56,48.24 197.76,47.81 189.53,47.47 181.31,47.14 172.72,47.01 164.14,46.89 156.18,46.61 148.21,46.32 139.57,46.32 130.92,46.32 121.40,46.32 111.87,46.32 101.64,46.32 91.41,46.31 80.87,46.30 70.33,46.28 59.74,46.23 49.14,46.18 40.43,46.05 31.72,45.92 25.52,45.59 19.32,45.27 14.75,45.17 10.19,45.06 7.53,44.73 4.87,44.40 3.00,43.53 1.13,42.66 -0.25,41.35 -1.64,40.05 -2.69,38.01 -3.74,35.96 -4.03,33.67 -4.31,31.37 -4.28,28.24 -4.24,25.11 -4.13,21.82 -4.03,18.52 -3.74,14.79 -3.46,11.06 -2.82,8.03 -2.18,4.99 -1.94,2.40 -1.71,-0.19 -1.67,-0.39 -1.62,-0.59 -1.52,-0.78 -1.43,-0.96 -1.29,-1.12 -1.15,-1.28 -0.98,-1.40 -0.81,-1.52 -0.62,-1.59 -0.43,-1.67 -0.22,-1.70 -0.01,-1.72 0.18,-1.70 0.39,-1.68 0.59,-1.61 0.78,-1.53 0.96,-1.42 1.13,-1.30 1.27,-1.15 1.41,-0.99 1.51,-0.81 1.61,-0.62 1.66,-0.42 1.71,-0.22 1.71,-0.01 1.71,0.19 1.71,0.19 L 1.71,0.19 Z"></path></g><g transform="translate(402 867) rotate(0 19.5 9.5)" stroke="none"><path fill="#1864ab" d="M 1.36,-0.97 Q 1.36,-0.97 2.76,1.06 4.15,3.10 5.33,4.85 6.50,6.59 8.07,8.42 9.65,10.24 11.67,11.83 13.70,13.41 15.63,14.34 17.55,15.27 20.03,15.94 22.51,16.62 24.66,16.91 26.81,17.21 28.71,16.77 30.60,16.34 31.97,15.79 33.34,15.23 35.05,14.71 36.75,14.19 37.62,13.72 38.49,13.25 38.76,13.27 39.02,13.28 39.28,13.36 39.53,13.44 39.76,13.57 39.98,13.71 40.17,13.90 40.36,14.08 40.50,14.31 40.63,14.54 40.71,14.79 40.79,15.04 40.81,15.30 40.83,15.57 40.78,15.83 40.73,16.09 40.62,16.33 40.52,16.57 40.35,16.78 40.19,16.99 39.98,17.15 39.78,17.32 39.53,17.43 39.29,17.54 39.03,17.59 38.77,17.63 36.75,16.71 34.73,15.79 34.48,15.55 34.22,15.30 34.06,14.98 33.90,14.66 33.85,14.31 33.80,13.96 33.86,13.61 33.92,13.26 34.10,12.95 34.27,12.64 34.53,12.40 34.79,12.16 35.12,12.01 35.44,11.87 35.80,11.84 36.15,11.80 36.50,11.89 36.84,11.97 37.14,12.16 37.44,12.34 37.67,12.62 37.90,12.89 38.02,13.23 38.15,13.56 38.16,13.91 38.18,14.27 38.07,14.61 37.97,14.95 37.77,15.24 37.57,15.53 37.28,15.74 36.99,15.95 36.65,16.06 36.32,16.17 35.96,16.16 35.60,16.16 35.27,16.04 34.93,15.92 34.65,15.70 34.38,15.48 34.18,15.18 33.99,14.89 33.90,14.54 33.81,14.20 33.83,13.84 33.86,13.49 33.99,13.16 34.13,12.83 34.37,12.56 34.60,12.30 34.91,12.12 35.22,11.94 35.56,11.87 35.91,11.80 36.26,11.84 36.62,11.89 36.94,12.04 37.26,12.20 37.26,12.20 37.26,12.20 37.88,12.72 38.49,13.25 38.76,13.27 39.02,13.28 39.28,13.36 39.53,13.44 39.76,13.57 39.98,13.71 40.17,13.90 40.36,14.08 40.50,14.31 40.63,14.54 40.71,14.79 40.79,15.04 40.81,15.30 40.83,15.57 40.78,15.83 40.73,16.09 40.62,16.33 40.52,16.57 40.35,16.78 40.19,16.99 39.98,17.15 39.78,17.32 39.54,17.43 39.29,17.54 39.03,17.59 38.77,17.63 38.01,17.84 37.24,18.05 35.77,18.11 34.30,18.17 32.73,18.57 31.16,18.97 28.83,19.43 26.51,19.89 24.15,19.58 21.79,19.27 19.07,18.53 16.35,17.78 14.16,16.73 11.96,15.67 9.71,13.93 7.45,12.19 5.72,10.26 3.99,8.32 2.79,6.63 1.59,4.94 0.11,2.95 -1.36,0.97 -1.46,0.79 -1.55,0.62 -1.61,0.42 -1.66,0.22 -1.66,0.02 -1.66,-0.17 -1.62,-0.37 -1.57,-0.56 -1.48,-0.75 -1.39,-0.93 -1.26,-1.08 -1.13,-1.23 -0.96,-1.35 -0.80,-1.47 -0.61,-1.54 -0.42,-1.62 -0.22,-1.64 -0.02,-1.67 0.17,-1.65 0.37,-1.63 0.56,-1.56 0.75,-1.49 0.92,-1.38 1.09,-1.27 1.22,-1.12 1.36,-0.97 1.36,-0.97 L 1.36,-0.97 Z"></path></g><g transform="translate(478 981) rotate(0 270 -265.5)" stroke="none"><path fill="#1864ab" d="M -0.23,-1.54 Q -0.23,-1.54 3.50,-2.08 7.24,-2.62 11.98,-3.41 16.73,-4.21 22.49,-5.11 28.26,-6.02 35.93,-6.69 43.61,-7.37 52.03,-7.94 60.46,-8.50 69.20,-9.32 77.93,-10.13 87.67,-11.33 97.41,-12.53 107.89,-13.62 118.38,-14.71 128.54,-16.32 138.71,-17.92 148.51,-19.47 158.30,-21.01 167.08,-22.25 175.86,-23.48 183.92,-24.29 191.98,-25.11 200.30,-25.74 208.62,-26.37 217.02,-27.22 225.42,-28.06 233.86,-29.27 242.29,-30.49 250.79,-31.59 259.28,-32.68 268.36,-33.72 277.44,-34.76 286.49,-35.50 295.54,-36.23 304.56,-36.82 313.59,-37.42 323.15,-38.25 332.72,-39.08 342.23,-40.29 351.74,-41.50 360.68,-42.59 369.62,-43.69 378.89,-44.73 388.16,-45.76 396.71,-46.50 405.26,-47.23 413.24,-47.54 421.21,-47.85 428.33,-47.98 435.46,-48.11 442.20,-48.46 448.94,-48.80 454.70,-48.95 460.46,-49.09 465.22,-49.15 469.97,-49.22 473.71,-49.24 477.46,-49.27 480.20,-49.28 482.94,-49.29 484.68,-49.37 486.42,-49.46 488.31,-49.49 490.20,-49.52 492.15,-49.54 494.11,-49.55 496.47,-49.22 498.83,-48.90 501.74,-48.76 504.65,-48.61 507.34,-48.55 510.03,-48.48 512.61,-48.44 515.18,-48.41 517.43,-48.39 519.68,-48.37 521.49,-48.43 523.31,-48.48 524.94,-48.55 526.58,-48.62 527.85,-48.72 529.12,-48.81 529.81,-50.57 530.49,-52.32 530.50,-53.67 530.50,-55.01 530.63,-57.01 530.75,-59.02 530.88,-61.89 531.00,-64.75 531.09,-69.14 531.18,-73.52 531.25,-79.98 531.32,-86.44 531.94,-95.56 532.57,-104.68 533.14,-113.42 533.71,-122.16 534.54,-130.79 535.36,-139.41 536.30,-148.53 537.23,-157.66 537.63,-167.24 538.03,-176.82 537.92,-185.76 537.81,-194.70 537.19,-203.37 536.57,-212.03 536.02,-220.91 535.48,-229.79 534.38,-238.99 533.29,-248.19 531.97,-257.56 530.64,-266.93 529.50,-276.69 528.36,-286.44 527.31,-296.05 526.25,-305.66 524.94,-315.18 523.63,-324.71 521.06,-341.11 518.49,-357.52 517.11,-367.67 515.73,-377.83 514.85,-386.76 513.98,-395.70 513.03,-403.78 512.09,-411.87 511.40,-419.64 510.71,-427.42 510.12,-435.32 509.54,-443.23 509.01,-450.61 508.47,-457.99 507.68,-464.54 506.88,-471.10 506.25,-477.07 505.62,-483.04 505.06,-487.87 504.51,-492.70 503.99,-496.17 503.47,-499.64 502.97,-501.94 502.47,-504.25 502.18,-506.16 501.90,-508.07 501.16,-509.79 500.42,-511.50 500.23,-513.00 500.05,-514.49 498.91,-514.32 497.77,-514.14 495.77,-514.68 493.77,-515.23 490.07,-515.80 486.37,-516.37 481.34,-516.94 476.31,-517.51 468.41,-518.35 460.51,-519.20 450.86,-519.86 441.21,-520.52 430.78,-521.11 420.35,-521.69 410.47,-521.95 400.60,-522.21 390.36,-522.32 380.13,-522.44 369.74,-522.50 359.35,-522.55 349.76,-522.58 340.17,-522.61 330.63,-522.62 321.09,-522.63 311.87,-522.64 302.64,-522.65 293.83,-522.66 285.02,-522.66 277.25,-522.66 269.48,-522.67 262.73,-522.67 255.98,-522.67 249.94,-522.67 243.91,-522.67 238.47,-522.68 233.03,-522.68 227.56,-522.68 222.09,-522.68 215.71,-522.97 209.32,-523.26 202.62,-523.38 195.91,-523.50 189.29,-523.84 182.68,-524.18 176.44,-524.32 170.21,-524.47 164.68,-524.53 159.16,-524.59 154.22,-524.62 149.29,-524.64 145.18,-524.65 141.07,-524.66 137.89,-524.67 134.70,-524.67 131.91,-524.68 129.12,-524.68 126.50,-524.68 123.87,-524.68 121.32,-524.68 118.77,-524.68 115.96,-524.68 113.15,-524.68 110.52,-524.68 107.89,-524.68 106.19,-524.60 104.50,-524.51 102.92,-524.43 101.33,-524.35 99.51,-524.33 97.69,-524.30 96.05,-524.25 94.41,-524.21 92.86,-524.15 91.30,-524.10 89.96,-523.79 88.61,-523.48 86.90,-523.14 85.18,-522.81 84.00,-522.66 82.83,-522.52 81.75,-522.49 80.67,-522.45 80.30,-521.03 79.92,-519.61 79.77,-517.72 79.61,-515.83 79.48,-513.86 79.35,-511.90 78.95,-509.76 78.54,-507.62 78.48,-506.51 78.41,-505.39 78.00,-504.22 77.58,-503.05 76.39,-502.19 75.19,-501.33 74.04,-501.33 72.90,-501.32 71.56,-502.07 70.23,-502.82 69.08,-503.30 67.93,-503.79 66.75,-504.32 65.57,-504.85 64.32,-505.34 63.06,-505.82 61.86,-506.34 60.65,-506.86 58.61,-507.38 56.58,-507.90 55.48,-508.36 54.38,-508.82 52.78,-509.76 51.19,-510.70 50.86,-512.87 50.53,-515.05 51.35,-516.29 52.17,-517.54 53.41,-518.39 54.65,-519.24 56.05,-520.11 57.45,-520.97 59.60,-522.10 61.75,-523.22 64.21,-524.25 66.68,-525.29 68.76,-526.47 70.84,-527.66 72.71,-528.52 74.58,-529.39 75.76,-530.28 76.93,-531.17 78.52,-532.02 80.11,-532.88 80.44,-532.97 80.76,-533.06 81.10,-533.04 81.43,-533.03 81.74,-532.90 82.06,-532.78 82.31,-532.56 82.57,-532.35 82.75,-532.06 82.92,-531.77 82.99,-531.45 83.07,-531.12 83.03,-530.78 83.00,-530.45 82.86,-530.14 82.72,-529.84 82.49,-529.59 82.26,-529.35 81.96,-529.19 81.67,-529.03 81.34,-528.97 81.00,-528.92 80.67,-528.97 80.34,-529.02 80.04,-529.18 79.75,-529.34 79.51,-529.58 79.28,-529.82 79.14,-530.13 79.00,-530.43 78.96,-530.76 78.92,-531.10 78.99,-531.43 79.06,-531.75 79.23,-532.04 79.41,-532.33 79.66,-532.55 79.92,-532.77 80.23,-532.90 80.54,-533.02 80.87,-533.04 81.21,-533.06 81.53,-532.97 81.86,-532.88 82.14,-532.70 82.42,-532.51 82.62,-532.24 82.83,-531.98 82.93,-531.66 83.04,-531.34 83.04,-531.00 83.05,-530.67 82.94,-530.35 82.83,-530.03 82.63,-529.76 82.43,-529.49 82.15,-529.30 81.88,-529.11 81.88,-529.11 81.88,-529.11 80.51,-528.58 79.14,-528.04 77.67,-527.06 76.19,-526.07 74.54,-525.24 72.88,-524.40 70.71,-522.91 68.55,-521.43 66.43,-520.26 64.32,-519.08 62.47,-517.71 60.62,-516.33 58.61,-515.09 56.60,-513.84 58.35,-513.06 60.10,-512.29 61.41,-511.96 62.73,-511.64 63.81,-511.15 64.90,-510.66 66.33,-510.12 67.77,-509.59 68.86,-509.07 69.95,-508.55 71.94,-507.25 73.94,-505.95 74.13,-507.09 74.31,-508.24 74.49,-510.08 74.66,-511.92 74.55,-513.90 74.44,-515.88 74.32,-517.86 74.21,-519.84 74.27,-521.16 74.33,-522.49 74.71,-523.76 75.08,-525.03 76.62,-525.96 78.16,-526.90 79.35,-527.22 80.54,-527.55 82.69,-527.44 84.84,-527.34 86.36,-527.35 87.88,-527.36 89.59,-527.62 91.29,-527.89 92.85,-527.84 94.41,-527.78 96.05,-527.74 97.69,-527.69 99.51,-527.66 101.33,-527.64 102.92,-527.56 104.50,-527.48 106.19,-527.39 107.89,-527.31 110.52,-527.31 113.15,-527.31 115.96,-527.31 118.77,-527.31 121.32,-527.31 123.87,-527.31 126.50,-527.31 129.12,-527.31 131.91,-527.30 134.71,-527.30 137.89,-527.30 141.08,-527.29 145.19,-527.28 149.30,-527.27 154.25,-527.24 159.19,-527.22 164.73,-527.16 170.27,-527.10 176.54,-526.95 182.81,-526.81 189.39,-526.47 195.96,-526.13 202.70,-526.01 209.44,-525.88 215.77,-525.60 222.09,-525.31 227.56,-525.31 233.03,-525.31 238.47,-525.31 243.91,-525.32 249.94,-525.32 255.98,-525.32 262.73,-525.32 269.48,-525.32 277.25,-525.32 285.02,-525.33 293.83,-525.33 302.64,-525.33 311.87,-525.33 321.10,-525.33 330.64,-525.33 340.18,-525.33 349.77,-525.32 359.36,-525.31 369.76,-525.28 380.15,-525.26 390.41,-525.17 400.66,-525.09 410.59,-524.88 420.51,-524.67 430.96,-524.15 441.41,-523.63 451.12,-523.06 460.84,-522.48 468.74,-521.76 476.65,-521.04 481.75,-520.64 486.85,-520.23 490.73,-519.86 494.62,-519.49 496.96,-519.17 499.29,-518.85 501.10,-518.07 502.91,-517.30 503.52,-515.57 504.13,-513.83 504.13,-512.39 504.12,-510.95 504.43,-509.68 504.73,-508.42 504.88,-506.61 505.03,-504.80 505.55,-502.42 506.07,-500.03 506.59,-496.51 507.12,-493.00 507.68,-488.16 508.23,-483.32 508.86,-477.37 509.48,-471.42 510.29,-464.80 511.10,-458.18 511.63,-450.80 512.16,-443.42 512.74,-435.53 513.32,-427.65 514.01,-419.91 514.70,-412.18 515.65,-404.06 516.60,-395.95 517.47,-387.07 518.34,-378.18 519.72,-368.06 521.10,-357.93 523.67,-341.50 526.24,-325.07 527.56,-315.51 528.87,-305.95 529.93,-296.35 531.00,-286.75 532.13,-277.03 533.27,-267.30 534.61,-257.90 535.94,-248.50 537.05,-239.23 538.15,-229.96 538.71,-221.09 539.27,-212.23 539.91,-203.48 540.54,-194.74 540.67,-185.73 540.81,-176.71 540.43,-167.04 540.05,-157.37 539.15,-148.26 538.26,-139.14 537.48,-130.56 536.71,-121.98 536.21,-113.23 535.72,-104.49 535.19,-95.46 534.67,-86.44 534.74,-79.98 534.80,-73.52 534.89,-69.13 534.98,-64.75 535.10,-61.88 535.22,-59.01 535.33,-56.98 535.44,-54.95 535.42,-53.56 535.39,-52.17 535.31,-50.90 535.23,-49.62 534.38,-47.75 533.53,-45.89 532.51,-45.46 531.50,-45.04 530.31,-45.11 529.12,-45.18 527.85,-45.27 526.58,-45.37 524.94,-45.45 523.30,-45.52 521.48,-45.58 519.66,-45.65 517.41,-45.65 515.16,-45.65 512.57,-45.66 509.97,-45.67 507.25,-45.70 504.54,-45.74 501.50,-45.84 498.46,-45.94 496.28,-46.19 494.11,-46.44 492.16,-46.45 490.20,-46.46 488.32,-46.49 486.43,-46.52 484.69,-46.59 482.95,-46.67 480.21,-46.65 477.47,-46.64 473.74,-46.62 470.00,-46.59 465.27,-46.53 460.53,-46.47 454.80,-46.32 449.07,-46.18 442.29,-45.83 435.51,-45.49 428.41,-45.36 421.31,-45.22 413.40,-44.92 405.49,-44.61 396.97,-43.88 388.45,-43.15 379.19,-42.12 369.94,-41.08 361.00,-39.99 352.07,-38.90 342.51,-37.68 332.95,-36.46 323.35,-35.63 313.76,-34.80 304.76,-34.20 295.75,-33.61 286.75,-32.88 277.74,-32.15 268.68,-31.11 259.62,-30.07 251.15,-28.98 242.67,-27.89 234.18,-26.66 225.68,-25.44 217.25,-24.59 208.82,-23.75 200.53,-23.12 192.25,-22.48 184.23,-21.67 176.22,-20.86 167.47,-19.63 158.72,-18.40 148.92,-16.85 139.12,-15.30 128.89,-13.68 118.65,-12.06 108.20,-10.97 97.74,-9.88 87.96,-8.66 78.18,-7.44 69.42,-6.61 60.65,-5.78 52.25,-5.20 43.85,-4.61 36.28,-3.93 28.71,-3.24 22.96,-2.30 17.22,-1.36 12.46,-0.51 7.70,0.32 3.96,0.93 0.23,1.54 0.04,1.54 -0.13,1.55 -0.32,1.51 -0.50,1.47 -0.67,1.39 -0.84,1.31 -0.99,1.19 -1.13,1.07 -1.24,0.92 -1.35,0.76 -1.43,0.59 -1.50,0.42 -1.53,0.23 -1.56,0.04 -1.54,-0.13 -1.52,-0.32 -1.46,-0.50 -1.40,-0.68 -1.30,-0.83 -1.20,-0.99 -1.06,-1.12 -0.92,-1.25 -0.76,-1.34 -0.60,-1.44 -0.41,-1.49 -0.23,-1.54 -0.23,-1.54 L -0.23,-1.54 Z"></path></g><g transform="translate(431 532) rotate(0 0 50.5)" stroke="none"><path fill="#1864ab" d="M 1.56,0 Q 1.56,0 1.52,2.30 1.49,4.60 1.17,7.65 0.86,10.71 0.72,14.24 0.58,17.76 0.52,21.85 0.45,25.94 0.42,30.27 0.39,34.60 0.37,39.60 0.36,44.60 0.35,49.03 0.34,53.45 0.34,57.63 0.33,61.81 0.33,65.60 0.32,69.39 0.32,72.44 0.32,75.49 0.32,78.22 0.32,80.95 0.60,83.18 0.88,85.42 1.10,86.99 1.33,88.56 2.01,90.41 2.70,92.27 2.85,93.33 3.00,94.40 3.18,97.69 3.35,100.98 3.29,101.36 3.23,101.73 3.06,102.07 2.88,102.41 2.61,102.67 2.33,102.94 1.99,103.10 1.64,103.26 1.26,103.31 0.88,103.35 0.51,103.27 0.14,103.19 -0.18,103.00 -0.51,102.80 -0.76,102.51 -1.01,102.22 -1.15,101.87 -1.29,101.52 -1.32,101.14 -1.34,100.76 -1.24,100.39 -1.14,100.02 -0.93,99.70 -0.72,99.38 -0.42,99.15 -0.11,98.92 0.24,98.79 0.60,98.67 0.98,98.67 1.36,98.67 1.72,98.79 2.09,98.90 2.39,99.13 2.70,99.36 2.91,99.68 3.13,99.99 3.23,100.36 3.34,100.73 3.32,101.11 3.30,101.49 3.16,101.84 3.02,102.20 2.78,102.49 2.53,102.78 2.21,102.98 1.88,103.18 1.51,103.26 1.14,103.35 0.76,103.31 0.38,103.27 0.03,103.11 -0.31,102.95 -0.58,102.69 -0.86,102.43 -1.04,102.10 -1.22,101.76 -1.29,101.39 -1.35,101.01 -1.35,101.01 -1.35,101.01 -1.27,97.84 -1.19,94.66 -1.16,92.92 -1.14,91.17 -1.42,90.00 -1.69,88.83 -1.71,87.28 -1.73,85.74 -2.02,83.35 -2.32,80.96 -2.32,78.22 -2.32,75.49 -2.32,72.44 -2.32,69.39 -2.32,65.60 -2.33,61.81 -2.33,57.63 -2.33,53.45 -2.33,49.02 -2.33,44.60 -2.33,39.59 -2.33,34.58 -2.31,30.25 -2.30,25.91 -2.26,21.79 -2.22,17.67 -2.12,14.05 -2.01,10.44 -1.75,7.52 -1.49,4.59 -1.52,2.29 -1.56,0 -1.53,-0.18 -1.51,-0.37 -1.45,-0.54 -1.38,-0.72 -1.27,-0.88 -1.16,-1.03 -1.02,-1.16 -0.88,-1.28 -0.72,-1.37 -0.55,-1.46 -0.37,-1.50 -0.18,-1.55 0.00,-1.55 0.18,-1.55 0.37,-1.50 0.55,-1.46 0.72,-1.37 0.88,-1.28 1.02,-1.16 1.16,-1.03 1.27,-0.88 1.38,-0.72 1.45,-0.54 1.51,-0.37 1.53,-0.18 1.56,0.00 1.56,0.00 L 1.56,0 Z"></path></g><g transform="translate(422 618) rotate(0 15.5 16)" stroke="none"><path fill="#1864ab" d="M 1.70,0.28 Q 1.70,0.28 1.44,2.00 1.18,3.72 1.40,5.07 1.61,6.42 2.21,7.70 2.81,8.97 3.81,10.68 4.80,12.39 6.08,14.30 7.35,16.22 8.98,18.14 10.61,20.07 12.41,21.73 14.21,23.38 15.82,24.66 17.43,25.94 18.99,27.02 20.55,28.11 22.00,28.76 23.45,29.41 24.55,29.59 25.65,29.76 26.85,28.04 28.05,26.32 28.59,24.88 29.14,23.44 29.31,22.15 29.48,20.86 29.55,19.46 29.63,18.06 29.59,15.51 29.55,12.96 29.62,12.57 29.69,12.18 29.88,11.84 30.07,11.49 30.36,11.22 30.65,10.96 31.01,10.79 31.37,10.63 31.77,10.60 32.16,10.56 32.55,10.65 32.93,10.74 33.27,10.95 33.60,11.16 33.85,11.46 34.10,11.77 34.25,12.13 34.39,12.50 34.40,12.90 34.42,13.29 34.31,13.67 34.20,14.05 33.97,14.37 33.74,14.70 33.43,14.93 33.11,15.17 32.73,15.29 32.36,15.41 31.96,15.40 31.57,15.40 31.19,15.27 30.82,15.14 30.51,14.89 30.20,14.65 29.98,14.32 29.76,13.99 29.66,13.61 29.56,13.22 29.59,12.83 29.62,12.44 29.77,12.07 29.92,11.71 30.18,11.41 30.44,11.11 30.78,10.91 31.12,10.71 31.51,10.63 31.90,10.56 32.29,10.60 32.68,10.65 33.04,10.82 33.39,10.99 33.68,11.27 33.96,11.54 34.14,11.90 34.32,12.25 34.38,12.64 34.44,13.03 34.44,13.03 34.44,13.03 34.25,15.70 34.06,18.37 33.92,19.96 33.79,21.56 33.47,23.27 33.15,24.97 32.54,26.53 31.93,28.08 31.01,29.90 30.09,31.72 28.58,32.65 27.07,33.59 25.90,33.43 24.72,33.27 23.37,32.79 22.02,32.31 20.41,31.43 18.80,30.55 17.23,29.39 15.65,28.22 13.93,26.90 12.22,25.59 10.25,23.85 8.28,22.11 6.47,20.11 4.66,18.10 3.25,16.18 1.83,14.27 0.55,12.36 -0.72,10.46 -1.41,8.66 -2.10,6.85 -2.22,5.01 -2.33,3.17 -2.02,1.44 -1.70,-0.28 -1.65,-0.48 -1.59,-0.68 -1.48,-0.86 -1.38,-1.04 -1.23,-1.19 -1.09,-1.34 -0.91,-1.45 -0.73,-1.56 -0.53,-1.63 -0.33,-1.69 -0.13,-1.71 0.07,-1.73 0.28,-1.69 0.48,-1.66 0.68,-1.57 0.87,-1.49 1.03,-1.37 1.20,-1.24 1.33,-1.08 1.46,-0.92 1.55,-0.73 1.64,-0.54 1.68,-0.33 1.72,-0.13 1.71,0.07 1.70,0.28 1.70,0.28 L 1.70,0.28 Z"></path></g><g transform="translate(475 545) rotate(0 129 35)" stroke="none"><path fill="#1864ab" d="M 0.49,-1.48 Q 0.49,-1.48 4.79,-0.01 9.09,1.45 15.48,3.23 21.87,5.00 30.34,7.20 38.80,9.40 49.85,11.77 60.90,14.14 73.66,16.88 86.42,19.62 99.89,22.52 113.36,25.41 126.28,28.37 139.20,31.33 150.45,34.02 161.69,36.72 170.49,38.73 179.28,40.73 186.48,42.45 193.67,44.17 199.31,45.48 204.95,46.78 209.06,47.62 213.16,48.46 216.08,49.11 218.99,49.76 220.52,49.93 222.05,50.11 224.04,50.82 226.03,51.54 227.36,51.96 228.69,52.38 230.12,52.84 231.55,53.29 233.28,54.00 235.00,54.72 236.23,55.40 237.45,56.08 238.57,56.46 239.69,56.85 241.15,57.39 242.60,57.92 244.91,58.47 247.23,59.02 248.36,59.48 249.50,59.94 250.56,60.42 251.63,60.89 252.55,61.45 253.47,62.02 254.78,63.07 256.08,64.12 257.10,64.65 258.13,65.18 259.24,66.65 260.36,68.12 260.60,68.54 260.84,68.97 260.93,69.45 261.02,69.93 260.95,70.42 260.88,70.90 260.66,71.34 260.44,71.78 260.09,72.12 259.74,72.46 259.30,72.68 258.86,72.89 258.38,72.96 257.89,73.02 257.41,72.92 256.93,72.83 256.51,72.58 256.08,72.34 255.76,71.97 255.44,71.61 255.25,71.16 255.05,70.71 255.02,70.22 254.98,69.73 255.10,69.26 255.22,68.78 255.49,68.37 255.76,67.96 256.14,67.66 256.52,67.35 256.98,67.19 257.44,67.02 257.93,67.01 258.42,67.00 258.89,67.15 259.36,67.29 259.75,67.58 260.15,67.87 260.43,68.27 260.71,68.67 260.85,69.14 260.99,69.61 260.98,70.10 260.96,70.58 260.79,71.04 260.62,71.50 260.31,71.88 260.00,72.26 259.59,72.52 259.17,72.78 258.70,72.90 258.22,73.01 257.73,72.97 257.25,72.93 256.80,72.73 256.35,72.53 255.99,72.20 255.62,71.87 255.62,71.87 255.63,71.87 254.86,70.62 254.10,69.37 252.71,68.39 251.32,67.41 250.34,66.54 249.36,65.68 248.39,65.20 247.42,64.72 245.59,63.91 243.75,63.11 242.37,62.81 240.99,62.51 239.46,62.00 237.93,61.48 235.70,60.26 233.46,59.04 231.83,58.14 230.20,57.24 228.76,56.71 227.32,56.18 225.96,55.64 224.60,55.09 223.02,54.08 221.44,53.07 219.93,52.70 218.42,52.33 215.53,51.68 212.64,51.04 208.50,50.20 204.36,49.35 198.71,48.05 193.06,46.75 185.87,45.03 178.69,43.32 169.88,41.32 161.07,39.31 149.84,36.62 138.61,33.94 125.70,30.99 112.80,28.05 99.32,25.17 85.85,22.29 73.09,19.57 60.33,16.85 49.21,14.49 38.10,12.13 29.60,9.96 21.10,7.79 14.63,6.04 8.15,4.29 3.82,2.88 -0.49,1.48 -0.66,1.40 -0.83,1.32 -0.98,1.20 -1.12,1.08 -1.23,0.93 -1.35,0.78 -1.42,0.60 -1.50,0.43 -1.53,0.24 -1.56,0.06 -1.54,-0.12 -1.53,-0.31 -1.47,-0.49 -1.41,-0.66 -1.31,-0.82 -1.21,-0.98 -1.07,-1.11 -0.93,-1.24 -0.77,-1.34 -0.61,-1.43 -0.43,-1.48 -0.25,-1.54 -0.06,-1.54 0.12,-1.55 0.30,-1.51 0.49,-1.48 0.49,-1.48 L 0.49,-1.48 Z"></path></g><g transform="translate(743 600) rotate(0 -8 15.5)" stroke="none"><path fill="#1864ab" d="M 2.08,-0.34 Q 2.08,-0.34 2.35,1.38 2.62,3.10 2.97,4.94 3.32,6.79 4.22,9.18 5.13,11.58 5.82,14.20 6.52,16.82 7.33,18.98 8.15,21.14 8.86,22.61 9.57,24.08 9.99,25.46 10.41,26.84 10.32,28.05 10.24,29.25 9.79,30.25 9.34,31.25 6.76,32.22 4.17,33.19 2.36,33.20 0.55,33.21 -2.23,32.18 -5.03,31.16 -8.02,30.15 -11.02,29.14 -13.42,28.39 -15.83,27.64 -17.75,27.04 -19.67,26.44 -20.92,25.95 -22.18,25.45 -23.74,25.21 -25.31,24.96 -25.61,24.86 -25.92,24.76 -26.17,24.56 -26.43,24.37 -26.61,24.10 -26.80,23.84 -26.88,23.53 -26.97,23.22 -26.96,22.90 -26.94,22.58 -26.82,22.28 -26.70,21.98 -26.50,21.73 -26.29,21.49 -26.02,21.32 -25.74,21.15 -25.43,21.08 -25.11,21.01 -24.79,21.04 -24.47,21.08 -24.18,21.21 -23.89,21.34 -23.65,21.56 -23.42,21.78 -23.27,22.07 -23.11,22.35 -23.06,22.67 -23.01,22.98 -23.06,23.30 -23.11,23.62 -23.26,23.91 -23.41,24.19 -23.64,24.41 -23.87,24.64 -24.16,24.77 -24.45,24.91 -24.77,24.94 -25.09,24.98 -25.41,24.91 -25.72,24.85 -26.00,24.68 -26.27,24.52 -26.48,24.27 -26.69,24.03 -26.81,23.73 -26.93,23.43 -26.95,23.11 -26.97,22.79 -26.89,22.48 -26.80,22.17 -26.62,21.90 -26.45,21.63 -26.19,21.44 -25.94,21.24 -25.63,21.14 -25.33,21.03 -25.00,21.03 -24.68,21.03 -24.68,21.03 -24.68,21.03 -22.63,21.57 -20.57,22.11 -19.63,22.69 -18.70,23.26 -16.81,23.81 -14.92,24.37 -12.43,24.99 -9.94,25.61 -6.82,26.46 -3.71,27.32 -1.59,27.98 0.52,28.64 2.15,28.55 3.77,28.47 5.26,28.00 6.75,27.54 6.61,26.48 6.46,25.42 5.85,23.86 5.23,22.30 4.27,20.02 3.32,17.75 2.56,15.35 1.80,12.94 0.63,10.29 -0.53,7.64 -1.00,5.71 -1.47,3.79 -1.77,2.06 -2.08,0.34 -2.09,0.09 -2.10,-0.16 -2.05,-0.41 -2.00,-0.65 -1.89,-0.89 -1.78,-1.12 -1.62,-1.31 -1.46,-1.51 -1.26,-1.66 -1.06,-1.82 -0.82,-1.92 -0.59,-2.02 -0.34,-2.06 -0.09,-2.10 0.16,-2.08 0.41,-2.06 0.65,-1.98 0.89,-1.90 1.11,-1.77 1.32,-1.63 1.50,-1.45 1.68,-1.27 1.80,-1.05 1.93,-0.83 2.00,-0.59 2.08,-0.34 2.08,-0.34 L 2.08,-0.34 Z"></path></g><g transform="translate(420 786) rotate(0 -2.5 28.5)" stroke="none"><path fill="#1864ab" d="M 1.86,0 Q 1.86,0 1.79,2.3 1.71,4.6 1.66,6.73 1.60,8.87 0.96,11.12 0.32,13.37 -0.22,15.38 -0.77,17.38 -1.29,19.38 -1.82,21.39 -2.33,23.39 -2.84,25.39 -3.03,27.29 -3.22,29.19 -3.21,30.59 -3.20,31.99 -3.14,33.15 -3.08,34.31 -3.01,35.37 -2.94,36.43 -2.81,38.18 -2.68,39.93 -2.57,41.35 -2.46,42.77 -1.96,44.18 -1.46,45.59 -0.90,47.02 -0.34,48.45 0.18,49.42 0.72,50.40 0.91,51.75 1.10,53.09 1.14,55.04 1.18,56.98 1.10,57.49 1.02,58.00 0.78,58.46 0.54,58.91 0.16,59.27 -0.20,59.62 -0.66,59.84 -1.13,60.06 -1.64,60.12 -2.15,60.17 -2.66,60.07 -3.16,59.96 -3.60,59.69 -4.05,59.43 -4.38,59.04 -4.72,58.65 -4.91,58.17 -5.10,57.69 -5.13,57.18 -5.16,56.66 -5.03,56.17 -4.89,55.67 -4.60,55.24 -4.32,54.81 -3.91,54.50 -3.50,54.19 -3.01,54.02 -2.52,53.86 -2.01,53.85 -1.49,53.85 -1.00,54.01 -0.51,54.18 -0.10,54.49 0.30,54.80 0.59,55.22 0.88,55.65 1.02,56.14 1.16,56.64 1.13,57.15 1.11,57.67 0.92,58.15 0.73,58.63 0.40,59.02 0.07,59.41 -0.36,59.68 -0.81,59.95 -1.31,60.06 -1.81,60.17 -2.32,60.12 -2.84,60.07 -3.30,59.85 -3.77,59.64 -4.15,59.28 -4.52,58.93 -4.77,58.48 -5.01,58.02 -5.09,57.51 -5.18,57.01 -5.18,57.01 -5.18,57.01 -5.10,54.46 -5.01,51.92 -5.48,50.83 -5.95,49.74 -6.39,48.06 -6.84,46.39 -7.18,44.58 -7.53,42.77 -7.42,41.34 -7.30,39.91 -7.15,38.14 -7.00,36.37 -6.90,35.28 -6.80,34.19 -6.66,32.98 -6.52,31.78 -6.33,30.33 -6.14,28.88 -5.90,26.78 -5.66,24.68 -5.15,22.67 -4.65,20.66 -4.15,18.64 -3.65,16.63 -3.13,14.59 -2.62,12.55 -2.11,10.69 -1.60,8.83 -1.66,6.71 -1.71,4.6 -1.79,2.3 -1.86,0 -1.84,-0.22 -1.81,-0.44 -1.73,-0.65 -1.65,-0.86 -1.52,-1.05 -1.39,-1.23 -1.22,-1.38 -1.06,-1.53 -0.86,-1.64 -0.66,-1.74 -0.44,-1.79 -0.22,-1.85 0.00,-1.85 0.22,-1.85 0.44,-1.79 0.66,-1.74 0.86,-1.64 1.06,-1.53 1.22,-1.38 1.39,-1.23 1.52,-1.05 1.65,-0.86 1.73,-0.65 1.81,-0.44 1.84,-0.22 1.86,0.00 1.86,0.00 L 1.86,0 Z"></path></g><g transform="translate(751 778) rotate(0 -168 36.5)" stroke="none"><path fill="#1864ab" d="M 1.68,0.18 Q 1.68,0.18 1.34,2.76 1.00,5.35 0.85,8.68 0.69,12.02 0.61,16.04 0.53,20.05 1.06,24.84 1.59,29.63 1.81,33.75 2.04,37.88 2.13,41.07 2.22,44.26 2.25,46.77 2.29,49.28 2.34,51.21 2.40,53.14 2.48,54.82 2.56,56.50 2.66,57.79 2.77,59.08 2.56,61.01 2.35,62.93 1.47,64.11 0.60,65.28 -1.89,66.11 -4.40,66.95 -7.00,67.71 -9.61,68.47 -13.13,69.08 -16.66,69.69 -21.66,69.93 -26.67,70.17 -32.23,70.25 -37.79,70.33 -43.85,70.64 -49.91,70.95 -55.91,71.64 -61.90,72.34 -67.39,72.63 -72.87,72.93 -77.75,73.34 -82.64,73.74 -87.92,73.91 -93.20,74.08 -98.89,74.16 -104.58,74.23 -109.88,74.25 -115.17,74.28 -120.29,74.29 -125.42,74.30 -130.18,74.31 -134.95,74.31 -139.56,74.31 -144.18,74.31 -149.30,74.31 -154.42,74.31 -159.51,74.02 -164.60,73.73 -169.03,73.61 -173.46,73.49 -177.92,73.44 -182.39,73.39 -186.88,73.36 -191.36,73.34 -195.61,73.04 -199.87,72.75 -203.93,72.62 -207.99,72.50 -211.44,72.44 -214.90,72.39 -218.66,72.37 -222.43,72.34 -226.04,72.33 -229.65,72.32 -232.91,72.32 -236.18,72.31 -239.57,72.31 -242.97,72.31 -246.14,72.31 -249.31,72.31 -252.38,72.31 -255.45,72.31 -258.20,72.31 -260.94,72.31 -263.26,72.31 -265.57,72.31 -267.99,72.31 -270.42,72.31 -273.17,72.31 -275.92,72.31 -279.11,72.31 -282.29,72.31 -285.43,72.02 -288.57,71.73 -291.28,71.61 -293.99,71.49 -296.58,71.44 -299.17,71.38 -301.50,71.07 -303.84,70.75 -306.18,70.63 -308.52,70.50 -310.67,70.45 -312.82,70.39 -314.60,70.44 -316.38,70.48 -318.00,70.55 -319.63,70.62 -320.85,70.40 -322.07,70.17 -323.18,70.16 -324.30,70.15 -325.37,70.17 -326.44,70.20 -329.01,69.95 -331.57,69.70 -334.31,69.61 -337.04,69.52 -337.44,69.44 -337.84,69.37 -338.20,69.17 -338.56,68.97 -338.83,68.67 -339.11,68.37 -339.27,68.00 -339.44,67.62 -339.47,67.22 -339.51,66.81 -339.41,66.42 -339.32,66.02 -339.10,65.67 -338.89,65.33 -338.57,65.07 -338.25,64.81 -337.87,64.67 -337.49,64.52 -337.08,64.51 -336.68,64.49 -336.29,64.61 -335.89,64.73 -335.56,64.96 -335.23,65.20 -334.99,65.53 -334.75,65.86 -334.62,66.24 -334.50,66.63 -334.51,67.04 -334.52,67.45 -334.65,67.83 -334.79,68.22 -335.04,68.54 -335.30,68.86 -335.64,69.08 -335.98,69.30 -336.37,69.40 -336.77,69.51 -337.18,69.48 -337.58,69.45 -337.96,69.29 -338.33,69.13 -338.64,68.86 -338.95,68.59 -339.15,68.24 -339.35,67.88 -339.43,67.48 -339.51,67.08 -339.46,66.68 -339.41,66.28 -339.23,65.91 -339.05,65.54 -338.77,65.25 -338.48,64.96 -338.12,64.78 -337.75,64.59 -337.35,64.53 -336.95,64.48 -336.95,64.47 -336.95,64.47 -333.75,64.82 -330.55,65.17 -329.47,65.47 -328.39,65.77 -327.31,65.86 -326.24,65.95 -325.08,66.08 -323.92,66.21 -321.74,66.81 -319.57,67.40 -317.95,67.49 -316.34,67.58 -314.55,67.67 -312.76,67.76 -310.57,67.82 -308.38,67.88 -305.93,68.01 -303.48,68.15 -301.30,68.46 -299.12,68.76 -296.50,68.81 -293.88,68.86 -291.10,68.99 -288.32,69.11 -285.31,69.40 -282.29,69.68 -279.11,69.68 -275.92,69.68 -273.17,69.68 -270.42,69.68 -267.99,69.68 -265.57,69.68 -263.26,69.68 -260.94,69.68 -258.20,69.68 -255.45,69.68 -252.38,69.68 -249.31,69.68 -246.14,69.68 -242.97,69.68 -239.57,69.69 -236.17,69.69 -232.91,69.69 -229.65,69.70 -226.03,69.71 -222.41,69.71 -218.63,69.74 -214.86,69.76 -211.38,69.81 -207.91,69.87 -203.80,70.00 -199.68,70.12 -195.52,70.42 -191.35,70.71 -186.86,70.73 -182.36,70.76 -177.87,70.81 -173.38,70.86 -168.92,70.98 -164.45,71.10 -159.44,71.39 -154.42,71.67 -149.30,71.67 -144.18,71.67 -139.57,71.67 -134.95,71.66 -130.19,71.65 -125.43,71.65 -120.31,71.63 -115.19,71.61 -109.90,71.58 -104.62,71.54 -98.95,71.46 -93.29,71.38 -88.08,71.20 -82.87,71.02 -77.95,70.59 -73.03,70.16 -67.63,69.84 -62.24,69.53 -56.16,68.78 -50.08,68.04 -43.96,67.68 -37.85,67.31 -32.35,67.16 -26.85,67.01 -22.07,66.69 -17.29,66.38 -14.01,65.70 -10.74,65.01 -8.18,64.07 -5.62,63.13 -3.56,62.15 -1.50,61.16 -1.14,60.13 -0.78,59.09 -0.68,57.81 -0.58,56.52 -0.52,54.84 -0.45,53.16 -0.43,51.24 -0.41,49.32 -0.46,46.84 -0.51,44.35 -0.62,41.19 -0.73,38.04 -0.98,33.99 -1.22,29.95 -1.80,24.98 -2.38,20.02 -2.35,15.97 -2.33,11.91 -2.24,8.45 -2.15,4.99 -1.92,2.40 -1.68,-0.18 -1.63,-0.38 -1.59,-0.58 -1.49,-0.76 -1.40,-0.94 -1.27,-1.10 -1.13,-1.25 -0.97,-1.37 -0.80,-1.49 -0.61,-1.56 -0.42,-1.64 -0.21,-1.67 -0.01,-1.69 0.18,-1.67 0.38,-1.65 0.58,-1.58 0.77,-1.51 0.94,-1.39 1.11,-1.28 1.24,-1.12 1.38,-0.97 1.48,-0.79 1.58,-0.61 1.63,-0.41 1.68,-0.22 1.68,-0.01 1.68,0.18 1.68,0.18 L 1.68,0.18 Z"></path></g><g transform="translate(471 973) rotate(0 1 7.5)" stroke="none"><path fill="#1864ab" d="M 1.58,2.11 Q 1.58,2.11 0.43,2.95 -0.70,3.79 -1.29,4.94 -1.87,6.08 -2.40,7.71 -2.92,9.34 -2.91,10.83 -2.90,12.32 -1.51,12.02 -0.12,11.72 1.03,11.70 2.19,11.69 2.82,10.74 3.45,9.80 3.91,7.96 4.37,6.12 4.46,4.87 4.55,3.62 5.08,4.57 5.61,5.53 4.33,5.03 3.04,4.53 2.03,3.98 1.01,3.42 -0.43,3.45 -1.88,3.47 -3.45,3.45 -5.02,3.43 -5.43,3.38 -5.84,3.32 -6.22,3.18 -6.61,3.03 -6.95,2.79 -7.29,2.55 -7.56,2.24 -7.83,1.93 -8.02,1.56 -8.21,1.20 -8.31,0.80 -8.41,0.39 -8.40,-0.01 -8.40,-0.42 -8.30,-0.83 -8.20,-1.23 -8.00,-1.59 -7.81,-1.96 -7.53,-2.26 -7.26,-2.57 -6.92,-2.81 -6.58,-3.04 -6.19,-3.18 -5.80,-3.33 -5.39,-3.38 -4.98,-3.42 -2.49,-3.18 -0.00,-2.94 0.46,-2.87 0.93,-2.79 1.36,-2.57 1.78,-2.34 2.11,-2.00 2.43,-1.65 2.63,-1.22 2.83,-0.79 2.89,-0.31 2.94,0.15 2.84,0.62 2.73,1.08 2.49,1.49 2.24,1.90 1.88,2.21 1.52,2.52 1.07,2.70 0.63,2.87 0.15,2.90 -0.31,2.93 -0.77,2.80 -1.23,2.67 -1.63,2.40 -2.02,2.14 -2.31,1.76 -2.60,1.38 -2.75,0.92 -2.90,0.47 -2.90,0.00 -2.90,-0.47 -2.75,-0.92 -2.60,-1.37 -2.31,-1.75 -2.02,-2.13 -1.63,-2.40 -1.23,-2.67 -0.77,-2.80 -0.31,-2.92 0.15,-2.90 0.63,-2.87 1.07,-2.70 1.51,-2.52 1.88,-2.21 2.24,-1.90 2.49,-1.50 2.73,-1.09 2.84,-0.62 2.94,-0.16 2.89,0.31 2.84,0.78 2.64,1.22 2.43,1.65 2.11,1.99 1.78,2.34 1.36,2.56 0.94,2.79 0.47,2.86 0.00,2.94 0.00,2.94 0.00,2.94 -2.50,3.19 -5.02,3.43 -5.43,3.38 -5.84,3.32 -6.22,3.18 -6.61,3.03 -6.95,2.79 -7.29,2.55 -7.56,2.24 -7.83,1.93 -8.02,1.56 -8.21,1.20 -8.31,0.80 -8.41,0.39 -8.40,-0.01 -8.40,-0.42 -8.30,-0.82 -8.20,-1.23 -8.01,-1.59 -7.81,-1.96 -7.54,-2.26 -7.26,-2.57 -6.92,-2.81 -6.58,-3.04 -6.19,-3.18 -5.80,-3.33 -5.39,-3.38 -4.98,-3.42 -4.30,-3.42 -3.63,-3.41 -1.85,-3.42 -0.06,-3.42 1.32,-3.25 2.72,-3.08 3.77,-2.56 4.83,-2.05 6.44,-1.47 8.06,-0.88 9.00,-0.11 9.94,0.65 10.62,2.91 11.29,5.17 10.99,6.79 10.70,8.41 10.41,9.62 10.13,10.83 9.89,12.13 9.64,13.43 9.04,14.88 8.45,16.33 7.39,17.08 6.34,17.82 4.78,18.07 3.21,18.32 2.12,18.29 1.03,18.26 -0.49,18.22 -2.02,18.17 -3.48,17.95 -4.95,17.72 -6.31,16.97 -7.66,16.21 -8.36,14.82 -9.05,13.43 -9.01,12.25 -8.98,11.06 -8.78,9.71 -8.58,8.36 -7.99,7.17 -7.41,5.97 -7.03,4.68 -6.66,3.39 -6.04,2.40 -5.43,1.42 -4.66,0.53 -3.89,-0.34 -2.73,-1.23 -1.58,-2.11 -1.31,-2.27 -1.03,-2.43 -0.72,-2.52 -0.42,-2.61 -0.10,-2.62 0.21,-2.63 0.52,-2.57 0.84,-2.51 1.12,-2.37 1.41,-2.23 1.66,-2.03 1.91,-1.83 2.10,-1.57 2.29,-1.32 2.41,-1.02 2.54,-0.73 2.59,-0.41 2.64,-0.10 2.62,0.21 2.59,0.53 2.49,0.83 2.39,1.13 2.22,1.40 2.04,1.67 1.81,1.89 1.58,2.11 1.58,2.11 L 1.58,2.11 Z"></path></g><g transform="translate(421 1026) rotate(0 342 -296)" stroke="none"><path fill="#1864ab" d="M 2.36,0 Q 2.36,0 2.32,1.72 2.28,3.44 2.32,4.75 2.35,6.06 2.36,7.48 2.37,8.89 2.60,10.46 2.82,12.03 3.19,13.55 3.56,15.07 3.77,16.76 3.97,18.46 4.10,19.74 4.22,21.02 4.75,23.08 5.28,25.13 5.36,26.54 5.44,27.95 5.44,29.18 5.43,30.41 6.97,29.83 8.51,29.26 11.80,29.45 15.09,29.64 19.67,29.78 24.24,29.92 29.63,30.03 35.02,30.13 41.30,29.92 47.58,29.71 54.31,29.64 61.05,29.57 68.51,29.56 75.97,29.55 83.74,29.55 91.51,29.56 99.99,29.57 108.46,29.58 117.80,29.31 127.13,29.03 136.29,28.92 145.45,28.81 154.52,28.76 163.59,28.72 172.33,28.70 181.07,28.68 190.25,28.68 199.43,28.67 209.08,28.67 218.73,28.67 229.43,28.38 240.12,28.10 252.42,27.40 264.71,26.71 278.01,26.12 291.30,25.54 304.70,24.72 318.09,23.90 330.99,23.26 343.88,22.62 355.41,22.35 366.94,22.08 378.46,21.97 389.97,21.85 400.60,21.51 411.22,21.18 420.91,20.75 430.60,20.32 440.74,19.56 450.88,18.81 461.25,18.19 471.61,17.58 482.07,17.32 492.53,17.06 503.00,16.67 513.46,16.27 523.37,15.81 533.28,15.36 542.09,14.88 550.89,14.40 558.95,13.90 567.00,13.41 575.60,12.91 584.21,12.42 592.75,11.92 601.29,11.42 608.63,10.64 615.96,9.85 622.55,9.23 629.14,8.61 634.49,7.77 639.83,6.94 644.47,6.58 649.11,6.21 653.34,5.78 657.58,5.34 661.43,5.15 665.29,4.96 669.18,4.59 673.07,4.23 675.85,3.79 678.62,3.35 679.61,2.81 680.61,2.27 681.11,0.75 681.62,-0.76 681.68,-1.97 681.73,-3.19 681.86,-5.13 681.99,-7.07 682.09,-10.20 682.20,-13.34 682.27,-17.26 682.34,-21.19 681.82,-26.22 681.30,-31.25 680.80,-37.48 680.30,-43.70 679.81,-49.79 679.32,-55.88 679.12,-61.95 678.91,-68.02 678.55,-74.02 678.18,-80.02 677.74,-85.72 677.30,-91.43 676.55,-97.57 675.79,-103.71 674.61,-110.03 673.44,-116.35 672.07,-122.77 670.71,-129.20 668.99,-135.64 667.27,-142.08 665.95,-148.61 664.64,-155.14 663.78,-163.13 662.93,-171.13 661.71,-178.78 660.50,-186.43 659.40,-193.43 658.31,-200.44 657.27,-206.57 656.23,-212.70 655.50,-218.21 654.77,-223.71 653.89,-229.48 653.00,-235.25 652.05,-241.44 651.10,-247.64 650.12,-254.59 649.14,-261.54 648.15,-267.94 647.16,-274.33 646.17,-280.20 645.17,-286.08 644.17,-291.74 643.18,-297.40 642.18,-303.26 641.18,-309.12 640.46,-314.21 639.75,-319.31 638.87,-324.32 638.00,-329.33 637.33,-334.08 636.67,-338.83 635.82,-343.39 634.97,-347.96 634.31,-352.23 633.66,-356.51 633.09,-360.33 632.53,-364.16 632.00,-368.09 631.47,-372.02 630.68,-375.95 629.89,-379.87 629.54,-383.93 629.19,-387.99 628.76,-391.68 628.33,-395.36 628.14,-398.70 627.96,-402.04 627.59,-405.72 627.23,-409.39 627.07,-413.30 626.91,-417.22 626.28,-421.08 625.65,-424.95 625.37,-429.28 625.09,-433.61 624.69,-437.70 624.28,-441.79 624.11,-445.87 623.94,-449.96 623.86,-453.99 623.79,-458.03 623.47,-462.29 623.16,-466.55 623.02,-471.28 622.88,-476.01 622.54,-480.85 622.19,-485.70 622.05,-490.38 621.90,-495.07 621.84,-499.65 621.77,-504.23 621.75,-509.05 621.72,-513.87 621.71,-519.08 621.70,-524.29 621.69,-529.38 621.69,-534.47 621.69,-539.22 621.68,-543.97 621.68,-548.29 621.68,-552.61 621.97,-560.79 622.26,-568.98 622.38,-573.59 622.50,-578.20 622.55,-581.60 622.61,-584.99 622.63,-587.87 622.65,-590.74 622.66,-593.12 622.67,-595.49 622.67,-597.65 622.68,-599.81 622.66,-601.87 622.65,-603.94 622.63,-605.97 622.62,-608.00 622.54,-609.72 622.47,-611.45 622.40,-613.04 622.32,-614.64 622.26,-616.18 622.19,-617.72 622.11,-618.95 622.03,-620.18 621.95,-622.09 621.86,-624.00 621.92,-624.34 621.98,-624.68 622.14,-624.98 622.30,-625.28 622.55,-625.52 622.80,-625.76 623.11,-625.90 623.43,-626.05 623.77,-626.08 624.11,-626.12 624.45,-626.05 624.78,-625.97 625.08,-625.80 625.37,-625.62 625.60,-625.36 625.82,-625.09 625.95,-624.77 626.08,-624.45 626.09,-624.11 626.11,-623.76 626.02,-623.43 625.93,-623.10 625.73,-622.82 625.54,-622.53 625.27,-622.32 624.99,-622.11 624.67,-622.00 624.34,-621.89 623.99,-621.89 623.65,-621.89 623.32,-622.00 623.00,-622.11 622.72,-622.32 622.45,-622.53 622.26,-622.82 622.06,-623.10 621.97,-623.43 621.88,-623.77 621.90,-624.11 621.91,-624.45 622.04,-624.77 622.17,-625.09 622.39,-625.36 622.62,-625.62 622.91,-625.80 623.21,-625.97 623.54,-626.05 623.88,-626.12 624.22,-626.08 624.57,-626.05 624.88,-625.90 625.19,-625.76 625.44,-625.52 625.69,-625.28 625.85,-624.98 626.01,-624.67 626.07,-624.33 626.13,-623.99 626.13,-623.99 626.13,-623.99 626.04,-622.09 625.96,-620.18 625.88,-618.95 625.80,-617.72 625.73,-616.18 625.67,-614.64 625.59,-613.04 625.52,-611.45 625.44,-609.72 625.37,-608.00 625.35,-605.97 625.33,-603.94 625.32,-601.87 625.30,-599.80 625.30,-597.64 625.29,-595.48 625.29,-593.10 625.28,-590.72 625.25,-587.84 625.23,-584.95 625.18,-581.54 625.13,-578.13 625.01,-573.51 624.88,-568.89 624.60,-560.75 624.31,-552.61 624.31,-548.29 624.31,-543.97 624.31,-539.22 624.32,-534.47 624.32,-529.39 624.32,-524.30 624.34,-519.09 624.35,-513.88 624.37,-509.07 624.40,-504.26 624.46,-499.71 624.52,-495.15 624.67,-490.52 624.82,-485.88 625.16,-480.98 625.51,-476.08 625.64,-471.41 625.78,-466.74 626.10,-462.41 626.42,-458.08 626.49,-454.07 626.56,-450.07 626.73,-446.06 626.90,-442.04 627.30,-437.91 627.71,-433.77 627.97,-429.57 628.24,-425.37 628.89,-421.35 629.54,-417.32 629.69,-413.49 629.84,-409.65 630.21,-405.92 630.58,-402.19 630.76,-398.93 630.94,-395.67 631.37,-391.94 631.81,-388.21 632.13,-384.30 632.46,-380.39 633.27,-376.38 634.08,-372.37 634.60,-368.45 635.13,-364.54 635.69,-360.72 636.26,-356.91 636.90,-352.67 637.55,-348.44 638.41,-343.82 639.27,-339.19 639.93,-334.49 640.59,-329.78 641.47,-324.73 642.35,-319.67 643.06,-314.62 643.77,-309.56 644.77,-303.71 645.76,-297.85 646.76,-292.18 647.76,-286.52 648.76,-280.63 649.76,-274.73 650.75,-268.32 651.74,-261.91 652.72,-254.97 653.70,-248.04 654.65,-241.84 655.60,-235.65 656.49,-229.86 657.38,-224.06 658.10,-218.60 658.83,-213.14 659.87,-206.99 660.91,-200.85 662.01,-193.84 663.10,-186.84 664.33,-179.13 665.56,-171.41 666.39,-163.54 667.23,-155.66 668.53,-149.22 669.84,-142.77 671.58,-136.26 673.32,-129.75 674.69,-123.30 676.07,-116.84 677.27,-110.44 678.46,-104.04 679.24,-97.85 680.02,-91.65 680.47,-85.92 680.93,-80.19 681.33,-74.16 681.72,-68.12 681.95,-62.12 682.19,-56.12 682.72,-50.04 683.26,-43.95 683.82,-37.78 684.38,-31.60 685.00,-26.39 685.61,-21.18 685.66,-17.25 685.71,-13.31 685.77,-10.13 685.82,-6.95 685.83,-4.85 685.83,-2.76 685.60,-1.23 685.37,0.28 684.75,1.80 684.12,3.31 682.98,4.22 681.84,5.12 680.44,5.53 679.04,5.95 676.18,6.40 673.32,6.84 669.37,7.21 665.41,7.58 661.63,7.77 657.85,7.95 653.58,8.39 649.31,8.83 644.78,9.18 640.24,9.53 634.81,10.38 629.39,11.22 622.82,11.84 616.24,12.46 608.84,13.25 601.44,14.04 592.90,14.54 584.36,15.04 575.76,15.54 567.16,16.03 559.10,16.53 551.04,17.02 542.22,17.50 533.40,17.98 523.48,18.44 513.56,18.90 503.08,19.29 492.60,19.69 482.18,19.95 471.76,20.21 461.42,20.82 451.08,21.43 440.90,22.19 430.72,22.94 421.01,23.38 411.31,23.81 400.65,24.14 390.00,24.48 378.50,24.60 367.01,24.71 355.51,24.98 344.01,25.25 331.13,25.89 318.25,26.53 304.84,27.35 291.42,28.18 278.14,28.76 264.86,29.35 252.53,30.05 240.19,30.75 229.46,31.04 218.73,31.33 209.08,31.34 199.43,31.34 190.25,31.36 181.08,31.37 172.34,31.40 163.60,31.43 154.55,31.49 145.49,31.55 136.35,31.68 127.21,31.82 117.84,32.13 108.47,32.43 99.99,32.46 91.52,32.49 83.75,32.55 75.99,32.60 68.55,32.69 61.10,32.78 54.42,32.95 47.73,33.13 41.38,33.49 35.02,33.85 29.62,33.94 24.23,34.04 19.65,34.16 15.07,34.28 11.71,34.43 8.35,34.59 6.43,34.61 4.50,34.63 3.20,34.18 1.91,33.73 1.22,32.70 0.53,31.67 0.45,29.92 0.38,28.18 0.29,26.11 0.19,24.04 -0.12,22.68 -0.43,21.33 -0.46,20.14 -0.49,18.96 -0.63,17.57 -0.77,16.17 -1.22,14.47 -1.67,12.77 -2.02,10.84 -2.37,8.90 -2.36,7.48 -2.35,6.06 -2.32,4.75 -2.28,3.44 -2.32,1.72 -2.36,0 -2.33,-0.28 -2.29,-0.56 -2.19,-0.83 -2.09,-1.09 -1.93,-1.33 -1.77,-1.56 -1.55,-1.75 -1.34,-1.94 -1.09,-2.08 -0.83,-2.21 -0.56,-2.28 -0.28,-2.34 0.00,-2.34 0.28,-2.34 0.56,-2.28 0.83,-2.21 1.09,-2.08 1.34,-1.94 1.55,-1.75 1.77,-1.56 1.93,-1.33 2.09,-1.09 2.19,-0.83 2.29,-0.56 2.33,-0.28 2.36,0.00 2.36,0.00 L 2.36,0 Z"></path></g><g transform="translate(1045 402) rotate(0 -321 -196)" stroke="none"><path fill="#1864ab" d="M -1.55,0.15 Q -1.55,0.15 -1.80,-2.72 -2.06,-5.60 -2.44,-9.11 -2.82,-12.62 -3.27,-17.00 -3.71,-21.38 -4.47,-27.25 -5.23,-33.12 -6.12,-39.64 -7.01,-46.16 -7.68,-53.28 -8.35,-60.39 -8.92,-67.44 -9.48,-74.48 -10.01,-80.05 -10.54,-85.62 -11.05,-91.16 -11.56,-96.69 -11.78,-102.24 -11.99,-107.79 -12.37,-113.28 -12.75,-118.76 -13.48,-124.23 -14.21,-129.69 -14.82,-135.49 -15.42,-141.30 -16.24,-146.60 -17.07,-151.91 -17.43,-157.39 -17.79,-162.88 -18.22,-168.34 -18.66,-173.80 -18.85,-180.48 -19.03,-187.15 -19.11,-194.29 -19.19,-201.44 -18.94,-208.24 -18.68,-215.04 -18.29,-221.67 -17.89,-228.30 -17.72,-234.25 -17.56,-240.20 -17.20,-245.36 -16.84,-250.51 -16.40,-255.86 -15.95,-261.21 -15.48,-266.36 -15.00,-271.51 -14.51,-276.29 -14.02,-281.07 -13.53,-285.13 -13.03,-289.18 -12.82,-292.30 -12.62,-295.42 -12.24,-298.24 -11.85,-301.06 -11.70,-304.20 -11.54,-307.34 -11.19,-311.03 -10.83,-314.72 -10.68,-317.68 -10.53,-320.64 -10.17,-323.68 -9.82,-326.72 -9.67,-329.39 -9.53,-332.06 -9.46,-334.63 -9.40,-337.20 -9.38,-339.73 -9.35,-342.26 -9.34,-344.77 -9.33,-347.28 -9.32,-349.50 -9.32,-351.72 -9.38,-353.52 -9.44,-355.33 -9.43,-357.53 -9.41,-359.74 -9.40,-361.82 -9.40,-363.91 -9.41,-365.95 -9.42,-367.98 -9.48,-369.71 -9.55,-371.44 -9.65,-372.75 -9.75,-374.06 -9.84,-375.19 -9.93,-376.32 -10.08,-377.70 -10.23,-379.09 -11.31,-379.29 -12.38,-379.49 -16.28,-379.67 -20.18,-379.84 -25.07,-380.25 -29.96,-380.66 -35.71,-380.87 -41.47,-381.07 -47.37,-381.18 -53.27,-381.30 -58.65,-381.36 -64.04,-381.43 -70.06,-381.47 -76.09,-381.51 -82.39,-381.53 -88.68,-381.56 -95.13,-381.86 -101.58,-382.17 -107.45,-382.30 -113.32,-382.44 -118.98,-382.50 -124.63,-382.56 -129.91,-382.59 -135.19,-382.62 -140.02,-382.63 -144.85,-382.64 -149.54,-382.94 -154.22,-383.24 -159.36,-383.65 -164.51,-384.07 -169.54,-384.24 -174.56,-384.42 -180.47,-384.78 -186.37,-385.14 -192.59,-385.30 -198.80,-385.45 -205.50,-385.80 -212.19,-386.16 -218.78,-386.60 -225.36,-387.04 -232.16,-387.22 -238.95,-387.41 -245.86,-387.48 -252.78,-387.56 -260.08,-388.17 -267.38,-388.79 -275.03,-389.04 -282.68,-389.30 -290.27,-389.70 -297.86,-390.10 -304.51,-390.26 -311.17,-390.43 -317.16,-390.50 -323.14,-390.58 -329.14,-390.61 -335.13,-390.64 -341.13,-390.65 -347.13,-390.66 -353.42,-390.67 -359.70,-390.67 -366.40,-390.68 -373.10,-390.68 -379.10,-390.68 -385.11,-390.68 -390.54,-390.68 -395.97,-390.68 -401.44,-390.68 -406.91,-390.68 -412.97,-390.68 -419.03,-390.68 -425.06,-390.68 -431.09,-390.68 -437.67,-390.68 -444.26,-390.68 -450.80,-390.68 -457.33,-390.68 -463.85,-390.68 -470.36,-390.68 -476.87,-390.68 -483.38,-390.68 -489.88,-390.68 -496.38,-390.68 -502.60,-390.68 -508.81,-390.68 -514.61,-390.68 -520.42,-390.68 -526.62,-390.68 -532.82,-390.68 -538.62,-390.68 -544.42,-390.68 -550.05,-390.68 -555.68,-390.68 -560.66,-390.68 -565.63,-390.68 -570.34,-390.68 -575.04,-390.68 -579.34,-390.68 -583.64,-390.68 -587.19,-390.68 -590.74,-390.68 -594.27,-390.68 -597.79,-390.68 -600.72,-390.68 -603.66,-390.68 -606.34,-390.68 -609.03,-390.68 -611.03,-390.65 -613.03,-390.63 -614.17,-390.50 -615.31,-390.38 -616.46,-390.30 -617.61,-390.22 -618.72,-387.75 -619.84,-385.28 -620.45,-383.85 -621.06,-382.42 -621.64,-380.73 -622.21,-379.04 -623.14,-377.07 -624.07,-375.10 -624.74,-372.98 -625.40,-370.86 -626.32,-368.43 -627.23,-366.00 -627.90,-363.88 -628.57,-361.77 -628.85,-359.54 -629.13,-357.31 -629.26,-355.21 -629.40,-353.10 -629.46,-350.77 -629.53,-348.44 -629.56,-346.30 -629.59,-344.16 -629.54,-342.39 -629.48,-340.61 -629.46,-338.71 -629.44,-336.81 -629.38,-335.14 -629.32,-333.47 -629.26,-331.89 -629.20,-330.32 -629.15,-328.79 -629.09,-327.26 -628.94,-325.63 -628.78,-324.01 -628.66,-322.90 -628.55,-321.78 -629.19,-320.13 -629.83,-318.47 -630.58,-317.61 -631.34,-316.74 -633.00,-316.47 -634.66,-316.19 -636.29,-315.62 -637.91,-315.05 -639.05,-314.97 -640.19,-314.89 -640.69,-314.86 -641.19,-314.84 -641.57,-314.88 -641.95,-314.92 -642.31,-315.04 -642.67,-315.17 -642.99,-315.38 -643.30,-315.59 -643.56,-315.87 -643.82,-316.15 -644.01,-316.49 -644.19,-316.82 -644.29,-317.19 -644.39,-317.56 -644.39,-317.94 -644.40,-318.32 -644.32,-318.69 -644.23,-319.07 -644.06,-319.41 -643.89,-319.75 -643.64,-320.04 -643.40,-320.33 -643.09,-320.55 -642.78,-320.77 -642.42,-320.92 -642.07,-321.06 -641.69,-321.11 -641.31,-321.16 -639.89,-320.50 -638.47,-319.85 -637.01,-319.15 -635.56,-318.46 -633.83,-317.40 -632.11,-316.33 -630.27,-315.36 -628.43,-314.39 -627.05,-313.24 -625.66,-312.10 -624.16,-311.07 -622.66,-310.04 -621.62,-310.87 -620.57,-311.70 -619.18,-313.89 -617.80,-316.07 -617.19,-317.55 -616.58,-319.02 -615.65,-320.50 -614.73,-321.97 -614.66,-320.43 -614.60,-318.89 -616.41,-318.30 -618.22,-317.70 -619.93,-317.71 -621.65,-317.72 -623.62,-318.16 -625.60,-318.60 -627.33,-318.62 -629.06,-318.64 -629.59,-318.74 -630.13,-318.84 -630.60,-319.10 -631.08,-319.36 -631.44,-319.76 -631.81,-320.16 -632.03,-320.66 -632.24,-321.16 -632.29,-321.70 -632.34,-322.24 -632.21,-322.77 -632.09,-323.30 -631.80,-323.76 -631.51,-324.21 -631.09,-324.56 -630.67,-324.90 -630.16,-325.09 -629.65,-325.28 -629.11,-325.30 -628.57,-325.32 -628.05,-325.17 -627.53,-325.01 -627.09,-324.70 -626.64,-324.39 -626.32,-323.95 -626.00,-323.51 -625.84,-322.99 -625.67,-322.48 -625.68,-321.93 -625.69,-321.39 -625.88,-320.88 -626.06,-320.37 -626.40,-319.94 -626.73,-319.52 -627.19,-319.22 -627.64,-318.92 -628.17,-318.79 -628.70,-318.65 -629.24,-318.69 -629.78,-318.73 -630.28,-318.94 -630.78,-319.15 -631.19,-319.51 -631.59,-319.87 -631.86,-320.34 -632.14,-320.81 -632.24,-321.34 -632.35,-321.88 -632.28,-322.42 -632.21,-322.95 -631.97,-323.44 -631.74,-323.93 -631.36,-324.32 -630.97,-324.70 -630.49,-324.95 -630.01,-325.19 -629.47,-325.27 -628.93,-325.35 -628.93,-325.35 -628.93,-325.35 -626.70,-325.21 -624.46,-325.06 -623.05,-324.66 -621.63,-324.26 -619.89,-324.26 -618.14,-324.25 -615.89,-324.25 -613.64,-324.24 -611.74,-323.06 -609.85,-321.89 -610.07,-319.86 -610.30,-317.82 -610.82,-316.27 -611.33,-314.72 -612.24,-312.84 -613.15,-310.95 -614.02,-309.48 -614.90,-308.01 -615.65,-306.92 -616.41,-305.83 -617.74,-304.73 -619.07,-303.63 -620.35,-303.19 -621.64,-302.75 -623.32,-303.02 -625.01,-303.29 -626.02,-304.31 -627.02,-305.32 -627.97,-305.84 -628.93,-306.37 -629.92,-307.31 -630.90,-308.26 -631.92,-309.05 -632.95,-309.84 -634.88,-310.84 -636.82,-311.84 -637.77,-312.32 -638.72,-312.81 -639.95,-313.82 -641.19,-314.84 -641.57,-314.88 -641.95,-314.92 -642.31,-315.04 -642.67,-315.17 -642.99,-315.38 -643.30,-315.59 -643.56,-315.87 -643.82,-316.15 -644.01,-316.49 -644.19,-316.82 -644.29,-317.19 -644.39,-317.56 -644.39,-317.94 -644.40,-318.32 -644.32,-318.69 -644.23,-319.07 -644.06,-319.41 -643.89,-319.75 -643.64,-320.04 -643.40,-320.33 -643.09,-320.55 -642.78,-320.77 -642.42,-320.92 -642.07,-321.06 -641.69,-321.11 -641.32,-321.16 -640.81,-321.15 -640.31,-321.13 -638.84,-321.10 -637.37,-321.08 -635.41,-321.43 -633.44,-321.78 -633.33,-322.90 -633.21,-324.01 -633.05,-325.63 -632.90,-327.26 -632.84,-328.79 -632.79,-330.32 -632.73,-331.89 -632.66,-333.47 -632.60,-335.14 -632.54,-336.81 -632.51,-338.72 -632.48,-340.63 -632.41,-342.41 -632.34,-344.19 -632.33,-346.34 -632.32,-348.50 -632.28,-350.88 -632.25,-353.25 -632.15,-355.45 -632.05,-357.65 -631.78,-360.14 -631.51,-362.63 -630.88,-364.85 -630.26,-367.07 -629.49,-369.43 -628.71,-371.79 -628.11,-374.17 -627.51,-376.56 -626.81,-378.41 -626.10,-380.27 -625.54,-382.18 -624.99,-384.10 -624.29,-385.72 -623.59,-387.35 -622.69,-389.03 -621.80,-390.72 -620.18,-392.24 -618.57,-393.77 -616.94,-393.69 -615.31,-393.61 -614.17,-393.49 -613.03,-393.36 -611.03,-393.34 -609.03,-393.31 -606.34,-393.31 -603.66,-393.31 -600.72,-393.31 -597.79,-393.31 -594.27,-393.31 -590.74,-393.31 -587.19,-393.31 -583.64,-393.31 -579.34,-393.31 -575.04,-393.31 -570.34,-393.31 -565.63,-393.31 -560.66,-393.31 -555.68,-393.31 -550.05,-393.31 -544.42,-393.31 -538.62,-393.31 -532.82,-393.31 -526.62,-393.31 -520.42,-393.31 -514.61,-393.31 -508.81,-393.31 -502.60,-393.31 -496.38,-393.31 -489.88,-393.31 -483.38,-393.31 -476.87,-393.31 -470.36,-393.31 -463.85,-393.31 -457.33,-393.31 -450.80,-393.31 -444.26,-393.31 -437.67,-393.31 -431.09,-393.31 -425.06,-393.31 -419.03,-393.31 -412.97,-393.31 -406.91,-393.31 -401.44,-393.31 -395.97,-393.31 -390.54,-393.31 -385.11,-393.31 -379.10,-393.31 -373.09,-393.30 -366.40,-393.30 -359.70,-393.30 -353.41,-393.29 -347.12,-393.29 -341.12,-393.28 -335.12,-393.26 -329.12,-393.23 -323.11,-393.20 -317.11,-393.13 -311.10,-393.06 -304.41,-392.89 -297.72,-392.72 -290.16,-392.32 -282.59,-391.93 -274.88,-391.67 -267.16,-391.41 -259.95,-390.80 -252.75,-390.19 -245.81,-390.11 -238.88,-390.03 -232.03,-389.85 -225.19,-389.66 -218.62,-389.22 -212.06,-388.79 -205.40,-388.44 -198.74,-388.09 -192.48,-387.93 -186.21,-387.78 -180.34,-387.42 -174.47,-387.06 -169.39,-386.88 -164.30,-386.71 -159.17,-386.30 -154.05,-385.89 -149.45,-385.60 -144.85,-385.32 -140.01,-385.31 -135.18,-385.31 -129.89,-385.29 -124.61,-385.28 -118.93,-385.23 -113.26,-385.19 -107.36,-385.08 -101.45,-384.96 -95.07,-384.69 -88.68,-384.42 -82.38,-384.44 -76.08,-384.45 -70.05,-384.48 -64.02,-384.50 -58.63,-384.51 -53.24,-384.53 -47.31,-384.53 -41.39,-384.53 -35.56,-384.48 -29.72,-384.43 -24.93,-384.23 -20.14,-384.03 -16.14,-384.12 -12.14,-384.22 -9.71,-383.99 -7.28,-383.77 -6.59,-382.88 -5.91,-381.99 -5.83,-380.54 -5.76,-379.09 -5.91,-377.70 -6.06,-376.32 -6.15,-375.19 -6.24,-374.06 -6.34,-372.75 -6.44,-371.44 -6.51,-369.71 -6.58,-367.98 -6.58,-365.95 -6.59,-363.91 -6.59,-361.82 -6.59,-359.73 -6.57,-357.53 -6.55,-355.32 -6.62,-353.52 -6.69,-351.71 -6.69,-349.49 -6.70,-347.27 -6.71,-344.75 -6.72,-342.23 -6.75,-339.68 -6.78,-337.13 -6.84,-334.52 -6.90,-331.92 -7.06,-329.16 -7.21,-326.41 -7.56,-323.46 -7.91,-320.51 -8.06,-317.48 -8.21,-314.46 -8.57,-310.84 -8.92,-307.21 -9.09,-303.96 -9.25,-300.71 -9.62,-297.98 -10.00,-295.24 -10.21,-292.05 -10.42,-288.86 -10.92,-284.83 -11.41,-280.80 -11.90,-276.04 -12.39,-271.27 -12.86,-266.13 -13.34,-260.99 -13.78,-255.66 -14.22,-250.33 -14.57,-245.23 -14.93,-240.13 -15.10,-234.13 -15.27,-228.14 -15.66,-221.54 -16.06,-214.94 -16.31,-208.20 -16.56,-201.46 -16.49,-194.34 -16.41,-187.22 -16.22,-180.62 -16.04,-174.01 -15.60,-168.53 -15.16,-163.05 -14.81,-157.68 -14.47,-152.31 -13.63,-146.94 -12.80,-141.57 -12.20,-135.80 -11.60,-130.04 -10.86,-124.49 -10.12,-118.95 -9.73,-113.42 -9.35,-107.90 -9.13,-102.42 -8.91,-96.94 -8.40,-91.41 -7.88,-85.88 -7.35,-80.29 -6.81,-74.70 -6.24,-67.67 -5.66,-60.65 -4.98,-53.59 -4.31,-46.54 -3.40,-40.01 -2.48,-33.48 -1.70,-27.58 -0.91,-21.68 -0.43,-17.32 0.04,-12.96 0.47,-9.42 0.91,-5.89 1.23,-3.02 1.55,-0.15 1.55,0.03 1.54,0.22 1.49,0.40 1.44,0.58 1.35,0.74 1.26,0.91 1.13,1.05 1.01,1.19 0.85,1.29 0.69,1.39 0.51,1.46 0.34,1.52 0.15,1.54 -0.03,1.56 -0.21,1.53 -0.40,1.50 -0.58,1.43 -0.75,1.36 -0.90,1.25 -1.06,1.14 -1.18,1.00 -1.30,0.85 -1.38,0.69 -1.47,0.52 -1.51,0.33 -1.55,0.15 -1.55,0.15 L -1.55,0.15 Z"></path></g></svg>