<svg version="1.1" xmlns="http://www.w3.org/2000/svg" viewBox="0 0 1029.5 756.75" width="1029.5" height="756.75">
  <!-- svg-source:excalidraw -->
  
  <defs>
    <style>
      @font-face {
        font-family: "Virgil";
        src: url("https://excalidraw.com/Virgil.woff2");
      }
      @font-face {
        font-family: "Cascadia";
        src: url("https://excalidraw.com/Cascadia.woff2");
      }
    </style>
  </defs>
  <g transform="translate(158 91.75) rotate(0 -35 34.5)" stroke="none"><path fill="#1864ab" d="M -0.37,1.51 Q -0.37,1.51 -2.67,0.90 -4.96,0.29 -8.45,-0.24 -11.94,-0.78 -20.84,-1.02 -29.74,-1.25 -39.79,-0.22 -49.85,0.81 -59.17,4.08 -68.50,7.36 -76.09,13.27 -83.68,19.17 -90.06,26.24 -96.44,33.31 -100.86,39.73 -105.28,46.15 -107.70,51.66 -110.11,57.17 -110.28,60.98 -110.45,64.79 -108.09,67.90 -105.73,71.01 -99.75,73.15 -93.77,75.30 -84.95,76.26 -76.13,77.22 -62.38,75.91 -48.64,74.61 -31.33,70.34 -14.03,66.06 -1.54,61.39 10.95,56.71 19.31,51.05 27.68,45.39 32.29,39.66 36.91,33.92 38.24,28.52 39.58,23.12 38.19,17.85 36.80,12.59 32.87,7.57 28.93,2.55 25.29,-0.73 21.64,-4.02 18.20,-5.64 14.75,-7.26 11.91,-7.95 9.07,-8.64 6.87,-9.18 4.68,-9.72 4.48,-9.80 4.29,-9.89 4.13,-10.03 3.97,-10.17 3.87,-10.36 3.76,-10.54 3.72,-10.75 3.68,-10.96 3.71,-11.17 3.74,-11.38 3.83,-11.57 3.93,-11.76 4.08,-11.91 4.23,-12.06 4.42,-12.16 4.61,-12.25 4.82,-12.28 5.03,-12.31 5.24,-12.27 5.45,-12.23 5.63,-12.12 5.82,-12.02 5.96,-11.86 6.10,-11.70 6.18,-11.51 6.27,-11.31 6.29,-11.10 6.30,-10.89 6.25,-10.68 6.20,-10.48 6.09,-10.30 5.97,-10.12 5.81,-9.99 5.64,-9.85 5.44,-9.78 5.24,-9.71 5.03,-9.70 4.82,-9.69 4.62,-9.76 4.41,-9.82 4.24,-9.94 4.07,-10.06 3.94,-10.24 3.82,-10.41 3.76,-10.61 3.69,-10.82 3.70,-11.03 3.70,-11.24 3.78,-11.44 3.85,-11.64 3.98,-11.81 4.12,-11.97 4.30,-12.09 4.47,-12.20 4.68,-12.25 4.89,-12.30 5.10,-12.29 5.31,-12.27 5.31,-12.27 5.31,-12.27 7.50,-11.73 9.70,-11.19 12.79,-10.41 15.88,-9.63 19.63,-7.81 23.38,-5.98 27.19,-2.52 31.01,0.94 35.16,6.40 39.31,11.87 40.72,17.74 42.12,23.62 40.56,29.55 39.00,35.48 34.08,41.51 29.17,47.55 20.53,53.36 11.88,59.17 -0.75,63.89 -13.40,68.62 -30.89,72.92 -48.38,77.23 -62.39,78.53 -76.41,79.83 -85.54,78.80 -94.67,77.77 -101.17,75.24 -107.67,72.71 -110.33,68.87 -112.98,65.03 -112.77,60.60 -112.56,56.16 -110.02,50.41 -107.48,44.65 -102.96,38.08 -98.43,31.52 -91.89,24.28 -85.34,17.04 -77.39,10.92 -69.44,4.81 -59.79,1.44 -50.15,-1.93 -39.91,-3.00 -29.67,-4.07 -20.59,-3.85 -11.51,-3.64 -7.87,-3.12 -4.23,-2.59 -1.92,-2.05 0.37,-1.51 0.55,-1.44 0.73,-1.38 0.88,-1.27 1.03,-1.16 1.16,-1.02 1.28,-0.88 1.37,-0.71 1.46,-0.54 1.50,-0.36 1.55,-0.18 1.55,0.00 1.55,0.19 1.50,0.37 1.45,0.55 1.37,0.72 1.28,0.89 1.15,1.03 1.03,1.17 0.87,1.27 0.72,1.38 0.54,1.45 0.36,1.51 0.18,1.54 -0.00,1.56 -0.19,1.53 -0.37,1.51 -0.37,1.51 L -0.37,1.51 Z"></path></g><g transform="translate(10 29.25) rotate(0 38 13)"><text x="0" y="18" font-family="Virgil, Segoe UI Emoji" font-size="20px" fill="#1864ab" text-anchor="start" style="white-space: pre;" direction="ltr">Region 1</text></g><g transform="translate(87 114.75) rotate(0 36 13)"><text x="0" y="18" font-family="Virgil, Segoe UI Emoji" font-size="20px" fill="#1864ab" text-anchor="start" style="white-space: pre;" direction="ltr">Cluster</text></g><g transform="translate(182 248.75) rotate(0 0 28.5)" stroke="none"><path fill="#1864ab" d="M -0.42,1.50 Q -0.42,1.50 -2.43,0.90 -4.43,0.30 -6.87,0.05 -9.32,-0.18 -12.38,-0.30 -15.45,-0.42 -18.99,-0.20 -22.54,0.02 -25.96,0.95 -29.39,1.89 -32.90,2.86 -36.42,3.84 -39.27,5.09 -42.12,6.33 -44.72,7.97 -47.31,9.62 -49.54,11.44 -51.76,13.26 -53.21,15.09 -54.66,16.93 -55.52,19.04 -56.38,21.15 -56.74,23.68 -57.10,26.21 -56.97,28.67 -56.85,31.12 -56.25,33.82 -55.64,36.51 -54.03,38.94 -52.42,41.37 -49.81,43.50 -47.20,45.63 -43.82,47.68 -40.44,49.74 -36.22,51.16 -32.00,52.57 -25.33,54.04 -18.67,55.51 -11.32,55.84 -3.97,56.17 3.44,55.74 10.86,55.32 18.27,53.99 25.69,52.67 31.92,50.41 38.16,48.15 42.74,45.23 47.32,42.31 50.32,38.88 53.32,35.45 54.25,31.88 55.17,28.31 55.08,26.14 54.98,23.98 51.65,20.96 48.32,17.94 38.16,14.92 27.99,11.91 23.29,10.57 18.60,9.24 12.06,8.11 5.53,6.98 1.28,6.21 -2.96,5.43 -5.65,4.81 -8.35,4.19 -10.82,3.86 -13.28,3.54 -13.52,3.46 -13.76,3.37 -13.96,3.21 -14.16,3.05 -14.30,2.84 -14.43,2.63 -14.50,2.38 -14.56,2.13 -14.54,1.88 -14.52,1.63 -14.42,1.39 -14.33,1.16 -14.16,0.97 -13.99,0.78 -13.77,0.65 -13.55,0.52 -13.30,0.47 -13.05,0.42 -12.80,0.46 -12.54,0.49 -12.32,0.60 -12.09,0.71 -11.91,0.89 -11.72,1.07 -11.61,1.30 -11.50,1.52 -11.46,1.77 -11.42,2.03 -11.47,2.28 -11.52,2.53 -11.64,2.75 -11.76,2.97 -11.95,3.14 -12.14,3.31 -12.37,3.42 -12.60,3.52 -12.86,3.54 -13.11,3.56 -13.36,3.50 -13.61,3.44 -13.82,3.31 -14.04,3.17 -14.20,2.98 -14.36,2.78 -14.45,2.54 -14.54,2.30 -14.55,2.05 -14.55,1.79 -14.48,1.55 -14.41,1.31 -14.26,1.10 -14.11,0.89 -13.91,0.74 -13.70,0.59 -13.46,0.51 -13.22,0.44 -12.96,0.44 -12.71,0.45 -12.71,0.45 -12.71,0.45 -10.23,1.04 -7.76,1.63 -5.12,2.24 -2.49,2.85 1.74,3.62 5.98,4.39 12.65,5.55 19.31,6.71 24.03,8.05 28.75,9.40 39.39,12.69 50.03,15.97 53.71,19.67 57.39,23.36 57.55,26.16 57.71,28.97 56.53,33.03 55.35,37.09 52.05,40.80 48.75,44.51 43.91,47.56 39.06,50.61 32.61,52.94 26.15,55.26 18.58,56.60 11.01,57.94 3.46,58.37 -4.09,58.80 -11.66,58.44 -19.23,58.08 -26.04,56.57 -32.84,55.06 -37.32,53.53 -41.79,51.99 -45.34,49.82 -48.88,47.65 -51.74,45.24 -54.61,42.83 -56.40,39.98 -58.19,37.14 -58.84,34.19 -59.48,31.24 -59.59,28.54 -59.71,25.83 -59.26,22.99 -58.82,20.15 -57.78,17.73 -56.75,15.31 -55.10,13.26 -53.45,11.21 -51.10,9.28 -48.74,7.36 -45.97,5.62 -43.20,3.87 -40.18,2.55 -37.16,1.24 -33.63,0.24 -30.10,-0.74 -26.42,-1.74 -22.74,-2.74 -19.05,-3.00 -15.35,-3.26 -12.20,-3.17 -9.04,-3.09 -6.33,-2.84 -3.61,-2.60 -1.59,-2.05 0.42,-1.50 0.60,-1.43 0.77,-1.35 0.92,-1.24 1.08,-1.13 1.19,-0.98 1.31,-0.84 1.40,-0.67 1.48,-0.50 1.52,-0.31 1.55,-0.13 1.55,0.05 1.54,0.24 1.49,0.42 1.44,0.60 1.34,0.77 1.25,0.93 1.12,1.07 0.99,1.20 0.83,1.31 0.67,1.41 0.49,1.47 0.31,1.53 0.13,1.54 -0.05,1.56 -0.24,1.53 -0.43,1.50 -0.43,1.50 L -0.42,1.50 Z"></path></g><g transform="translate(143 265.75) rotate(0 40 13)"><text x="0" y="18" font-family="Virgil, Segoe UI Emoji" font-size="20px" fill="#1864ab" text-anchor="start" style="white-space: pre;" direction="ltr">Registry</text></g><g transform="translate(549.5 77.5) rotate(0 -35 34.5)" stroke="none"><path fill="#1864ab" d="M -0.37,1.51 Q -0.37,1.51 -2.67,0.90 -4.96,0.29 -8.45,-0.24 -11.94,-0.78 -20.84,-1.02 -29.74,-1.25 -39.79,-0.22 -49.85,0.81 -59.17,4.08 -68.50,7.36 -76.09,13.27 -83.68,19.17 -90.06,26.24 -96.44,33.31 -100.86,39.73 -105.28,46.15 -107.70,51.66 -110.11,57.17 -110.28,60.98 -110.45,64.79 -108.09,67.90 -105.73,71.01 -99.75,73.15 -93.77,75.30 -84.95,76.26 -76.13,77.22 -62.38,75.91 -48.64,74.61 -31.33,70.34 -14.03,66.06 -1.54,61.39 10.95,56.71 19.31,51.05 27.68,45.39 32.29,39.66 36.91,33.92 38.24,28.52 39.58,23.12 38.19,17.85 36.80,12.59 32.87,7.57 28.93,2.55 25.29,-0.73 21.64,-4.02 18.20,-5.64 14.75,-7.26 10.62,-8.14 6.49,-9.02 6.25,-9.12 6.02,-9.22 5.83,-9.39 5.64,-9.56 5.52,-9.78 5.40,-9.99 5.35,-10.24 5.30,-10.49 5.33,-10.74 5.37,-10.99 5.48,-11.22 5.59,-11.44 5.77,-11.62 5.95,-11.80 6.17,-11.91 6.40,-12.03 6.65,-12.06 6.90,-12.09 7.15,-12.05 7.39,-12.00 7.61,-11.88 7.83,-11.75 8.00,-11.56 8.17,-11.38 8.27,-11.15 8.37,-10.91 8.39,-10.66 8.41,-10.41 8.35,-10.17 8.29,-9.92 8.16,-9.71 8.02,-9.50 7.83,-9.34 7.63,-9.18 7.39,-9.09 7.16,-9.00 6.90,-9.00 6.65,-8.99 6.41,-9.06 6.17,-9.14 5.96,-9.28 5.76,-9.43 5.61,-9.64 5.46,-9.84 5.39,-10.08 5.31,-10.32 5.32,-10.57 5.33,-10.83 5.41,-11.06 5.50,-11.30 5.66,-11.50 5.82,-11.69 6.03,-11.83 6.24,-11.97 6.49,-12.03 6.73,-12.09 6.98,-12.07 7.23,-12.05 7.23,-12.05 7.23,-12.05 11.55,-10.84 15.88,-9.63 19.63,-7.81 23.38,-5.98 27.19,-2.52 31.01,0.94 35.16,6.40 39.31,11.87 40.72,17.74 42.12,23.62 40.56,29.55 39.00,35.48 34.08,41.51 29.17,47.55 20.53,53.36 11.88,59.17 -0.75,63.89 -13.40,68.62 -30.89,72.92 -48.38,77.23 -62.39,78.53 -76.41,79.83 -85.54,78.80 -94.67,77.77 -101.17,75.24 -107.67,72.71 -110.33,68.87 -112.98,65.03 -112.77,60.60 -112.56,56.16 -110.02,50.41 -107.48,44.65 -102.96,38.08 -98.43,31.52 -91.89,24.28 -85.34,17.04 -77.39,10.92 -69.44,4.81 -59.79,1.44 -50.15,-1.93 -39.91,-3.00 -29.67,-4.07 -20.59,-3.85 -11.51,-3.64 -7.87,-3.12 -4.23,-2.59 -1.92,-2.05 0.37,-1.51 0.55,-1.44 0.73,-1.38 0.88,-1.27 1.03,-1.16 1.16,-1.02 1.28,-0.88 1.37,-0.71 1.46,-0.54 1.50,-0.36 1.55,-0.18 1.55,0.00 1.55,0.19 1.50,0.37 1.45,0.55 1.37,0.72 1.28,0.89 1.15,1.03 1.03,1.17 0.87,1.27 0.72,1.38 0.54,1.45 0.36,1.51 0.18,1.54 -0.00,1.56 -0.19,1.53 -0.37,1.51 -0.37,1.51 L -0.37,1.51 Z"></path></g><g transform="translate(401.5 15) rotate(0 42.5 13)"><text x="0" y="18" font-family="Virgil, Segoe UI Emoji" font-size="20px" fill="#1864ab" text-anchor="start" style="white-space: pre;" direction="ltr">Region 2</text></g><g transform="translate(478.5 100.5) rotate(0 36 13)"><text x="0" y="18" font-family="Virgil, Segoe UI Emoji" font-size="20px" fill="#1864ab" text-anchor="start" style="white-space: pre;" direction="ltr">Cluster</text></g><g transform="translate(573.5 234.5) rotate(0 0 28.5)" stroke="none"><path fill="#1864ab" d="M -0.42,1.50 Q -0.42,1.50 -2.43,0.90 -4.43,0.30 -6.87,0.05 -9.32,-0.18 -12.38,-0.30 -15.45,-0.42 -18.99,-0.20 -22.54,0.02 -25.96,0.95 -29.39,1.89 -32.90,2.86 -36.42,3.84 -39.27,5.09 -42.12,6.33 -44.72,7.97 -47.31,9.62 -49.54,11.44 -51.76,13.26 -53.21,15.09 -54.66,16.93 -55.52,19.04 -56.38,21.15 -56.74,23.68 -57.10,26.21 -56.97,28.67 -56.85,31.12 -56.25,33.82 -55.64,36.51 -54.03,38.94 -52.42,41.37 -49.81,43.50 -47.20,45.63 -43.82,47.68 -40.44,49.74 -36.22,51.16 -32.00,52.57 -25.33,54.04 -18.67,55.51 -11.32,55.84 -3.97,56.17 3.44,55.74 10.86,55.32 18.27,53.99 25.69,52.67 31.92,50.41 38.16,48.15 42.74,45.23 47.32,42.31 50.32,38.88 53.32,35.45 54.25,31.88 55.17,28.31 55.08,26.14 54.98,23.98 51.65,20.96 48.32,17.94 38.16,14.92 27.99,11.91 23.29,10.57 18.60,9.24 12.06,8.11 5.53,6.98 1.28,6.21 -2.96,5.43 -5.65,4.81 -8.35,4.19 -10.36,3.92 -12.38,3.66 -12.61,3.58 -12.84,3.49 -13.04,3.34 -13.23,3.19 -13.37,2.98 -13.50,2.77 -13.56,2.53 -13.62,2.29 -13.60,2.05 -13.59,1.80 -13.49,1.57 -13.39,1.35 -13.23,1.16 -13.07,0.98 -12.85,0.85 -12.64,0.73 -12.40,0.68 -12.15,0.63 -11.91,0.67 -11.66,0.70 -11.44,0.81 -11.22,0.91 -11.04,1.09 -10.87,1.26 -10.76,1.48 -10.65,1.70 -10.61,1.95 -10.58,2.19 -10.62,2.43 -10.67,2.68 -10.79,2.89 -10.91,3.11 -11.09,3.27 -11.27,3.44 -11.50,3.54 -11.72,3.64 -11.97,3.66 -12.22,3.68 -12.46,3.62 -12.70,3.57 -12.91,3.43 -13.11,3.30 -13.27,3.11 -13.43,2.92 -13.51,2.69 -13.60,2.46 -13.61,2.21 -13.62,1.96 -13.55,1.73 -13.47,1.49 -13.33,1.29 -13.19,1.09 -12.99,0.94 -12.79,0.80 -12.55,0.72 -12.32,0.65 -12.07,0.65 -11.83,0.66 -11.83,0.66 -11.83,0.66 -9.79,1.14 -7.76,1.63 -5.12,2.24 -2.49,2.85 1.74,3.62 5.98,4.39 12.65,5.55 19.31,6.71 24.03,8.05 28.75,9.40 39.39,12.69 50.03,15.97 53.71,19.67 57.39,23.36 57.55,26.16 57.71,28.97 56.53,33.03 55.35,37.09 52.05,40.80 48.75,44.51 43.91,47.56 39.06,50.61 32.61,52.94 26.15,55.26 18.58,56.60 11.01,57.94 3.46,58.37 -4.09,58.80 -11.66,58.44 -19.23,58.08 -26.04,56.57 -32.84,55.06 -37.32,53.53 -41.79,51.99 -45.34,49.82 -48.88,47.65 -51.74,45.24 -54.61,42.83 -56.40,39.98 -58.19,37.14 -58.84,34.19 -59.48,31.24 -59.59,28.54 -59.71,25.83 -59.26,22.99 -58.82,20.15 -57.78,17.73 -56.75,15.31 -55.10,13.26 -53.45,11.21 -51.10,9.28 -48.74,7.36 -45.97,5.62 -43.20,3.87 -40.18,2.55 -37.16,1.24 -33.63,0.24 -30.10,-0.74 -26.42,-1.74 -22.74,-2.74 -19.05,-3.00 -15.35,-3.26 -12.20,-3.17 -9.04,-3.09 -6.33,-2.84 -3.61,-2.60 -1.59,-2.05 0.42,-1.50 0.60,-1.43 0.77,-1.35 0.92,-1.24 1.08,-1.13 1.19,-0.98 1.31,-0.84 1.40,-0.67 1.48,-0.50 1.52,-0.31 1.55,-0.13 1.55,0.05 1.54,0.24 1.49,0.42 1.44,0.60 1.34,0.77 1.25,0.93 1.12,1.07 0.99,1.20 0.83,1.31 0.67,1.41 0.49,1.47 0.31,1.53 0.13,1.54 -0.05,1.56 -0.24,1.53 -0.43,1.50 -0.43,1.50 L -0.42,1.50 Z"></path></g><g transform="translate(534.5 251.5) rotate(0 40 13)"><text x="0" y="18" font-family="Virgil, Segoe UI Emoji" font-size="20px" fill="#1864ab" text-anchor="start" style="white-space: pre;" direction="ltr">Registry</text></g><g transform="translate(936.5 72.5) rotate(0 -35 34.5)" stroke="none"><path fill="#1864ab" d="M -0.37,1.51 Q -0.37,1.51 -2.67,0.90 -4.96,0.29 -8.45,-0.24 -11.94,-0.78 -20.84,-1.02 -29.74,-1.25 -39.79,-0.22 -49.85,0.81 -59.17,4.08 -68.50,7.36 -76.09,13.27 -83.68,19.17 -90.06,26.24 -96.44,33.31 -100.86,39.73 -105.28,46.15 -107.70,51.66 -110.11,57.17 -110.28,60.98 -110.45,64.79 -108.09,67.90 -105.73,71.01 -99.75,73.15 -93.77,75.30 -84.95,76.26 -76.13,77.22 -62.38,75.91 -48.64,74.61 -31.33,70.34 -14.03,66.06 -1.54,61.39 10.95,56.71 19.31,51.05 27.68,45.39 32.29,39.66 36.91,33.92 38.24,28.52 39.58,23.12 38.19,17.85 36.80,12.59 32.87,7.57 28.93,2.55 25.29,-0.73 21.64,-4.02 18.20,-5.64 14.75,-7.26 10.62,-8.14 6.49,-9.02 6.25,-9.12 6.02,-9.22 5.83,-9.39 5.64,-9.56 5.52,-9.78 5.40,-9.99 5.35,-10.24 5.30,-10.49 5.33,-10.74 5.37,-10.99 5.48,-11.22 5.59,-11.44 5.77,-11.62 5.95,-11.80 6.17,-11.91 6.40,-12.03 6.65,-12.06 6.90,-12.09 7.15,-12.05 7.39,-12.00 7.61,-11.88 7.83,-11.75 8.00,-11.56 8.17,-11.38 8.27,-11.15 8.37,-10.91 8.39,-10.66 8.41,-10.41 8.35,-10.17 8.29,-9.92 8.16,-9.71 8.02,-9.50 7.83,-9.34 7.63,-9.18 7.39,-9.09 7.16,-9.00 6.90,-9.00 6.65,-8.99 6.41,-9.06 6.17,-9.14 5.96,-9.28 5.76,-9.43 5.61,-9.64 5.46,-9.84 5.39,-10.08 5.31,-10.32 5.32,-10.57 5.33,-10.83 5.41,-11.06 5.50,-11.30 5.66,-11.50 5.82,-11.69 6.03,-11.83 6.24,-11.97 6.49,-12.03 6.73,-12.09 6.98,-12.07 7.23,-12.05 7.23,-12.05 7.23,-12.05 11.55,-10.84 15.88,-9.63 19.63,-7.81 23.38,-5.98 27.19,-2.52 31.01,0.94 35.16,6.40 39.31,11.87 40.72,17.74 42.12,23.62 40.56,29.55 39.00,35.48 34.08,41.51 29.17,47.55 20.53,53.36 11.88,59.17 -0.75,63.89 -13.40,68.62 -30.89,72.92 -48.38,77.23 -62.39,78.53 -76.41,79.83 -85.54,78.80 -94.67,77.77 -101.17,75.24 -107.67,72.71 -110.33,68.87 -112.98,65.03 -112.77,60.60 -112.56,56.16 -110.02,50.41 -107.48,44.65 -102.96,38.08 -98.43,31.52 -91.89,24.28 -85.34,17.04 -77.39,10.92 -69.44,4.81 -59.79,1.44 -50.15,-1.93 -39.91,-3.00 -29.67,-4.07 -20.59,-3.85 -11.51,-3.64 -7.87,-3.12 -4.23,-2.59 -1.92,-2.05 0.37,-1.51 0.55,-1.44 0.73,-1.38 0.88,-1.27 1.03,-1.16 1.16,-1.02 1.28,-0.88 1.37,-0.71 1.46,-0.54 1.50,-0.36 1.55,-0.18 1.55,0.00 1.55,0.19 1.50,0.37 1.45,0.55 1.37,0.72 1.28,0.89 1.15,1.03 1.03,1.17 0.87,1.27 0.72,1.38 0.54,1.45 0.36,1.51 0.18,1.54 -0.00,1.56 -0.19,1.53 -0.37,1.51 -0.37,1.51 L -0.37,1.51 Z"></path></g><g transform="translate(788.5 10) rotate(0 42 13)"><text x="0" y="18" font-family="Virgil, Segoe UI Emoji" font-size="20px" fill="#1864ab" text-anchor="start" style="white-space: pre;" direction="ltr">Region 3</text></g><g transform="translate(865.5 95.5) rotate(0 36 13)"><text x="0" y="18" font-family="Virgil, Segoe UI Emoji" font-size="20px" fill="#1864ab" text-anchor="start" style="white-space: pre;" direction="ltr">Cluster</text></g><g transform="translate(960.5 229.5) rotate(0 0 28.5)" stroke="none"><path fill="#1864ab" d="M -0.42,1.50 Q -0.42,1.50 -2.43,0.90 -4.43,0.30 -6.87,0.05 -9.32,-0.18 -12.38,-0.30 -15.45,-0.42 -18.99,-0.20 -22.54,0.02 -25.96,0.95 -29.39,1.89 -32.90,2.86 -36.42,3.84 -39.27,5.09 -42.12,6.33 -44.72,7.97 -47.31,9.62 -49.54,11.44 -51.76,13.26 -53.21,15.09 -54.66,16.93 -55.52,19.04 -56.38,21.15 -56.74,23.68 -57.10,26.21 -56.97,28.67 -56.85,31.12 -56.25,33.82 -55.64,36.51 -54.03,38.94 -52.42,41.37 -49.81,43.50 -47.20,45.63 -43.82,47.68 -40.44,49.74 -36.22,51.16 -32.00,52.57 -25.33,54.04 -18.67,55.51 -11.32,55.84 -3.97,56.17 3.44,55.74 10.86,55.32 18.27,53.99 25.69,52.67 31.92,50.41 38.16,48.15 42.74,45.23 47.32,42.31 50.32,38.88 53.32,35.45 54.25,31.88 55.17,28.31 55.08,26.14 54.98,23.98 51.65,20.96 48.32,17.94 38.16,14.92 27.99,11.91 23.29,10.57 18.60,9.24 12.06,8.11 5.53,6.98 1.28,6.21 -2.96,5.43 -5.65,4.81 -8.35,4.19 -10.36,3.92 -12.38,3.66 -12.61,3.58 -12.84,3.49 -13.04,3.34 -13.23,3.19 -13.37,2.98 -13.50,2.77 -13.56,2.53 -13.62,2.29 -13.60,2.05 -13.59,1.80 -13.49,1.57 -13.39,1.35 -13.23,1.16 -13.07,0.98 -12.85,0.85 -12.64,0.73 -12.40,0.68 -12.15,0.63 -11.91,0.67 -11.66,0.70 -11.44,0.81 -11.22,0.91 -11.04,1.09 -10.87,1.26 -10.76,1.48 -10.65,1.70 -10.61,1.95 -10.58,2.19 -10.62,2.43 -10.67,2.68 -10.79,2.89 -10.91,3.11 -11.09,3.27 -11.27,3.44 -11.50,3.54 -11.72,3.64 -11.97,3.66 -12.22,3.68 -12.46,3.62 -12.70,3.57 -12.91,3.43 -13.11,3.30 -13.27,3.11 -13.43,2.92 -13.51,2.69 -13.60,2.46 -13.61,2.21 -13.62,1.96 -13.55,1.73 -13.47,1.49 -13.33,1.29 -13.19,1.09 -12.99,0.94 -12.79,0.80 -12.55,0.72 -12.32,0.65 -12.07,0.65 -11.83,0.66 -11.83,0.66 -11.83,0.66 -9.79,1.14 -7.76,1.63 -5.12,2.24 -2.49,2.85 1.74,3.62 5.98,4.39 12.65,5.55 19.31,6.71 24.03,8.05 28.75,9.40 39.39,12.69 50.03,15.97 53.71,19.67 57.39,23.36 57.55,26.16 57.71,28.97 56.53,33.03 55.35,37.09 52.05,40.80 48.75,44.51 43.91,47.56 39.06,50.61 32.61,52.94 26.15,55.26 18.58,56.60 11.01,57.94 3.46,58.37 -4.09,58.80 -11.66,58.44 -19.23,58.08 -26.04,56.57 -32.84,55.06 -37.32,53.53 -41.79,51.99 -45.34,49.82 -48.88,47.65 -51.74,45.24 -54.61,42.83 -56.40,39.98 -58.19,37.14 -58.84,34.19 -59.48,31.24 -59.59,28.54 -59.71,25.83 -59.26,22.99 -58.82,20.15 -57.78,17.73 -56.75,15.31 -55.10,13.26 -53.45,11.21 -51.10,9.28 -48.74,7.36 -45.97,5.62 -43.20,3.87 -40.18,2.55 -37.16,1.24 -33.63,0.24 -30.10,-0.74 -26.42,-1.74 -22.74,-2.74 -19.05,-3.00 -15.35,-3.26 -12.20,-3.17 -9.04,-3.09 -6.33,-2.84 -3.61,-2.60 -1.59,-2.05 0.42,-1.50 0.60,-1.43 0.77,-1.35 0.92,-1.24 1.08,-1.13 1.19,-0.98 1.31,-0.84 1.40,-0.67 1.48,-0.50 1.52,-0.31 1.55,-0.13 1.55,0.05 1.54,0.24 1.49,0.42 1.44,0.60 1.34,0.77 1.25,0.93 1.12,1.07 0.99,1.20 0.83,1.31 0.67,1.41 0.49,1.47 0.31,1.53 0.13,1.54 -0.05,1.56 -0.24,1.53 -0.43,1.50 -0.43,1.50 L -0.42,1.50 Z"></path></g><g transform="translate(921.5 246.5) rotate(0 40 13)"><text x="0" y="18" font-family="Virgil, Segoe UI Emoji" font-size="20px" fill="#1864ab" text-anchor="start" style="white-space: pre;" direction="ltr">Registry</text></g><g transform="translate(520 434.25) rotate(0 27.5 50.5)" stroke="none"><path fill="#1864ab" d="M 27.00,2.92 Q 27.00,2.92 24.06,1.90 21.13,0.88 17.50,0.46 13.87,0.05 9.36,-0.13 4.86,-0.32 -0.36,0.07 -5.58,0.47 -10.64,2.10 -15.70,3.72 -20.86,5.41 -26.01,7.10 -30.22,9.26 -34.43,11.42 -38.27,14.27 -42.12,17.13 -45.41,20.29 -48.71,23.45 -50.89,26.69 -53.07,29.93 -54.39,33.68 -55.70,37.42 -56.26,41.91 -56.82,46.40 -56.64,50.73 -56.47,55.07 -55.56,59.82 -54.66,64.57 -52.24,68.92 -49.81,73.26 -45.92,77.02 -42.02,80.78 -37.02,84.36 -32.02,87.93 -25.79,90.40 -19.55,92.86 -9.76,95.40 0.03,97.93 10.84,98.51 21.65,99.08 32.55,98.35 43.44,97.61 54.33,95.33 65.23,93.05 74.41,89.15 83.59,85.24 90.36,80.18 97.13,75.12 101.61,69.13 106.10,63.13 107.53,56.79 108.97,50.45 108.80,46.44 108.64,42.43 103.66,36.99 98.68,31.55 83.67,26.29 68.66,21.02 61.77,18.72 54.88,16.42 45.28,14.47 35.67,12.52 29.45,11.19 23.22,9.85 19.28,8.79 15.34,7.72 12.37,7.21 9.41,6.69 9.18,6.60 8.94,6.51 8.75,6.35 8.55,6.18 8.42,5.97 8.29,5.75 8.24,5.50 8.18,5.25 8.21,5.00 8.23,4.75 8.34,4.52 8.44,4.29 8.62,4.10 8.79,3.92 9.02,3.80 9.24,3.68 9.49,3.64 9.74,3.60 9.99,3.64 10.24,3.68 10.46,3.80 10.69,3.91 10.86,4.10 11.04,4.28 11.15,4.51 11.25,4.74 11.28,4.99 11.31,5.24 11.26,5.49 11.20,5.74 11.07,5.96 10.94,6.17 10.75,6.34 10.56,6.50 10.32,6.60 10.09,6.69 9.83,6.71 9.58,6.72 9.34,6.65 9.09,6.59 8.88,6.45 8.67,6.30 8.52,6.10 8.36,5.90 8.28,5.66 8.20,5.42 8.20,5.17 8.20,4.91 8.28,4.67 8.36,4.43 8.51,4.23 8.66,4.03 8.87,3.89 9.08,3.74 9.33,3.68 9.57,3.61 9.82,3.62 10.08,3.63 10.08,3.63 10.08,3.63 13.05,4.41 16.02,5.18 19.90,6.23 23.77,7.29 29.98,8.62 36.20,9.95 45.95,11.94 55.71,13.93 62.62,16.24 69.54,18.55 85.03,24.13 100.51,29.72 105.81,35.83 111.11,41.95 111.32,46.49 111.53,51.03 109.88,57.83 108.23,64.63 103.48,70.92 98.72,77.21 91.67,82.43 84.63,87.65 75.20,91.64 65.77,95.62 54.70,97.93 43.62,100.23 32.57,100.97 21.51,101.71 10.45,101.09 -0.61,100.48 -10.57,97.89 -20.52,95.30 -27.03,92.69 -33.54,90.08 -38.69,86.37 -43.85,82.67 -47.97,78.61 -52.10,74.56 -54.67,69.83 -57.24,65.10 -58.17,60.13 -59.10,55.17 -59.26,50.62 -59.43,46.08 -58.81,41.31 -58.19,36.55 -56.73,32.51 -55.27,28.46 -52.91,25.00 -50.55,21.55 -47.13,18.27 -43.71,14.99 -39.68,12.01 -35.66,9.04 -31.26,6.78 -26.86,4.53 -21.69,2.83 -16.53,1.12 -11.17,-0.57 -5.81,-2.27 -0.42,-2.70 4.97,-3.14 9.58,-2.97 14.19,-2.81 18.12,-2.38 22.06,-1.95 25.03,-0.99 27.99,-0.03 28.16,0.04 28.33,0.12 28.48,0.24 28.62,0.36 28.74,0.51 28.85,0.66 28.92,0.83 29.00,1.01 29.03,1.19 29.06,1.38 29.04,1.56 29.03,1.75 28.97,1.93 28.91,2.11 28.80,2.27 28.70,2.43 28.57,2.56 28.43,2.69 28.27,2.78 28.11,2.88 27.92,2.93 27.74,2.98 27.56,2.99 27.37,2.99 27.18,2.96 27.00,2.92 27.00,2.92 L 27.00,2.92 Z"></path></g><g transform="translate(482 472.25) rotate(0 63.5 13)"><text x="0" y="18" font-family="Virgil, Segoe UI Emoji" font-size="20px" fill="#1864ab" text-anchor="start" style="white-space: pre;" direction="ltr">Main registry</text></g><g transform="translate(465 451.75) rotate(0 -109 -56.5)" stroke="none"><path fill="#1864ab" d="M -0.74,1.49 Q -0.74,1.49 -1.93,0.99 -3.12,0.50 -4.42,0.06 -5.72,-0.38 -7.70,-1.26 -9.68,-2.15 -12.21,-3.11 -14.74,-4.08 -17.80,-5.07 -20.86,-6.07 -23.84,-6.79 -26.83,-7.50 -29.82,-8.11 -32.81,-8.71 -35.92,-9.87 -39.04,-11.03 -42.34,-12.38 -45.65,-13.74 -48.75,-14.88 -51.85,-16.03 -55.25,-17.69 -58.65,-19.36 -61.80,-20.93 -64.94,-22.49 -68.05,-24.33 -71.15,-26.17 -74.15,-27.79 -77.15,-29.41 -80.73,-31.25 -84.30,-33.09 -87.81,-34.73 -91.32,-36.36 -94.87,-38.23 -98.41,-40.09 -101.93,-42.04 -105.45,-43.98 -108.69,-45.97 -111.93,-47.96 -115.03,-49.95 -118.14,-51.95 -121.45,-53.93 -124.75,-55.92 -127.91,-57.93 -131.06,-59.93 -134.66,-61.91 -138.26,-63.89 -141.82,-65.89 -145.38,-67.89 -148.60,-69.60 -151.82,-71.30 -154.92,-72.89 -158.01,-74.48 -161.36,-76.31 -164.70,-78.14 -168.14,-80.07 -171.57,-82.00 -175.34,-84.27 -179.12,-86.53 -182.72,-88.64 -186.32,-90.74 -189.30,-92.50 -192.27,-94.27 -194.46,-95.92 -196.65,-97.57 -198.95,-99.09 -201.26,-100.61 -203.12,-101.85 -204.98,-103.08 -206.88,-104.15 -208.78,-105.23 -210.29,-106.25 -211.80,-107.28 -212.97,-107.89 -214.15,-108.49 -216.51,-109.86 -218.87,-111.22 -219.13,-111.41 -219.39,-111.59 -219.58,-111.85 -219.77,-112.11 -219.86,-112.42 -219.96,-112.73 -219.95,-113.05 -219.94,-113.37 -219.83,-113.67 -219.72,-113.97 -219.52,-114.22 -219.32,-114.47 -219.05,-114.64 -218.78,-114.81 -218.47,-114.89 -218.16,-114.97 -217.84,-114.94 -217.52,-114.92 -217.22,-114.79 -216.93,-114.66 -216.69,-114.45 -216.45,-114.24 -216.29,-113.96 -216.14,-113.68 -216.08,-113.36 -216.02,-113.05 -216.06,-112.73 -216.10,-112.41 -216.24,-112.13 -216.39,-111.84 -216.61,-111.61 -216.84,-111.39 -217.13,-111.25 -217.41,-111.10 -217.73,-111.06 -218.05,-111.02 -218.36,-111.08 -218.68,-111.14 -218.96,-111.29 -219.23,-111.45 -219.45,-111.69 -219.66,-111.93 -219.79,-112.22 -219.92,-112.52 -219.94,-112.84 -219.97,-113.16 -219.89,-113.47 -219.81,-113.78 -219.64,-114.05 -219.47,-114.32 -219.22,-114.52 -218.97,-114.72 -218.67,-114.83 -218.37,-114.94 -218.05,-114.95 -217.73,-114.96 -217.42,-114.86 -217.12,-114.77 -217.12,-114.77 -217.12,-114.77 -214.75,-113.05 -212.38,-111.34 -211.22,-110.48 -210.05,-109.63 -208.77,-108.57 -207.48,-107.51 -205.50,-106.39 -203.52,-105.27 -201.67,-104.04 -199.81,-102.80 -197.44,-101.23 -195.06,-99.66 -193.00,-98.09 -190.93,-96.52 -187.96,-94.77 -185.00,-93.01 -181.38,-90.90 -177.77,-88.79 -174.02,-86.54 -170.28,-84.29 -166.86,-82.37 -163.44,-80.45 -160.13,-78.63 -156.81,-76.81 -153.70,-75.22 -150.60,-73.62 -147.34,-71.90 -144.09,-70.18 -140.54,-68.19 -136.99,-66.19 -133.32,-64.17 -129.65,-62.15 -126.53,-60.16 -123.40,-58.17 -120.06,-56.17 -116.71,-54.16 -113.63,-52.18 -110.55,-50.20 -107.36,-48.24 -104.17,-46.29 -100.68,-44.36 -97.18,-42.43 -93.70,-40.59 -90.21,-38.76 -86.65,-37.10 -83.09,-35.45 -79.49,-33.60 -75.89,-31.75 -72.84,-30.11 -69.79,-28.46 -66.77,-26.68 -63.75,-24.89 -60.61,-23.34 -57.46,-21.79 -54.19,-20.19 -50.91,-18.59 -47.76,-17.45 -44.61,-16.30 -41.33,-14.99 -38.06,-13.68 -35.16,-12.61 -32.25,-11.55 -29.21,-10.99 -26.16,-10.42 -23.05,-9.75 -19.94,-9.07 -16.78,-8.14 -13.63,-7.21 -10.99,-6.34 -8.36,-5.48 -6.32,-4.76 -4.28,-4.04 -2.87,-3.42 -1.47,-2.80 -0.36,-2.14 0.74,-1.49 0.91,-1.38 1.08,-1.27 1.21,-1.12 1.35,-0.97 1.45,-0.79 1.54,-0.62 1.60,-0.42 1.65,-0.23 1.65,-0.03 1.66,0.16 1.61,0.36 1.57,0.56 1.48,0.74 1.39,0.92 1.26,1.07 1.13,1.22 0.96,1.34 0.80,1.46 0.61,1.53 0.43,1.61 0.23,1.64 0.03,1.66 -0.16,1.64 -0.36,1.62 -0.55,1.56 -0.74,1.49 -0.74,1.49 L -0.74,1.49 Z"></path></g><g transform="translate(232 330.75) rotate(0 13 7)" stroke="none"><path fill="#1864ab" d="M 2.31,-0.28 Q 2.31,-0.28 2.47,2.02 2.62,4.34 2.97,6.09 3.33,7.84 3.78,9.43 4.24,11.02 4.74,12.19 5.25,13.36 5.77,14.68 6.30,15.99 6.25,15.90 6.19,15.80 6.27,16.06 6.35,16.32 6.37,16.60 6.38,16.87 6.33,17.14 6.28,17.41 6.16,17.66 6.05,17.91 5.88,18.13 5.71,18.34 5.49,18.51 5.27,18.68 5.02,18.79 4.77,18.90 4.50,18.94 4.23,18.99 3.96,18.97 3.68,18.96 3.42,18.87 3.16,18.79 2.93,18.64 2.69,18.50 2.50,18.31 2.31,18.11 2.17,17.87 2.03,17.64 1.82,16.33 1.62,15.03 1.57,13.86 1.53,12.70 1.51,11.35 1.50,10.00 1.24,8.80 0.99,7.61 0.82,6.31 0.65,5.01 0.57,3.89 0.48,2.77 -0.01,1.62 -0.50,0.47 -0.68,-0.81 -0.85,-2.10 0.47,-4.18 1.81,-6.26 3.29,-6.24 4.78,-6.22 5.90,-6.13 7.03,-6.05 8.73,-5.91 10.44,-5.78 12.61,-5.58 14.78,-5.39 16.85,-5.26 18.93,-5.13 20.67,-5.11 22.42,-5.09 24.21,-5.16 26.00,-5.23 26.35,-5.17 26.71,-5.11 27.03,-4.94 27.35,-4.77 27.60,-4.51 27.85,-4.25 28.00,-3.92 28.15,-3.59 28.19,-3.23 28.23,-2.87 28.15,-2.52 28.07,-2.17 27.88,-1.86 27.70,-1.55 27.42,-1.31 27.14,-1.08 26.81,-0.95 26.47,-0.81 26.11,-0.79 25.75,-0.77 25.40,-0.87 25.05,-0.97 24.76,-1.17 24.46,-1.38 24.24,-1.66 24.02,-1.95 23.91,-2.29 23.79,-2.64 23.79,-3.00 23.79,-3.36 23.91,-3.70 24.02,-4.04 24.24,-4.33 24.46,-4.62 24.76,-4.82 25.06,-5.02 25.41,-5.12 25.76,-5.22 26.12,-5.20 26.48,-5.18 26.81,-5.04 27.15,-4.91 27.42,-4.67 27.70,-4.44 27.89,-4.13 28.07,-3.82 28.15,-3.47 28.23,-3.11 28.19,-2.75 28.15,-2.39 27.99,-2.07 27.84,-1.74 27.59,-1.48 27.34,-1.21 27.02,-1.05 26.71,-0.88 26.35,-0.82 25.99,-0.76 25.99,-0.76 25.99,-0.76 24.20,-0.84 22.41,-0.91 20.66,-0.90 18.91,-0.88 16.83,-0.76 14.75,-0.65 12.54,-0.48 10.33,-0.32 8.51,-0.25 6.69,-0.18 4.92,-0.27 3.16,-0.35 4.04,-1.36 4.92,-2.36 4.93,-1.14 4.94,0.07 5.32,2.28 5.70,4.49 5.78,5.56 5.86,6.63 6.18,8.30 6.50,9.97 6.49,11.32 6.48,12.67 6.34,14.24 6.19,15.80 6.27,16.06 6.35,16.32 6.37,16.60 6.38,16.87 6.33,17.14 6.28,17.41 6.16,17.66 6.05,17.91 5.88,18.12 5.71,18.34 5.49,18.51 5.27,18.68 5.02,18.79 4.77,18.90 4.50,18.94 4.23,18.99 3.96,18.97 3.68,18.96 3.42,18.87 3.16,18.79 2.93,18.64 2.69,18.50 2.50,18.31 2.31,18.11 2.17,17.87 2.03,17.64 1.67,16.25 1.31,14.86 0.85,13.48 0.39,12.10 -0.07,10.41 -0.54,8.71 -1.01,6.78 -1.47,4.85 -1.89,2.57 -2.31,0.28 -2.31,0.00 -2.31,-0.27 -2.25,-0.54 -2.18,-0.81 -2.05,-1.06 -1.92,-1.31 -1.73,-1.53 -1.55,-1.74 -1.32,-1.90 -1.09,-2.06 -0.82,-2.16 -0.56,-2.26 -0.28,-2.29 -0.00,-2.33 0.27,-2.30 0.55,-2.26 0.81,-2.16 1.07,-2.07 1.30,-1.91 1.54,-1.75 1.72,-1.54 1.91,-1.33 2.04,-1.08 2.17,-0.83 2.24,-0.56 2.31,-0.28 2.31,-0.28 L 2.31,-0.28 Z"></path></g><g transform="translate(574 436.75) rotate(0 11.5 -56.5)" stroke="none"><path fill="#1864ab" d="M -1.33,-1.00 Q -1.33,-1.00 -0.53,-2.19 0.26,-3.39 1.54,-4.81 2.83,-6.23 3.87,-7.61 4.91,-8.99 6.29,-10.70 7.67,-12.41 8.79,-14.45 9.90,-16.50 10.67,-18.47 11.43,-20.45 12.35,-23.30 13.27,-26.15 13.94,-29.59 14.61,-33.04 15.19,-36.53 15.78,-40.03 16.32,-43.24 16.86,-46.46 17.67,-50.16 18.49,-53.86 19.12,-57.13 19.75,-60.39 20.01,-63.73 20.27,-67.06 20.68,-70.27 21.08,-73.47 21.25,-76.50 21.42,-79.52 21.49,-82.25 21.57,-84.97 21.60,-87.57 21.63,-90.16 21.36,-92.33 21.09,-94.50 20.97,-96.65 20.85,-98.80 20.72,-100.58 20.60,-102.35 20.47,-103.68 20.34,-105.00 19.75,-106.76 19.16,-108.53 18.99,-110.72 18.82,-112.92 18.87,-113.27 18.91,-113.62 19.07,-113.94 19.22,-114.25 19.47,-114.50 19.71,-114.75 20.03,-114.91 20.34,-115.07 20.69,-115.12 21.04,-115.17 21.39,-115.11 21.73,-115.04 22.04,-114.87 22.35,-114.70 22.58,-114.44 22.82,-114.18 22.96,-113.86 23.10,-113.53 23.13,-113.18 23.16,-112.83 23.08,-112.49 23.00,-112.15 22.81,-111.85 22.62,-111.55 22.35,-111.33 22.08,-111.11 21.75,-110.99 21.42,-110.86 21.07,-110.85 20.72,-110.84 20.38,-110.94 20.04,-111.04 19.75,-111.24 19.47,-111.45 19.26,-111.73 19.05,-112.02 18.95,-112.35 18.84,-112.69 18.85,-113.04 18.86,-113.39 18.98,-113.72 19.09,-114.05 19.31,-114.33 19.53,-114.60 19.83,-114.80 20.12,-114.99 20.46,-115.07 20.80,-115.16 21.16,-115.14 21.51,-115.11 21.83,-114.97 22.15,-114.83 22.42,-114.60 22.68,-114.37 22.86,-114.06 23.03,-113.76 23.10,-113.41 23.17,-113.07 23.17,-113.07 23.17,-113.07 23.21,-110.43 23.25,-107.79 23.48,-106.43 23.71,-105.08 23.62,-103.76 23.54,-102.44 23.51,-100.69 23.49,-98.95 23.60,-96.88 23.71,-94.82 23.99,-92.48 24.27,-90.13 24.24,-87.52 24.21,-84.90 24.14,-82.14 24.07,-79.38 23.89,-76.26 23.72,-73.14 23.33,-70.00 22.93,-66.85 22.66,-63.37 22.39,-59.89 21.76,-56.59 21.13,-53.28 20.35,-49.65 19.56,-46.01 19.04,-42.80 18.52,-39.58 17.96,-36.04 17.40,-32.51 16.73,-28.90 16.05,-25.28 15.17,-22.34 14.28,-19.39 13.50,-17.21 12.72,-15.03 11.55,-12.70 10.39,-10.37 9.11,-8.56 7.83,-6.76 6.68,-5.26 5.53,-3.77 4.36,-2.48 3.18,-1.20 2.26,-0.10 1.33,1.00 1.19,1.14 1.05,1.29 0.88,1.40 0.71,1.50 0.52,1.57 0.33,1.63 0.13,1.65 -0.06,1.67 -0.26,1.63 -0.46,1.60 -0.64,1.52 -0.83,1.44 -0.99,1.32 -1.15,1.20 -1.28,1.05 -1.41,0.89 -1.49,0.71 -1.58,0.53 -1.62,0.33 -1.66,0.13 -1.65,-0.06 -1.65,-0.26 -1.59,-0.46 -1.53,-0.65 -1.43,-0.82 -1.33,-1.00 -1.33,-1.00 L -1.33,-1.00 Z"></path></g><g transform="translate(591 318.75) rotate(0 2 3)" stroke="none"><path fill="#1864ab" d="M 2.34,1.17 Q 2.34,1.17 1.77,2.32 1.20,3.47 0.68,4.54 0.16,5.61 -0.33,6.65 -0.82,7.68 -1.32,8.70 -1.81,9.72 -2.39,10.63 -2.97,11.54 -3.43,12.52 -3.89,13.49 -4.15,13.73 -4.41,13.97 -4.71,14.14 -5.02,14.31 -5.35,14.40 -5.69,14.49 -6.04,14.50 -6.39,14.51 -6.73,14.43 -7.07,14.35 -7.38,14.20 -7.70,14.04 -7.96,13.82 -8.23,13.59 -8.43,13.31 -8.64,13.03 -8.77,12.70 -8.90,12.38 -8.95,12.03 -9.00,11.69 -8.97,11.34 -8.93,10.99 -8.82,10.66 -8.70,10.34 -8.51,10.04 -8.32,9.75 -7.84,8.13 -7.37,6.50 -6.86,5.40 -6.36,4.29 -5.41,3.01 -4.45,1.73 -3.40,-0.09 -2.35,-1.91 -1.75,-2.79 -1.14,-3.68 1.31,-5.75 3.78,-7.83 5.47,-6.66 7.17,-5.48 8.12,-3.63 9.08,-1.79 9.56,-0.81 10.04,0.15 11.97,3.54 13.89,6.92 13.99,7.41 14.09,7.90 14.02,8.40 13.95,8.89 13.73,9.34 13.51,9.79 13.16,10.15 12.81,10.50 12.36,10.72 11.91,10.95 11.42,11.02 10.92,11.09 10.43,10.99 9.94,10.90 9.50,10.66 9.07,10.41 8.73,10.04 8.40,9.67 8.20,9.21 8.00,8.75 7.95,8.25 7.91,7.75 8.03,7.27 8.15,6.78 8.42,6.36 8.69,5.94 9.08,5.62 9.46,5.31 9.93,5.13 10.40,4.96 10.90,4.95 11.40,4.93 11.88,5.08 12.36,5.22 12.77,5.51 13.17,5.80 13.47,6.21 13.76,6.61 13.91,7.09 14.06,7.57 14.05,8.07 14.03,8.57 13.86,9.04 13.69,9.51 13.38,9.90 13.07,10.29 12.65,10.56 12.23,10.83 11.74,10.95 11.26,11.08 10.76,11.04 10.26,11.00 9.80,10.80 9.34,10.60 8.96,10.27 8.59,9.94 8.34,9.50 8.10,9.07 8.10,9.07 8.10,9.07 7.27,7.25 6.45,5.43 5.48,4.20 4.51,2.97 4.01,2.01 3.51,1.04 2.89,-0.72 2.26,-2.49 3.40,-1.85 4.53,-1.22 3.63,-0.17 2.73,0.87 2.14,1.94 1.56,3.00 0.87,4.13 0.17,5.26 -0.84,6.95 -1.85,8.65 -2.52,9.84 -3.18,11.04 -3.54,12.27 -3.89,13.49 -4.15,13.73 -4.41,13.97 -4.71,14.14 -5.02,14.31 -5.35,14.40 -5.69,14.49 -6.04,14.50 -6.39,14.51 -6.73,14.43 -7.07,14.35 -7.38,14.20 -7.70,14.04 -7.96,13.82 -8.23,13.59 -8.43,13.31 -8.64,13.03 -8.77,12.70 -8.90,12.38 -8.95,12.03 -9.00,11.69 -8.97,11.34 -8.93,10.99 -8.82,10.66 -8.70,10.34 -8.51,10.04 -8.32,9.75 -8.50,10.11 -8.69,10.47 -7.69,8.87 -6.69,7.28 -6.17,6.27 -5.65,5.27 -5.12,4.25 -4.59,3.23 -4.04,2.18 -3.50,1.12 -2.92,-0.02 -2.34,-1.17 -2.16,-1.43 -1.99,-1.69 -1.76,-1.91 -1.52,-2.12 -1.25,-2.27 -0.97,-2.42 -0.67,-2.51 -0.36,-2.59 -0.05,-2.59 0.26,-2.60 0.57,-2.53 0.88,-2.46 1.16,-2.32 1.44,-2.18 1.68,-1.97 1.92,-1.77 2.10,-1.51 2.29,-1.26 2.41,-0.96 2.52,-0.67 2.57,-0.36 2.61,-0.05 2.58,0.26 2.55,0.57 2.44,0.87 2.34,1.17 2.34,1.17 L 2.34,1.17 Z"></path></g><g transform="translate(641 465.75) rotate(0 126 -84.5)" stroke="none"><path fill="#1864ab" d="M 0,-1.61 Q 0,-1.61 1.72,-1.65 3.44,-1.70 5.20,-1.98 6.95,-2.25 9.48,-2.61 12.01,-2.97 14.81,-3.39 17.61,-3.81 20.76,-4.55 23.92,-5.28 27.28,-6.16 30.64,-7.03 34.03,-8.25 37.43,-9.46 41.19,-10.84 44.95,-12.22 48.55,-13.66 52.15,-15.10 55.69,-16.57 59.23,-18.05 62.71,-19.80 66.19,-21.56 69.72,-23.18 73.25,-24.81 76.42,-26.62 79.58,-28.43 82.96,-30.36 86.34,-32.29 89.48,-34.24 92.62,-36.20 95.37,-38.17 98.12,-40.13 101.04,-42.13 103.95,-44.13 106.88,-46.39 109.81,-48.66 112.47,-51.04 115.13,-53.42 118.05,-55.62 120.96,-57.83 123.89,-60.18 126.82,-62.53 129.79,-64.97 132.76,-67.40 135.19,-69.31 137.61,-71.22 140.07,-73.17 142.54,-75.13 144.70,-77.09 146.87,-79.04 149.22,-81.31 151.58,-83.57 154.05,-85.71 156.52,-87.86 159.01,-89.92 161.50,-91.98 163.96,-94.26 166.42,-96.54 168.62,-98.67 170.82,-100.79 172.94,-102.59 175.06,-104.38 177.07,-106.26 179.09,-108.14 181.38,-110.38 183.67,-112.62 186.09,-115.00 188.50,-117.39 190.67,-119.56 192.85,-121.72 194.96,-123.54 197.07,-125.35 199.12,-126.99 201.17,-128.63 202.87,-130.15 204.57,-131.68 206.18,-132.96 207.80,-134.25 209.64,-135.63 211.48,-137.02 213.08,-138.44 214.68,-139.85 216.26,-141.10 217.84,-142.35 219.66,-143.71 221.48,-145.07 222.72,-146.46 223.96,-147.84 225.80,-149.12 227.65,-150.40 229.52,-151.75 231.40,-153.10 233.73,-154.30 236.06,-155.50 238.06,-157.07 240.06,-158.63 241.83,-159.92 243.61,-161.20 245.21,-162.35 246.81,-163.50 247.68,-164.33 248.54,-165.16 249.36,-165.90 250.17,-166.63 250.22,-166.57 250.27,-166.51 250.47,-166.64 250.66,-166.77 250.88,-166.85 251.10,-166.93 251.34,-166.96 251.57,-166.99 251.80,-166.96 252.04,-166.93 252.26,-166.84 252.48,-166.76 252.67,-166.62 252.86,-166.49 253.02,-166.31 253.17,-166.13 253.28,-165.92 253.39,-165.71 253.44,-165.49 253.49,-165.26 253.49,-165.02 253.49,-164.79 253.43,-164.56 253.38,-164.33 253.26,-164.12 253.15,-163.92 253.00,-163.74 252.84,-163.57 252.70,-162.10 252.56,-160.63 252.17,-159.38 251.78,-158.12 251.32,-156.92 250.86,-155.72 250.76,-154.63 250.66,-153.54 250.67,-152.99 250.67,-152.44 250.59,-152.13 250.51,-151.82 250.36,-151.54 250.20,-151.26 249.99,-151.02 249.77,-150.79 249.50,-150.61 249.24,-150.43 248.94,-150.33 248.64,-150.22 248.32,-150.19 248.00,-150.15 247.68,-150.20 247.37,-150.24 247.07,-150.36 246.77,-150.48 246.51,-150.67 246.25,-150.85 246.05,-151.10 245.84,-151.34 245.70,-151.62 245.55,-151.91 245.48,-152.22 245.41,-152.53 245.42,-152.85 245.42,-153.17 245.73,-154.56 246.04,-155.95 246.06,-157.09 246.08,-158.24 246.02,-159.75 245.97,-161.26 245.91,-162.76 245.84,-164.26 245.79,-165.76 245.74,-167.26 246.00,-168.29 246.25,-169.33 246.26,-169.00 246.26,-168.68 246.31,-169.08 246.36,-169.47 246.50,-169.85 246.64,-170.22 246.87,-170.55 247.09,-170.87 247.39,-171.14 247.69,-171.40 248.04,-171.59 248.40,-171.77 248.78,-171.87 249.17,-171.96 249.57,-171.96 249.97,-171.96 250.36,-171.87 250.74,-171.77 251.10,-171.59 251.45,-171.40 251.75,-171.14 252.05,-170.87 252.27,-170.55 252.50,-170.22 252.64,-169.84 252.78,-169.47 252.83,-169.08 252.88,-168.68 250.76,-167.29 248.64,-165.90 247.69,-165.21 246.74,-164.51 244.98,-164.14 243.22,-163.76 241.31,-163.42 239.41,-163.07 238.16,-162.64 236.91,-162.21 235.00,-161.34 233.08,-160.48 232.65,-160.37 232.22,-160.27 231.78,-160.30 231.34,-160.34 230.93,-160.51 230.52,-160.69 230.19,-160.98 229.86,-161.28 229.64,-161.66 229.42,-162.05 229.34,-162.48 229.26,-162.92 229.32,-163.36 229.38,-163.80 229.57,-164.19 229.77,-164.59 230.08,-164.91 230.40,-165.22 230.79,-165.42 231.19,-165.61 231.63,-165.67 232.07,-165.73 232.50,-165.65 232.94,-165.57 233.32,-165.35 233.71,-165.13 234.01,-164.80 234.30,-164.47 234.48,-164.06 234.65,-163.66 234.69,-163.22 234.72,-162.77 234.62,-162.34 234.51,-161.91 234.27,-161.54 234.03,-161.17 233.69,-160.89 233.34,-160.61 232.93,-160.46 232.51,-160.31 232.07,-160.29 231.63,-160.28 231.20,-160.41 230.78,-160.54 230.42,-160.80 230.06,-161.06 229.80,-161.42 229.54,-161.78 229.41,-162.20 229.28,-162.62 229.29,-163.07 229.31,-163.51 229.46,-163.93 229.61,-164.34 229.89,-164.69 230.17,-165.03 230.54,-165.27 230.91,-165.51 230.91,-165.51 230.91,-165.51 233.00,-166.37 235.09,-167.24 236.56,-167.79 238.03,-168.34 239.82,-168.96 241.60,-169.57 243.11,-170.11 244.62,-170.64 245.69,-171.05 246.76,-171.46 248.30,-171.64 249.84,-171.82 248.05,-170.25 246.26,-168.68 246.31,-169.08 246.36,-169.47 246.50,-169.85 246.64,-170.22 246.87,-170.55 247.09,-170.87 247.39,-171.14 247.69,-171.40 248.04,-171.59 248.40,-171.77 248.78,-171.87 249.17,-171.96 249.57,-171.96 249.97,-171.96 250.36,-171.87 250.74,-171.77 251.10,-171.59 251.45,-171.40 251.75,-171.14 252.05,-170.87 252.27,-170.55 252.50,-170.22 252.64,-169.85 252.78,-169.47 252.83,-169.08 252.88,-168.68 252.56,-167.97 252.25,-167.26 252.20,-165.75 252.15,-164.25 252.08,-162.73 252.01,-161.21 251.94,-160.13 251.87,-159.04 251.72,-157.68 251.57,-156.32 251.12,-154.38 250.67,-152.44 250.59,-152.13 250.51,-151.82 250.36,-151.54 250.20,-151.26 249.99,-151.02 249.77,-150.79 249.50,-150.61 249.24,-150.43 248.94,-150.33 248.64,-150.22 248.32,-150.19 248.00,-150.15 247.68,-150.20 247.37,-150.24 247.07,-150.36 246.77,-150.48 246.51,-150.67 246.25,-150.85 246.05,-151.10 245.84,-151.34 245.70,-151.62 245.55,-151.91 245.48,-152.22 245.41,-152.53 245.42,-152.85 245.42,-153.17 245.50,-153.71 245.58,-154.25 246.06,-155.90 246.53,-157.56 247.02,-158.58 247.51,-159.61 248.37,-161.63 249.24,-163.66 249.75,-165.08 250.27,-166.51 250.47,-166.64 250.66,-166.77 250.88,-166.85 251.10,-166.93 251.34,-166.96 251.57,-166.99 251.80,-166.96 252.04,-166.93 252.26,-166.84 252.47,-166.76 252.67,-166.62 252.86,-166.49 253.02,-166.31 253.17,-166.13 253.28,-165.92 253.39,-165.71 253.44,-165.49 253.49,-165.26 253.49,-165.02 253.49,-164.79 253.43,-164.56 253.38,-164.33 253.26,-164.12 253.15,-163.92 253.00,-163.74 252.84,-163.57 251.71,-163.07 250.57,-162.57 249.50,-161.88 248.42,-161.19 246.80,-160.11 245.19,-159.03 243.45,-157.77 241.72,-156.50 239.52,-154.79 237.32,-153.07 235.17,-151.96 233.03,-150.85 231.14,-149.46 229.25,-148.07 227.65,-146.98 226.05,-145.88 224.60,-144.38 223.15,-142.87 221.35,-141.49 219.54,-140.12 218.00,-138.98 216.46,-137.85 214.78,-136.36 213.11,-134.87 211.29,-133.48 209.47,-132.09 207.90,-130.91 206.32,-129.72 204.57,-128.15 202.81,-126.57 200.80,-124.97 198.78,-123.36 196.74,-121.61 194.70,-119.86 192.52,-117.69 190.35,-115.53 187.93,-113.13 185.51,-110.73 183.19,-108.48 180.88,-106.22 178.82,-104.30 176.76,-102.38 174.70,-100.64 172.64,-98.90 170.42,-96.76 168.21,-94.62 165.69,-92.29 163.17,-89.95 160.71,-87.91 158.24,-85.87 155.82,-83.77 153.40,-81.68 151.01,-79.38 148.63,-77.09 146.40,-75.08 144.17,-73.07 141.70,-71.11 139.24,-69.15 136.83,-67.26 134.43,-65.37 131.45,-62.92 128.46,-60.48 125.50,-58.11 122.54,-55.73 119.72,-53.59 116.89,-51.45 114.15,-49.01 111.42,-46.58 108.43,-44.27 105.44,-41.96 102.55,-39.97 99.65,-37.98 96.84,-35.97 94.02,-33.96 90.84,-31.98 87.66,-29.99 84.28,-28.06 80.90,-26.13 77.63,-24.26 74.37,-22.40 70.88,-20.78 67.39,-19.17 63.83,-17.37 60.27,-15.57 56.71,-14.08 53.16,-12.59 49.53,-11.12 45.91,-9.65 42.14,-8.25 38.37,-6.84 34.88,-5.56 31.38,-4.29 27.99,-3.36 24.60,-2.43 21.36,-1.62 18.11,-0.81 15.31,-0.31 12.52,0.18 9.99,0.64 7.47,1.10 5.46,1.40 3.45,1.70 1.72,1.65 0,1.61 -0.19,1.59 -0.38,1.56 -0.56,1.49 -0.75,1.42 -0.91,1.31 -1.07,1.20 -1.19,1.06 -1.32,0.91 -1.41,0.74 -1.50,0.57 -1.55,0.38 -1.60,0.19 -1.60,-0.00 -1.60,-0.19 -1.55,-0.38 -1.50,-0.57 -1.41,-0.74 -1.32,-0.91 -1.19,-1.06 -1.07,-1.20 -0.91,-1.31 -0.75,-1.42 -0.56,-1.49 -0.38,-1.56 -0.19,-1.59 0.00,-1.61 0.00,-1.61 L 0,-1.61 Z"></path></g><g transform="translate(353 351.75) rotate(0 45.5 13)"><text x="0" y="18" font-family="Virgil, Segoe UI Emoji" font-size="20px" fill="#1864ab" text-anchor="start" style="white-space: pre;" direction="ltr">Replicate</text></g><g transform="translate(612.5 347.75) rotate(0 45.5 13)"><text x="0" y="18" font-family="Virgil, Segoe UI Emoji" font-size="20px" fill="#1864ab" text-anchor="start" style="white-space: pre;" direction="ltr">Replicate</text></g><g transform="translate(815.5 380.75) rotate(0 45.5 13)"><text x="0" y="18" font-family="Virgil, Segoe UI Emoji" font-size="20px" fill="#1864ab" text-anchor="start" style="white-space: pre;" direction="ltr">Replicate</text></g><g transform="translate(138 173.75) rotate(0 14 26)" stroke="none"><path fill="#1864ab" d="M 1.48,-0.55 Q 1.48,-0.55 2.31,1.75 3.13,4.06 3.78,6.24 4.42,8.42 5.51,10.98 6.61,13.54 7.68,16.73 8.74,19.92 10.29,22.88 11.84,25.84 13.66,29.14 15.47,32.45 17.36,35.24 19.26,38.04 20.93,40.39 22.60,42.73 23.87,44.26 25.15,45.80 26.11,47.04 27.07,48.28 28.23,49.59 29.40,50.89 29.53,51.15 29.67,51.40 29.73,51.68 29.78,51.97 29.73,52.25 29.69,52.54 29.56,52.79 29.43,53.05 29.23,53.25 29.02,53.45 28.76,53.58 28.50,53.70 28.21,53.74 27.93,53.78 27.65,53.72 27.36,53.66 27.11,53.52 26.86,53.37 26.67,53.16 26.48,52.94 26.37,52.67 26.26,52.41 26.24,52.12 26.22,51.83 26.29,51.55 26.37,51.27 26.52,51.03 26.68,50.79 26.91,50.61 27.13,50.43 27.41,50.34 27.68,50.24 27.97,50.24 28.25,50.23 28.53,50.32 28.80,50.41 29.04,50.58 29.27,50.75 29.43,50.98 29.60,51.22 29.68,51.50 29.76,51.77 29.75,52.06 29.74,52.35 29.64,52.62 29.54,52.89 29.35,53.11 29.17,53.33 28.93,53.49 28.68,53.64 28.40,53.71 28.12,53.77 27.83,53.75 27.55,53.72 27.28,53.60 27.02,53.49 26.81,53.29 26.59,53.10 26.59,53.10 26.59,53.10 25.52,51.56 24.45,50.03 23.74,48.78 23.03,47.53 21.73,45.91 20.42,44.28 18.73,41.91 17.03,39.54 15.07,36.65 13.11,33.76 11.26,30.43 9.42,27.11 7.77,23.96 6.11,20.82 5.06,17.74 4.01,14.67 2.82,11.98 1.64,9.28 0.97,7.20 0.31,5.13 -0.58,2.84 -1.48,0.55 -1.52,0.37 -1.57,0.18 -1.57,-0.00 -1.57,-0.19 -1.52,-0.38 -1.47,-0.56 -1.38,-0.73 -1.30,-0.90 -1.17,-1.04 -1.04,-1.18 -0.88,-1.29 -0.73,-1.40 -0.55,-1.47 -0.37,-1.53 -0.18,-1.56 0.00,-1.58 0.19,-1.56 0.38,-1.53 0.56,-1.46 0.74,-1.39 0.89,-1.29 1.05,-1.18 1.18,-1.03 1.30,-0.89 1.39,-0.72 1.48,-0.55 1.48,-0.55 L 1.48,-0.55 Z"></path></g><g transform="translate(561 145.75) rotate(0 11.5 36.5)" stroke="none"><path fill="#1864ab" d="M 1.48,-0.74 Q 1.48,-0.74 2.35,0.98 3.21,2.70 3.92,4.34 4.64,5.97 5.47,7.41 6.30,8.85 7.21,10.70 8.12,12.54 9.37,15.70 10.61,18.85 12.26,22.75 13.90,26.64 15.46,30.62 17.02,34.61 17.99,38.39 18.96,42.18 19.91,45.15 20.87,48.12 21.57,50.57 22.27,53.03 22.58,55.31 22.89,57.59 23.30,59.62 23.70,61.66 23.91,63.77 24.11,65.87 24.26,67.62 24.40,69.38 24.57,71.16 24.73,72.94 24.69,73.22 24.65,73.50 24.53,73.75 24.41,74.00 24.21,74.20 24.01,74.40 23.76,74.53 23.51,74.65 23.23,74.69 22.96,74.73 22.68,74.68 22.40,74.63 22.16,74.49 21.91,74.35 21.73,74.14 21.54,73.93 21.43,73.68 21.31,73.42 21.29,73.14 21.27,72.86 21.33,72.59 21.40,72.32 21.55,72.08 21.70,71.84 21.92,71.67 22.14,71.49 22.40,71.39 22.66,71.29 22.94,71.28 23.22,71.28 23.49,71.36 23.76,71.44 23.99,71.60 24.22,71.76 24.38,71.99 24.55,72.22 24.63,72.49 24.71,72.75 24.71,73.03 24.70,73.32 24.60,73.58 24.51,73.84 24.33,74.06 24.16,74.28 23.92,74.43 23.69,74.59 23.41,74.65 23.14,74.72 22.86,74.70 22.58,74.68 22.32,74.57 22.07,74.46 21.86,74.27 21.65,74.09 21.51,73.84 21.37,73.60 21.32,73.32 21.26,73.05 21.26,73.05 21.26,73.05 21.31,71.28 21.36,69.51 21.36,67.81 21.36,66.11 21.21,64.15 21.06,62.19 20.63,60.07 20.21,57.95 19.92,55.87 19.64,53.79 18.93,51.38 18.22,48.98 17.21,45.94 16.20,42.89 15.25,39.29 14.30,35.69 12.70,31.77 11.11,27.85 9.38,23.96 7.65,20.07 6.37,17.09 5.09,14.11 4.13,12.35 3.17,10.58 2.29,8.94 1.42,7.30 0.82,5.74 0.23,4.19 -0.62,2.46 -1.48,0.74 -1.55,0.55 -1.62,0.36 -1.64,0.16 -1.66,-0.03 -1.63,-0.23 -1.60,-0.43 -1.53,-0.61 -1.45,-0.80 -1.34,-0.96 -1.22,-1.12 -1.07,-1.25 -0.91,-1.38 -0.73,-1.47 -0.55,-1.56 -0.36,-1.61 -0.16,-1.65 0.03,-1.65 0.23,-1.64 0.42,-1.59 0.62,-1.54 0.79,-1.44 0.97,-1.35 1.11,-1.21 1.26,-1.07 1.37,-0.91 1.48,-0.74 1.48,-0.74 L 1.48,-0.74 Z"></path></g><g transform="translate(938 146.75) rotate(0 6.5 28.5)" stroke="none"><path fill="#1864ab" d="M 1.68,0 Q 1.68,0 1.72,1.72 1.76,3.44 1.80,5.04 1.85,6.63 2.12,8.32 2.39,10.01 2.76,11.89 3.13,13.78 3.80,16.27 4.47,18.77 5.33,22.18 6.18,25.60 7.11,29.35 8.03,33.10 8.98,36.39 9.93,39.69 10.62,42.26 11.31,44.84 11.90,46.77 12.49,48.70 12.86,50.17 13.23,51.63 14.00,54.13 14.77,56.62 14.78,56.91 14.79,57.20 14.71,57.48 14.63,57.77 14.47,58.01 14.30,58.25 14.07,58.42 13.83,58.60 13.55,58.69 13.28,58.78 12.98,58.78 12.69,58.78 12.41,58.68 12.14,58.59 11.90,58.41 11.67,58.23 11.51,57.99 11.35,57.74 11.27,57.46 11.19,57.18 11.21,56.89 11.23,56.59 11.34,56.32 11.45,56.05 11.64,55.83 11.83,55.61 12.08,55.46 12.34,55.31 12.62,55.25 12.91,55.19 13.20,55.22 13.49,55.25 13.76,55.38 14.02,55.50 14.23,55.71 14.44,55.91 14.58,56.17 14.71,56.43 14.76,56.72 14.81,57.01 14.76,57.30 14.71,57.59 14.57,57.84 14.43,58.10 14.21,58.30 14.00,58.50 13.73,58.62 13.47,58.74 13.18,58.77 12.88,58.80 12.60,58.74 12.31,58.67 12.06,58.52 11.81,58.37 11.63,58.14 11.44,57.92 11.33,57.64 11.22,57.37 11.22,57.37 11.22,57.37 10.62,54.79 10.02,52.21 9.89,50.87 9.76,49.52 9.18,47.55 8.60,45.59 7.88,43.05 7.16,40.51 6.15,37.17 5.14,33.84 4.15,30.12 3.17,26.40 2.23,23.05 1.30,19.70 0.48,17.11 -0.34,14.52 -0.79,12.55 -1.24,10.58 -1.55,8.61 -1.85,6.64 -1.80,5.04 -1.76,3.44 -1.72,1.72 -1.68,0 -1.66,-0.20 -1.63,-0.40 -1.56,-0.59 -1.49,-0.78 -1.37,-0.95 -1.26,-1.11 -1.11,-1.25 -0.95,-1.38 -0.77,-1.48 -0.59,-1.57 -0.40,-1.62 -0.20,-1.67 0.00,-1.67 0.20,-1.67 0.40,-1.62 0.59,-1.57 0.77,-1.48 0.95,-1.38 1.11,-1.25 1.26,-1.11 1.37,-0.95 1.49,-0.78 1.56,-0.59 1.63,-0.40 1.66,-0.20 1.68,0.00 1.68,0.00 L 1.68,0 Z"></path></g><g transform="translate(179 173.75) rotate(0 18 13)"><text x="0" y="18" font-family="Virgil, Segoe UI Emoji" font-size="20px" fill="#1864ab" text-anchor="start" style="white-space: pre;" direction="ltr">Pull</text></g><g transform="translate(597 162.75) rotate(0 18 13)"><text x="0" y="18" font-family="Virgil, Segoe UI Emoji" font-size="20px" fill="#1864ab" text-anchor="start" style="white-space: pre;" direction="ltr">Pull</text></g><g transform="translate(970 154.75) rotate(0 18 13)"><text x="0" y="18" font-family="Virgil, Segoe UI Emoji" font-size="20px" fill="#1864ab" text-anchor="start" style="white-space: pre;" direction="ltr">Pull</text></g><g transform="translate(593 677.75) rotate(0 -14.5 33)" stroke="none"><path fill="#1864ab" d="M -0.26,1.57 Q -0.26,1.57 -1.99,1.32 -3.72,1.08 -5.80,0.91 -7.88,0.75 -11.13,0.37 -14.39,0.00 -19.48,-0.45 -24.57,-0.91 -32.16,-1.11 -39.75,-1.31 -50.15,-1.11 -60.55,-0.92 -71.82,0.30 -83.09,1.52 -93.90,3.47 -104.70,5.42 -112.07,8.23 -119.44,11.03 -124.19,14.45 -128.94,17.86 -131.42,22.03 -133.91,26.19 -134.40,29.75 -134.89,33.31 -133.19,36.33 -131.50,39.35 -126.33,42.87 -121.17,46.39 -108.68,51.07 -96.20,55.74 -77.72,59.17 -59.24,62.59 -37.07,62.90 -14.91,63.21 6.55,61.05 28.02,58.89 45.43,54.82 62.84,50.75 74.50,46.45 86.17,42.15 92.76,38.08 99.36,34.01 102.02,30.79 104.68,27.57 104.41,25.11 104.14,22.65 101.33,20.30 98.52,17.94 92.25,15.18 85.98,12.43 79.29,10.38 72.60,8.32 66.92,7.17 61.23,6.01 57.68,5.52 54.13,5.03 51.49,4.82 48.85,4.62 46.87,4.49 44.89,4.37 44.67,4.32 44.45,4.26 44.27,4.14 44.08,4.02 43.94,3.85 43.80,3.68 43.72,3.47 43.64,3.26 43.64,3.04 43.63,2.81 43.69,2.60 43.76,2.39 43.89,2.20 44.02,2.02 44.20,1.89 44.38,1.76 44.59,1.70 44.81,1.63 45.03,1.64 45.25,1.64 45.46,1.72 45.67,1.79 45.84,1.93 46.02,2.07 46.14,2.26 46.26,2.45 46.31,2.66 46.37,2.88 46.35,3.10 46.33,3.32 46.25,3.53 46.16,3.73 46.01,3.90 45.86,4.07 45.67,4.18 45.47,4.29 45.25,4.33 45.04,4.37 44.81,4.34 44.59,4.31 44.39,4.21 44.19,4.12 44.04,3.96 43.88,3.80 43.78,3.60 43.68,3.40 43.65,3.18 43.62,2.96 43.66,2.74 43.70,2.52 43.81,2.33 43.92,2.13 44.08,1.98 44.25,1.84 44.46,1.75 44.66,1.66 44.88,1.64 45.10,1.62 45.10,1.62 45.10,1.62 47.08,1.81 49.06,2.00 51.77,2.21 54.49,2.43 58.12,2.93 61.75,3.44 67.56,4.63 73.37,5.81 80.21,7.92 87.04,10.03 93.65,13.00 100.25,15.97 103.38,18.97 106.52,21.97 106.69,25.34 106.87,28.72 103.82,32.47 100.77,36.21 93.93,40.41 87.09,44.62 75.26,48.96 63.44,53.31 45.86,57.41 28.28,61.50 6.66,63.67 -14.94,65.84 -37.33,65.51 -59.71,65.18 -78.42,61.70 -97.12,58.21 -109.89,53.39 -122.66,48.57 -128.20,44.62 -133.74,40.68 -135.60,36.96 -137.46,33.24 -136.83,29.07 -136.21,24.89 -133.38,20.32 -130.55,15.75 -125.48,12.14 -120.41,8.54 -112.80,5.65 -105.19,2.76 -94.29,0.78 -83.39,-1.19 -72.00,-2.44 -60.60,-3.69 -50.14,-3.92 -39.68,-4.14 -32.00,-3.97 -24.32,-3.81 -19.20,-3.40 -14.07,-2.99 -10.89,-2.69 -7.70,-2.39 -5.43,-2.31 -3.17,-2.23 -1.45,-1.90 0.26,-1.57 0.44,-1.51 0.62,-1.46 0.79,-1.36 0.96,-1.26 1.09,-1.13 1.23,-1.00 1.33,-0.83 1.44,-0.67 1.50,-0.49 1.56,-0.31 1.57,-0.12 1.59,0.07 1.55,0.25 1.52,0.44 1.45,0.62 1.37,0.80 1.25,0.95 1.14,1.10 0.99,1.22 0.84,1.34 0.67,1.43 0.49,1.51 0.30,1.54 0.12,1.58 -0.07,1.57 -0.26,1.57 -0.26,1.57 L -0.26,1.57 Z"></path></g><g transform="translate(526 693.75) rotate(0 62 13)"><text x="0" y="18" font-family="Virgil, Segoe UI Emoji" font-size="20px" fill="#1864ab" text-anchor="start" style="white-space: pre;" direction="ltr">Build system</text></g><g transform="translate(564 663.75) rotate(0 -4.5 -62)" stroke="none"><path fill="#1864ab" d="M -1.55,-0.17 Q -1.55,-0.17 -1.23,-2.75 -0.91,-5.33 -0.76,-8.39 -0.62,-11.45 -0.55,-15.06 -0.48,-18.66 -0.45,-24.22 -0.41,-29.77 -0.39,-36.74 -0.37,-43.70 -0.93,-51.21 -1.50,-58.72 -2.31,-65.64 -3.12,-72.56 -3.75,-77.82 -4.38,-83.07 -4.93,-86.72 -5.48,-90.37 -5.72,-93.71 -5.96,-97.04 -6.63,-100.07 -7.29,-103.10 -7.86,-105.57 -8.43,-108.03 -9.22,-110.16 -10.02,-112.28 -10.70,-114.07 -11.39,-115.87 -11.77,-117.60 -12.14,-119.33 -12.29,-120.72 -12.43,-122.10 -12.68,-122.47 -12.94,-122.84 -12.92,-123.08 -12.91,-123.32 -12.84,-123.55 -12.77,-123.77 -12.65,-123.98 -12.53,-124.18 -12.36,-124.35 -12.20,-124.52 -11.99,-124.65 -11.79,-124.77 -11.56,-124.85 -11.34,-124.92 -11.10,-124.93 -10.86,-124.95 -10.63,-124.91 -10.39,-124.87 -10.18,-124.77 -9.96,-124.68 -9.77,-124.53 -9.58,-124.39 -9.43,-124.20 -9.28,-124.01 -9.18,-123.80 -9.08,-123.58 -9.04,-123.35 -8.99,-123.11 -9.21,-121.19 -9.42,-119.27 -10.18,-117.90 -10.94,-116.54 -11.84,-114.97 -12.75,-113.40 -13.78,-111.61 -14.81,-109.82 -15.52,-108.03 -16.23,-106.24 -16.78,-104.78 -17.33,-103.31 -17.54,-102.43 -17.76,-101.54 -17.86,-101.30 -17.96,-101.06 -18.11,-100.85 -18.27,-100.64 -18.47,-100.47 -18.67,-100.31 -18.90,-100.19 -19.14,-100.08 -19.39,-100.02 -19.65,-99.97 -19.91,-99.98 -20.17,-99.99 -20.42,-100.06 -20.67,-100.13 -20.90,-100.25 -21.12,-100.38 -21.31,-100.56 -21.50,-100.74 -21.64,-100.96 -21.79,-101.18 -21.87,-101.43 -21.96,-101.67 -21.98,-101.93 -22.00,-102.19 -21.96,-102.45 -21.92,-102.71 -21.33,-104.07 -20.74,-105.44 -19.94,-107.05 -19.13,-108.66 -18.55,-110.11 -17.97,-111.56 -17.40,-113.25 -16.83,-114.95 -16.30,-116.59 -15.76,-118.23 -15.63,-119.37 -15.49,-120.50 -15.10,-121.83 -14.71,-123.15 -13.24,-123.92 -11.78,-124.69 -10.47,-124.28 -9.17,-123.87 -7.89,-122.55 -6.60,-121.23 -5.41,-119.90 -4.21,-118.56 -2.70,-117.12 -1.18,-115.68 0.75,-114.52 2.70,-113.37 4.71,-112.24 6.73,-111.11 9.15,-110.46 11.57,-109.81 11.84,-109.67 12.12,-109.53 12.33,-109.31 12.55,-109.09 12.68,-108.82 12.82,-108.54 12.86,-108.24 12.90,-107.93 12.84,-107.63 12.78,-107.33 12.62,-107.06 12.47,-106.79 12.24,-106.59 12.01,-106.38 11.72,-106.26 11.44,-106.15 11.13,-106.12 10.83,-106.10 10.53,-106.18 10.23,-106.25 9.97,-106.42 9.71,-106.59 9.52,-106.83 9.33,-107.07 9.23,-107.36 9.12,-107.65 9.12,-107.96 9.11,-108.27 9.20,-108.56 9.30,-108.85 9.48,-109.10 9.66,-109.35 9.91,-109.53 10.16,-109.71 10.46,-109.79 10.75,-109.88 11.06,-109.87 11.37,-109.86 11.66,-109.75 11.94,-109.64 12.18,-109.45 12.42,-109.26 12.58,-108.99 12.75,-108.73 12.82,-108.43 12.89,-108.14 12.87,-107.83 12.84,-107.52 12.71,-107.24 12.59,-106.96 12.38,-106.73 12.18,-106.50 11.91,-106.35 11.64,-106.20 11.34,-106.15 11.03,-106.09 10.73,-106.14 10.42,-106.18 10.42,-106.18 10.42,-106.18 7.79,-107.12 5.15,-108.07 3.03,-109.09 0.92,-110.11 -1.44,-111.32 -3.81,-112.52 -5.68,-113.93 -7.55,-115.33 -9.35,-117.54 -11.15,-119.74 -11.45,-118.35 -11.76,-116.95 -12.26,-115.34 -12.77,-113.72 -13.29,-111.82 -13.81,-109.92 -14.43,-108.32 -15.05,-106.72 -15.73,-105.20 -16.41,-103.69 -17.08,-102.62 -17.76,-101.54 -17.86,-101.30 -17.96,-101.06 -18.11,-100.85 -18.27,-100.64 -18.47,-100.47 -18.67,-100.31 -18.90,-100.19 -19.14,-100.08 -19.39,-100.02 -19.65,-99.97 -19.91,-99.98 -20.17,-99.99 -20.42,-100.06 -20.67,-100.13 -20.90,-100.25 -21.12,-100.38 -21.31,-100.56 -21.50,-100.74 -21.64,-100.96 -21.79,-101.18 -21.87,-101.43 -21.96,-101.67 -21.98,-101.93 -22.00,-102.19 -21.96,-102.45 -21.92,-102.71 -21.43,-103.76 -20.94,-104.81 -20.33,-106.15 -19.72,-107.48 -19.05,-109.56 -18.38,-111.64 -17.52,-113.56 -16.67,-115.47 -15.83,-117.20 -14.99,-118.94 -13.96,-120.89 -12.94,-122.84 -12.92,-123.08 -12.91,-123.32 -12.84,-123.54 -12.77,-123.77 -12.65,-123.98 -12.53,-124.18 -12.36,-124.35 -12.20,-124.52 -11.99,-124.65 -11.79,-124.77 -11.56,-124.85 -11.34,-124.92 -11.10,-124.93 -10.86,-124.95 -10.63,-124.91 -10.39,-124.87 -10.18,-124.77 -9.96,-124.68 -9.77,-124.53 -9.58,-124.39 -9.43,-124.20 -9.28,-124.02 -9.18,-123.80 -9.08,-123.58 -9.04,-123.35 -8.99,-123.11 -9.21,-123.46 -9.42,-123.81 -9.23,-121.83 -9.05,-119.85 -8.88,-118.33 -8.72,-116.80 -8.14,-115.00 -7.55,-113.20 -6.71,-110.92 -5.86,-108.63 -5.28,-106.15 -4.71,-103.66 -4.02,-100.45 -3.33,-97.24 -3.09,-94.00 -2.86,-90.77 -2.30,-87.08 -1.73,-83.39 -1.09,-78.13 -0.46,-72.88 0.36,-65.90 1.19,-58.92 1.76,-51.31 2.34,-43.70 2.34,-36.73 2.34,-29.76 2.34,-24.19 2.33,-18.62 2.29,-14.98 2.26,-11.34 2.16,-8.17 2.06,-5.01 1.80,-2.41 1.55,0.17 1.50,0.35 1.46,0.53 1.38,0.70 1.29,0.87 1.17,1.01 1.04,1.15 0.89,1.26 0.73,1.37 0.56,1.44 0.38,1.51 0.20,1.53 0.01,1.56 -0.17,1.54 -0.35,1.52 -0.53,1.45 -0.71,1.39 -0.86,1.28 -1.02,1.17 -1.15,1.04 -1.27,0.90 -1.36,0.73 -1.45,0.56 -1.50,0.38 -1.54,0.20 -1.55,0.01 -1.55,-0.17 -1.55,-0.17 L -1.55,-0.17 Z"></path></g><g transform="translate(588 583.75) rotate(0 23 13)"><text x="0" y="18" font-family="Virgil, Segoe UI Emoji" font-size="20px" fill="#1864ab" text-anchor="start" style="white-space: pre;" direction="ltr">Push</text></g></svg>