<svg version="1.1" xmlns="http://www.w3.org/2000/svg" viewBox="0 0 1668 504.5" width="5004" height="1513.5">
  <!-- svg-source:excalidraw -->
  
  <defs>
    <style>
      @font-face {
        font-family: "Virgil";
        src: url("https://excalidraw.com/Virgil.woff2");
      }
      @font-face {
        font-family: "Cascadia";
        src: url("https://excalidraw.com/Cascadia.woff2");
      }
    </style>
  </defs>
  <g transform="translate(484 16) rotate(0 115.5 43.5)" stroke="none"><path fill="#364fc7" d="M -0.26,-1.57 Q -0.26,-1.57 1.45,-1.90 3.17,-2.23 5.43,-2.31 7.70,-2.39 10.37,-2.41 13.05,-2.42 15.91,-2.42 18.77,-2.42 21.93,-2.69 25.10,-2.97 28.81,-3.08 32.52,-3.20 36.93,-3.52 41.33,-3.85 46.13,-3.99 50.92,-4.13 56.08,-4.47 61.24,-4.82 65.77,-4.96 70.29,-5.11 74.47,-5.45 78.66,-5.80 82.78,-5.95 86.90,-6.10 90.32,-6.44 93.74,-6.79 96.97,-6.94 100.21,-7.09 103.60,-7.16 106.99,-7.22 110.15,-7.24 113.32,-7.27 116.39,-7.28 119.46,-7.29 122.77,-7.30 126.09,-7.30 129.51,-7.30 132.94,-7.31 136.12,-7.31 139.30,-7.31 143.00,-7.02 146.70,-6.73 150.52,-6.61 154.34,-6.49 158.27,-6.44 162.19,-6.39 166.16,-6.36 170.13,-6.34 174.12,-6.33 178.10,-6.32 181.76,-6.60 185.41,-6.89 188.74,-7.01 192.07,-7.13 195.21,-7.18 198.35,-7.23 201.12,-7.25 203.89,-7.28 206.22,-7.29 208.55,-7.29 210.40,-7.36 212.26,-7.42 213.33,-7.54 214.40,-7.66 216.19,-7.46 217.98,-7.25 219.42,-5.52 220.86,-3.79 221.50,-1.15 222.14,1.48 222.35,3.51 222.56,5.55 222.62,8.29 222.68,11.02 222.94,13.51 223.21,15.99 223.58,18.79 223.96,21.59 224.11,24.30 224.26,27.00 224.59,29.80 224.92,32.60 225.34,35.52 225.76,38.44 226.22,41.11 226.67,43.78 227.15,46.05 227.62,48.32 228.10,50.43 228.59,52.55 229.08,54.59 229.57,56.64 230.13,58.33 230.68,60.03 230.94,62.03 231.21,64.03 231.36,65.74 231.52,67.44 231.65,68.74 231.78,70.04 232.12,71.27 232.47,72.50 232.82,74.48 233.18,76.46 233.31,77.85 233.44,79.24 233.07,80.33 232.70,81.42 231.13,82.99 229.55,84.56 227.89,84.97 226.23,85.39 224.63,85.68 223.02,85.98 220.67,86.01 218.33,86.03 216.22,85.99 214.11,85.95 211.77,85.88 209.44,85.81 207.01,85.75 204.58,85.69 201.83,85.64 199.07,85.59 196.46,85.56 193.85,85.52 191.02,85.49 188.18,85.46 185.25,85.44 182.33,85.42 179.42,85.69 176.52,85.96 173.20,86.07 169.89,86.19 166.76,86.23 163.63,86.27 160.34,86.58 157.05,86.88 153.58,87.01 150.12,87.14 146.63,87.19 143.15,87.24 139.42,87.55 135.68,87.86 132.04,87.99 128.39,88.12 124.88,88.46 121.37,88.80 118.10,88.95 114.83,89.10 112.07,89.44 109.31,89.78 106.64,89.94 103.96,90.09 101.38,90.15 98.81,90.22 96.35,90.53 93.89,90.83 91.33,90.97 88.78,91.11 86.33,91.45 83.88,91.79 81.32,91.94 78.77,92.09 76.54,92.15 74.30,92.22 71.91,92.24 69.53,92.27 67.15,92.56 64.77,92.86 62.25,92.99 59.73,93.12 57.22,93.17 54.71,93.23 51.91,93.25 49.12,93.27 46.78,93.28 44.45,93.29 42.02,93.30 39.59,93.30 37.41,93.30 35.22,93.31 33.14,93.32 31.07,93.33 29.32,93.40 27.58,93.48 26.12,93.83 24.65,94.18 23.04,94.38 21.42,94.58 19.45,94.83 17.49,95.08 15.89,95.23 14.30,95.37 12.66,95.48 11.02,95.58 8.79,95.23 6.57,94.87 5.72,93.98 4.88,93.09 4.14,91.08 3.39,89.07 2.89,86.66 2.38,84.26 2.34,82.74 2.30,81.22 2.05,79.98 1.80,78.73 1.64,77.40 1.48,76.07 1.43,74.60 1.38,73.13 1.38,71.66 1.37,70.18 1.35,68.98 1.33,67.78 1.33,66.40 1.34,65.03 1.32,63.87 1.30,62.71 1.31,61.35 1.32,60.00 1.30,58.85 1.29,57.70 1.08,56.28 0.87,54.86 0.77,53.18 0.66,51.50 0.62,49.92 0.59,48.33 0.58,46.80 0.57,45.26 0.62,43.46 0.68,41.66 0.65,40.32 0.62,38.98 0.58,37.83 0.53,36.69 0.52,35.34 0.51,33.99 0.51,32.55 0.51,31.12 0.48,29.93 0.45,28.75 0.42,27.67 0.39,26.59 0.31,25.24 0.23,23.89 0.62,22.15 1.01,20.42 0.96,19.05 0.92,17.69 0.91,16.09 0.90,14.48 0.99,13.99 1.07,13.50 1.31,13.05 1.54,12.61 1.91,12.27 2.27,11.93 2.73,11.72 3.18,11.52 3.68,11.46 4.18,11.41 4.66,11.52 5.15,11.63 5.58,11.89 6.00,12.15 6.33,12.53 6.65,12.92 6.83,13.38 7.01,13.85 7.04,14.35 7.06,14.85 6.92,15.33 6.79,15.81 6.51,16.22 6.22,16.63 5.82,16.93 5.43,17.23 4.95,17.39 4.48,17.55 3.98,17.54 3.48,17.54 3.00,17.38 2.53,17.22 2.14,16.91 1.74,16.61 1.46,16.19 1.18,15.78 1.05,15.30 0.92,14.81 0.95,14.31 0.98,13.82 1.17,13.35 1.35,12.89 1.68,12.51 2.01,12.13 2.44,11.88 2.86,11.62 3.35,11.52 3.84,11.41 4.34,11.47 4.83,11.52 5.29,11.74 5.74,11.95 6.10,12.29 6.46,12.64 6.69,13.08 6.92,13.53 7.00,14.02 7.08,14.51 7.08,14.51 7.08,14.51 7.04,16.22 7.01,17.93 6.87,19.28 6.73,20.62 6.25,22.25 5.76,23.89 5.68,25.24 5.60,26.59 5.57,27.67 5.54,28.75 5.51,29.93 5.48,31.12 5.48,32.55 5.48,33.99 5.47,35.33 5.46,36.68 5.42,37.82 5.39,38.96 5.36,40.30 5.34,41.63 5.42,43.41 5.49,45.19 5.52,46.68 5.56,48.16 5.62,49.63 5.69,51.10 5.83,52.54 5.97,53.97 6.34,55.83 6.71,57.69 6.69,58.84 6.68,59.99 6.69,61.35 6.70,62.70 6.68,63.85 6.67,65.01 6.68,66.37 6.69,67.73 6.69,68.91 6.69,70.09 6.73,71.50 6.78,72.91 6.84,74.19 6.91,75.46 7.01,76.53 7.12,77.59 7.50,79.27 7.88,80.95 8.08,83.27 8.27,85.59 8.61,87.39 8.95,89.19 9.98,89.80 11.01,90.41 12.64,90.51 14.28,90.60 15.83,90.72 17.39,90.84 19.26,90.95 21.14,91.05 22.61,91.01 24.08,90.96 25.83,90.74 27.57,90.51 29.32,90.58 31.07,90.66 33.14,90.67 35.22,90.68 37.40,90.68 39.58,90.68 42.01,90.67 44.44,90.67 46.77,90.66 49.10,90.65 51.87,90.62 54.65,90.60 57.12,90.55 59.59,90.50 62.02,90.37 64.46,90.25 66.98,89.95 69.50,89.64 71.86,89.62 74.23,89.59 76.42,89.53 78.62,89.47 81.07,89.33 83.52,89.18 86.08,88.83 88.64,88.49 91.10,88.36 93.56,88.23 96.15,87.91 98.74,87.59 101.28,87.52 103.81,87.46 106.40,87.32 108.99,87.17 111.85,86.82 114.72,86.46 117.92,86.32 121.12,86.17 124.70,85.83 128.29,85.48 131.88,85.35 135.47,85.21 139.29,84.90 143.10,84.58 146.56,84.52 150.02,84.47 153.41,84.33 156.80,84.20 160.19,83.88 163.58,83.56 166.68,83.50 169.78,83.44 173.02,83.31 176.25,83.18 179.29,82.87 182.32,82.57 185.25,82.55 188.18,82.53 191.02,82.50 193.85,82.47 196.46,82.42 199.06,82.38 201.81,82.32 204.56,82.26 206.98,82.18 209.39,82.09 211.68,81.96 213.97,81.83 215.98,81.66 217.99,81.48 219.92,81.19 221.86,80.89 223.55,80.43 225.25,79.97 226.88,79.50 228.52,79.03 228.59,77.87 228.65,76.72 228.64,75.02 228.63,73.33 228.36,71.74 228.10,70.16 228.15,68.89 228.20,67.62 228.18,66.00 228.16,64.38 228.00,62.61 227.84,60.84 227.39,59.06 226.94,57.28 226.44,55.22 225.94,53.16 225.43,51.03 224.92,48.90 224.42,46.58 223.91,44.27 223.42,41.57 222.92,38.87 222.45,35.93 221.98,32.98 221.58,30.10 221.18,27.21 220.96,24.65 220.74,22.09 220.24,19.28 219.74,16.47 219.30,13.86 218.87,11.24 218.62,8.76 218.37,6.27 217.87,4.13 217.36,1.99 217.28,0.80 217.19,-0.39 216.96,-1.73 216.73,-3.07 215.57,-3.69 214.41,-4.32 213.34,-4.44 212.26,-4.56 210.41,-4.61 208.56,-4.67 206.24,-4.66 203.92,-4.65 201.15,-4.63 198.39,-4.61 195.28,-4.56 192.16,-4.50 188.89,-4.39 185.61,-4.27 181.86,-3.98 178.10,-3.70 174.11,-3.70 170.11,-3.71 166.14,-3.74 162.16,-3.76 158.21,-3.81 154.26,-3.86 150.38,-3.99 146.49,-4.11 142.89,-4.39 139.30,-4.68 136.12,-4.68 132.94,-4.68 129.52,-4.68 126.10,-4.67 122.78,-4.67 119.47,-4.66 116.40,-4.65 113.34,-4.64 110.19,-4.61 107.04,-4.58 103.68,-4.52 100.33,-4.46 97.17,-4.31 94.01,-4.16 90.50,-3.81 87.00,-3.45 82.94,-3.30 78.88,-3.15 74.63,-2.80 70.38,-2.44 65.90,-2.29 61.42,-2.14 56.21,-1.78 51.00,-1.43 46.27,-1.28 41.54,-1.13 37.08,-0.77 32.62,-0.42 28.99,-0.28 25.36,-0.15 22.08,0.16 18.79,0.48 15.95,0.53 13.11,0.58 10.49,0.67 7.87,0.75 5.80,0.91 3.72,1.08 1.99,1.32 0.26,1.57 0.07,1.57 -0.12,1.58 -0.30,1.54 -0.49,1.51 -0.67,1.43 -0.84,1.34 -0.99,1.22 -1.14,1.10 -1.25,0.95 -1.37,0.80 -1.45,0.62 -1.52,0.44 -1.55,0.25 -1.59,0.07 -1.57,-0.12 -1.56,-0.31 -1.50,-0.49 -1.44,-0.67 -1.33,-0.83 -1.23,-1.00 -1.09,-1.13 -0.96,-1.26 -0.79,-1.36 -0.62,-1.46 -0.44,-1.51 -0.26,-1.57 -0.26,-1.57 L -0.26,-1.57 Z"></path></g><g transform="translate(503 40) rotate(0 96.5 18)"><text x="0" y="25" font-family="Virgil, Segoe UI Emoji" font-size="28px" fill="#364fc7" text-anchor="start" style="white-space: pre;" direction="ltr">buy character</text></g><g transform="translate(496.5 139.5) rotate(0 115.5 43.5)" stroke="none"><path fill="#364fc7" d="M -0.26,-1.57 Q -0.26,-1.57 1.45,-1.90 3.17,-2.23 5.43,-2.31 7.70,-2.39 10.37,-2.41 13.05,-2.42 15.91,-2.42 18.77,-2.42 21.93,-2.69 25.10,-2.97 28.81,-3.08 32.52,-3.20 36.93,-3.52 41.33,-3.85 46.13,-3.99 50.92,-4.13 56.08,-4.47 61.24,-4.82 65.77,-4.96 70.29,-5.11 74.47,-5.45 78.66,-5.80 82.78,-5.95 86.90,-6.10 90.32,-6.44 93.74,-6.79 96.97,-6.94 100.21,-7.09 103.60,-7.16 106.99,-7.22 110.15,-7.24 113.32,-7.27 116.39,-7.28 119.46,-7.29 122.77,-7.30 126.09,-7.30 129.51,-7.30 132.94,-7.31 136.12,-7.31 139.30,-7.31 143.00,-7.02 146.70,-6.73 150.52,-6.61 154.34,-6.49 158.27,-6.44 162.19,-6.39 166.16,-6.36 170.13,-6.34 174.12,-6.33 178.10,-6.32 181.76,-6.60 185.41,-6.89 188.74,-7.01 192.07,-7.13 195.21,-7.18 198.35,-7.23 201.12,-7.25 203.89,-7.28 206.22,-7.29 208.55,-7.29 210.40,-7.36 212.26,-7.42 213.33,-7.54 214.40,-7.66 216.19,-7.46 217.98,-7.25 219.42,-5.52 220.86,-3.79 221.50,-1.15 222.14,1.48 222.35,3.51 222.56,5.55 222.62,8.29 222.68,11.02 222.94,13.51 223.21,15.99 223.58,18.79 223.96,21.59 224.11,24.30 224.26,27.00 224.59,29.80 224.92,32.60 225.34,35.52 225.76,38.44 226.22,41.11 226.67,43.78 227.15,46.05 227.62,48.32 228.10,50.43 228.59,52.55 229.08,54.59 229.57,56.64 230.13,58.33 230.68,60.03 230.94,62.03 231.21,64.03 231.36,65.74 231.52,67.44 231.65,68.74 231.78,70.04 232.12,71.27 232.47,72.50 232.82,74.48 233.18,76.46 233.31,77.85 233.44,79.24 233.07,80.33 232.70,81.42 231.13,82.99 229.55,84.56 227.89,84.97 226.23,85.39 224.63,85.68 223.02,85.98 220.67,86.01 218.33,86.03 216.22,85.99 214.11,85.95 211.77,85.88 209.44,85.81 207.01,85.75 204.58,85.69 201.83,85.64 199.07,85.59 196.46,85.56 193.85,85.52 191.02,85.49 188.18,85.46 185.25,85.44 182.33,85.42 179.42,85.69 176.52,85.96 173.20,86.07 169.89,86.19 166.76,86.23 163.63,86.27 160.34,86.58 157.05,86.88 153.58,87.01 150.12,87.14 146.63,87.19 143.15,87.24 139.42,87.55 135.68,87.86 132.04,87.99 128.39,88.12 124.88,88.46 121.37,88.80 118.10,88.95 114.83,89.10 112.07,89.44 109.31,89.78 106.64,89.94 103.96,90.09 101.38,90.15 98.81,90.22 96.35,90.53 93.89,90.83 91.33,90.97 88.78,91.11 86.33,91.45 83.88,91.79 81.32,91.94 78.77,92.09 76.54,92.15 74.30,92.22 71.91,92.24 69.53,92.27 67.15,92.56 64.77,92.86 62.25,92.99 59.73,93.12 57.22,93.17 54.71,93.23 51.91,93.25 49.12,93.27 46.78,93.28 44.45,93.29 42.02,93.30 39.59,93.30 37.41,93.30 35.22,93.31 33.14,93.32 31.07,93.33 29.32,93.40 27.58,93.48 26.12,93.83 24.65,94.18 23.04,94.38 21.42,94.58 19.45,94.83 17.49,95.08 15.89,95.23 14.30,95.37 12.66,95.48 11.02,95.58 8.79,95.23 6.57,94.87 5.72,93.98 4.88,93.09 4.14,91.08 3.39,89.07 2.89,86.66 2.38,84.26 2.34,82.74 2.30,81.22 2.05,79.98 1.80,78.73 1.64,77.40 1.48,76.07 1.43,74.60 1.38,73.13 1.38,71.66 1.37,70.18 1.35,68.98 1.33,67.78 1.33,66.40 1.34,65.03 1.32,63.87 1.30,62.71 1.31,61.35 1.32,60.00 1.30,58.85 1.29,57.70 1.08,56.28 0.87,54.86 0.77,53.18 0.66,51.50 0.62,49.92 0.59,48.33 0.58,46.80 0.57,45.26 0.62,43.46 0.68,41.66 0.65,40.32 0.62,38.98 0.58,37.83 0.53,36.69 0.52,35.34 0.51,33.99 0.51,32.55 0.51,31.12 0.48,29.93 0.45,28.75 0.42,27.67 0.39,26.59 0.31,25.24 0.23,23.89 0.62,22.15 1.01,20.42 0.96,19.05 0.92,17.69 0.91,16.09 0.90,14.48 0.99,13.99 1.07,13.50 1.31,13.05 1.54,12.61 1.91,12.27 2.27,11.93 2.73,11.72 3.18,11.52 3.68,11.46 4.18,11.41 4.66,11.52 5.15,11.63 5.58,11.89 6.00,12.15 6.33,12.53 6.65,12.92 6.83,13.38 7.01,13.85 7.04,14.35 7.06,14.85 6.92,15.33 6.79,15.81 6.51,16.22 6.22,16.63 5.82,16.93 5.43,17.23 4.95,17.39 4.48,17.55 3.98,17.54 3.48,17.54 3.00,17.38 2.53,17.22 2.14,16.91 1.74,16.61 1.46,16.19 1.18,15.78 1.05,15.30 0.92,14.81 0.95,14.31 0.98,13.82 1.17,13.35 1.35,12.89 1.68,12.51 2.01,12.13 2.44,11.88 2.86,11.62 3.35,11.52 3.84,11.41 4.34,11.47 4.83,11.52 5.29,11.74 5.74,11.95 6.10,12.29 6.46,12.64 6.69,13.08 6.92,13.53 7.00,14.02 7.08,14.51 7.08,14.51 7.08,14.51 7.04,16.22 7.01,17.93 6.87,19.28 6.73,20.62 6.25,22.25 5.76,23.89 5.68,25.24 5.60,26.59 5.57,27.67 5.54,28.75 5.51,29.93 5.48,31.12 5.48,32.55 5.48,33.99 5.47,35.33 5.46,36.68 5.42,37.82 5.39,38.96 5.36,40.30 5.34,41.63 5.42,43.41 5.49,45.19 5.52,46.68 5.56,48.16 5.62,49.63 5.69,51.10 5.83,52.54 5.97,53.97 6.34,55.83 6.71,57.69 6.69,58.84 6.68,59.99 6.69,61.35 6.70,62.70 6.68,63.85 6.67,65.01 6.68,66.37 6.69,67.73 6.69,68.91 6.69,70.09 6.73,71.50 6.78,72.91 6.84,74.19 6.91,75.46 7.01,76.53 7.12,77.59 7.50,79.27 7.88,80.95 8.08,83.27 8.27,85.59 8.61,87.39 8.95,89.19 9.98,89.80 11.01,90.41 12.64,90.51 14.28,90.60 15.83,90.72 17.39,90.84 19.26,90.95 21.14,91.05 22.61,91.01 24.08,90.96 25.83,90.74 27.57,90.51 29.32,90.58 31.07,90.66 33.14,90.67 35.22,90.68 37.40,90.68 39.58,90.68 42.01,90.67 44.44,90.67 46.77,90.66 49.10,90.65 51.87,90.62 54.65,90.60 57.12,90.55 59.59,90.50 62.02,90.37 64.46,90.25 66.98,89.95 69.50,89.64 71.86,89.62 74.23,89.59 76.42,89.53 78.62,89.47 81.07,89.33 83.52,89.18 86.08,88.83 88.64,88.49 91.10,88.36 93.56,88.23 96.15,87.91 98.74,87.59 101.28,87.52 103.81,87.46 106.40,87.32 108.99,87.17 111.85,86.82 114.72,86.46 117.92,86.32 121.12,86.17 124.70,85.83 128.29,85.48 131.88,85.35 135.47,85.21 139.29,84.90 143.10,84.58 146.56,84.52 150.02,84.47 153.41,84.33 156.80,84.20 160.19,83.88 163.58,83.56 166.68,83.50 169.78,83.44 173.02,83.31 176.25,83.18 179.29,82.87 182.32,82.57 185.25,82.55 188.18,82.53 191.02,82.50 193.85,82.47 196.46,82.42 199.06,82.38 201.81,82.32 204.56,82.26 206.98,82.18 209.39,82.09 211.68,81.96 213.97,81.83 215.98,81.66 217.99,81.48 219.92,81.19 221.86,80.89 223.55,80.43 225.25,79.97 226.88,79.50 228.52,79.03 228.59,77.87 228.65,76.72 228.64,75.02 228.63,73.33 228.36,71.74 228.10,70.16 228.15,68.89 228.20,67.62 228.18,66.00 228.16,64.38 228.00,62.61 227.84,60.84 227.39,59.06 226.94,57.28 226.44,55.22 225.94,53.16 225.43,51.03 224.92,48.90 224.42,46.58 223.91,44.27 223.42,41.57 222.92,38.87 222.45,35.93 221.98,32.98 221.58,30.10 221.18,27.21 220.96,24.65 220.74,22.09 220.24,19.28 219.74,16.47 219.30,13.86 218.87,11.24 218.62,8.76 218.37,6.27 217.87,4.13 217.36,1.99 217.28,0.80 217.19,-0.39 216.96,-1.73 216.73,-3.07 215.57,-3.69 214.41,-4.32 213.34,-4.44 212.26,-4.56 210.41,-4.61 208.56,-4.67 206.24,-4.66 203.92,-4.65 201.15,-4.63 198.39,-4.61 195.28,-4.56 192.16,-4.50 188.89,-4.39 185.61,-4.27 181.86,-3.98 178.10,-3.70 174.11,-3.70 170.11,-3.71 166.14,-3.74 162.16,-3.76 158.21,-3.81 154.26,-3.86 150.38,-3.99 146.49,-4.11 142.89,-4.39 139.30,-4.68 136.12,-4.68 132.94,-4.68 129.52,-4.68 126.10,-4.67 122.78,-4.67 119.47,-4.66 116.40,-4.65 113.34,-4.64 110.19,-4.61 107.04,-4.58 103.68,-4.52 100.33,-4.46 97.17,-4.31 94.01,-4.16 90.50,-3.81 87.00,-3.45 82.94,-3.30 78.88,-3.15 74.63,-2.80 70.38,-2.44 65.90,-2.29 61.42,-2.14 56.21,-1.78 51.00,-1.43 46.27,-1.28 41.54,-1.13 37.08,-0.77 32.62,-0.42 28.99,-0.28 25.36,-0.15 22.08,0.16 18.79,0.48 15.95,0.53 13.11,0.58 10.49,0.67 7.87,0.75 5.80,0.91 3.72,1.08 1.99,1.32 0.26,1.57 0.07,1.57 -0.12,1.58 -0.30,1.54 -0.49,1.51 -0.67,1.43 -0.84,1.34 -0.99,1.22 -1.14,1.10 -1.25,0.95 -1.37,0.80 -1.45,0.62 -1.52,0.44 -1.55,0.25 -1.59,0.07 -1.57,-0.12 -1.56,-0.31 -1.50,-0.49 -1.44,-0.67 -1.33,-0.83 -1.23,-1.00 -1.09,-1.13 -0.96,-1.26 -0.79,-1.36 -0.62,-1.46 -0.44,-1.51 -0.26,-1.57 -0.26,-1.57 L -0.26,-1.57 Z"></path></g><g transform="translate(547.5 162.5) rotate(0 52.5 18)"><text x="0" y="25" font-family="Virgil, Segoe UI Emoji" font-size="28px" fill="#364fc7" text-anchor="start" style="white-space: pre;" direction="ltr">level up</text></g><g transform="translate(507.5 268.5) rotate(0 115.5 43.5)" stroke="none"><path fill="#364fc7" d="M -0.26,-1.57 Q -0.26,-1.57 1.45,-1.90 3.17,-2.23 5.43,-2.31 7.70,-2.39 10.37,-2.41 13.05,-2.42 15.91,-2.42 18.77,-2.42 21.93,-2.69 25.10,-2.97 28.81,-3.08 32.52,-3.20 36.93,-3.52 41.33,-3.85 46.13,-3.99 50.92,-4.13 56.08,-4.47 61.24,-4.82 65.77,-4.96 70.29,-5.11 74.47,-5.45 78.66,-5.80 82.78,-5.95 86.90,-6.10 90.32,-6.44 93.74,-6.79 96.97,-6.94 100.21,-7.09 103.60,-7.16 106.99,-7.22 110.15,-7.24 113.32,-7.27 116.39,-7.28 119.46,-7.29 122.77,-7.30 126.09,-7.30 129.51,-7.30 132.94,-7.31 136.12,-7.31 139.30,-7.31 143.00,-7.02 146.70,-6.73 150.52,-6.61 154.34,-6.49 158.27,-6.44 162.19,-6.39 166.16,-6.36 170.13,-6.34 174.12,-6.33 178.10,-6.32 181.76,-6.60 185.41,-6.89 188.74,-7.01 192.07,-7.13 195.21,-7.18 198.35,-7.23 201.12,-7.25 203.89,-7.28 206.22,-7.29 208.55,-7.29 210.40,-7.36 212.26,-7.42 213.33,-7.54 214.40,-7.66 216.19,-7.46 217.98,-7.25 219.42,-5.52 220.86,-3.79 221.50,-1.15 222.14,1.48 222.35,3.51 222.56,5.55 222.62,8.29 222.68,11.02 222.94,13.51 223.21,15.99 223.58,18.79 223.96,21.59 224.11,24.30 224.26,27.00 224.59,29.80 224.92,32.60 225.34,35.52 225.76,38.44 226.22,41.11 226.67,43.78 227.15,46.05 227.62,48.32 228.10,50.43 228.59,52.55 229.08,54.59 229.57,56.64 230.13,58.33 230.68,60.03 230.94,62.03 231.21,64.03 231.36,65.74 231.52,67.44 231.65,68.74 231.78,70.04 232.12,71.27 232.47,72.50 232.82,74.48 233.18,76.46 233.31,77.85 233.44,79.24 233.07,80.33 232.70,81.42 231.13,82.99 229.55,84.56 227.89,84.97 226.23,85.39 224.63,85.68 223.02,85.98 220.67,86.01 218.33,86.03 216.22,85.99 214.11,85.95 211.77,85.88 209.44,85.81 207.01,85.75 204.58,85.69 201.83,85.64 199.07,85.59 196.46,85.56 193.85,85.52 191.02,85.49 188.18,85.46 185.25,85.44 182.33,85.42 179.42,85.69 176.52,85.96 173.20,86.07 169.89,86.19 166.76,86.23 163.63,86.27 160.34,86.58 157.05,86.88 153.58,87.01 150.12,87.14 146.63,87.19 143.15,87.24 139.42,87.55 135.68,87.86 132.04,87.99 128.39,88.12 124.88,88.46 121.37,88.80 118.10,88.95 114.83,89.10 112.07,89.44 109.31,89.78 106.64,89.94 103.96,90.09 101.38,90.15 98.81,90.22 96.35,90.53 93.89,90.83 91.33,90.97 88.78,91.11 86.33,91.45 83.88,91.79 81.32,91.94 78.77,92.09 76.54,92.15 74.30,92.22 71.91,92.24 69.53,92.27 67.15,92.56 64.77,92.86 62.25,92.99 59.73,93.12 57.22,93.17 54.71,93.23 51.91,93.25 49.12,93.27 46.78,93.28 44.45,93.29 42.02,93.30 39.59,93.30 37.41,93.30 35.22,93.31 33.14,93.32 31.07,93.33 29.32,93.40 27.58,93.48 26.12,93.83 24.65,94.18 23.04,94.38 21.42,94.58 19.45,94.83 17.49,95.08 15.89,95.23 14.30,95.37 12.66,95.48 11.02,95.58 8.79,95.23 6.57,94.87 5.72,93.98 4.88,93.09 4.14,91.08 3.39,89.07 2.89,86.66 2.38,84.26 2.34,82.74 2.30,81.22 2.05,79.98 1.80,78.73 1.64,77.40 1.48,76.07 1.43,74.60 1.38,73.13 1.38,71.66 1.37,70.18 1.35,68.98 1.33,67.78 1.33,66.40 1.34,65.03 1.32,63.87 1.30,62.71 1.31,61.35 1.32,60.00 1.30,58.85 1.29,57.70 1.08,56.28 0.87,54.86 0.77,53.18 0.66,51.50 0.62,49.92 0.59,48.33 0.58,46.80 0.57,45.26 0.62,43.46 0.68,41.66 0.65,40.32 0.62,38.98 0.58,37.83 0.53,36.69 0.52,35.34 0.51,33.99 0.51,32.55 0.51,31.12 0.48,29.93 0.45,28.75 0.42,27.67 0.39,26.59 0.31,25.24 0.23,23.89 0.62,22.15 1.01,20.42 0.96,19.05 0.92,17.69 0.91,16.09 0.90,14.48 0.99,13.99 1.07,13.50 1.31,13.05 1.54,12.61 1.91,12.27 2.27,11.93 2.73,11.72 3.18,11.52 3.68,11.46 4.18,11.41 4.66,11.52 5.15,11.63 5.58,11.89 6.00,12.15 6.33,12.53 6.65,12.92 6.83,13.38 7.01,13.85 7.04,14.35 7.06,14.85 6.92,15.33 6.79,15.81 6.51,16.22 6.22,16.63 5.82,16.93 5.43,17.23 4.95,17.39 4.48,17.55 3.98,17.54 3.48,17.54 3.00,17.38 2.53,17.22 2.14,16.91 1.74,16.61 1.46,16.19 1.18,15.78 1.05,15.30 0.92,14.81 0.95,14.31 0.98,13.82 1.17,13.35 1.35,12.89 1.68,12.51 2.01,12.13 2.44,11.88 2.86,11.62 3.35,11.52 3.84,11.41 4.34,11.47 4.83,11.52 5.29,11.74 5.74,11.95 6.10,12.29 6.46,12.64 6.69,13.08 6.92,13.53 7.00,14.02 7.08,14.51 7.08,14.51 7.08,14.51 7.04,16.22 7.01,17.93 6.87,19.28 6.73,20.62 6.25,22.25 5.76,23.89 5.68,25.24 5.60,26.59 5.57,27.67 5.54,28.75 5.51,29.93 5.48,31.12 5.48,32.55 5.48,33.99 5.47,35.33 5.46,36.68 5.42,37.82 5.39,38.96 5.36,40.30 5.34,41.63 5.42,43.41 5.49,45.19 5.52,46.68 5.56,48.16 5.62,49.63 5.69,51.10 5.83,52.54 5.97,53.97 6.34,55.83 6.71,57.69 6.69,58.84 6.68,59.99 6.69,61.35 6.70,62.70 6.68,63.85 6.67,65.01 6.68,66.37 6.69,67.73 6.69,68.91 6.69,70.09 6.73,71.50 6.78,72.91 6.84,74.19 6.91,75.46 7.01,76.53 7.12,77.59 7.50,79.27 7.88,80.95 8.08,83.27 8.27,85.59 8.61,87.39 8.95,89.19 9.98,89.80 11.01,90.41 12.64,90.51 14.28,90.60 15.83,90.72 17.39,90.84 19.26,90.95 21.14,91.05 22.61,91.01 24.08,90.96 25.83,90.74 27.57,90.51 29.32,90.58 31.07,90.66 33.14,90.67 35.22,90.68 37.40,90.68 39.58,90.68 42.01,90.67 44.44,90.67 46.77,90.66 49.10,90.65 51.87,90.62 54.65,90.60 57.12,90.55 59.59,90.50 62.02,90.37 64.46,90.25 66.98,89.95 69.50,89.64 71.86,89.62 74.23,89.59 76.42,89.53 78.62,89.47 81.07,89.33 83.52,89.18 86.08,88.83 88.64,88.49 91.10,88.36 93.56,88.23 96.15,87.91 98.74,87.59 101.28,87.52 103.81,87.46 106.40,87.32 108.99,87.17 111.85,86.82 114.72,86.46 117.92,86.32 121.12,86.17 124.70,85.83 128.29,85.48 131.88,85.35 135.47,85.21 139.29,84.90 143.10,84.58 146.56,84.52 150.02,84.47 153.41,84.33 156.80,84.20 160.19,83.88 163.58,83.56 166.68,83.50 169.78,83.44 173.02,83.31 176.25,83.18 179.29,82.87 182.32,82.57 185.25,82.55 188.18,82.53 191.02,82.50 193.85,82.47 196.46,82.42 199.06,82.38 201.81,82.32 204.56,82.26 206.98,82.18 209.39,82.09 211.68,81.96 213.97,81.83 215.98,81.66 217.99,81.48 219.92,81.19 221.86,80.89 223.55,80.43 225.25,79.97 226.88,79.50 228.52,79.03 228.59,77.87 228.65,76.72 228.64,75.02 228.63,73.33 228.36,71.74 228.10,70.16 228.15,68.89 228.20,67.62 228.18,66.00 228.16,64.38 228.00,62.61 227.84,60.84 227.39,59.06 226.94,57.28 226.44,55.22 225.94,53.16 225.43,51.03 224.92,48.90 224.42,46.58 223.91,44.27 223.42,41.57 222.92,38.87 222.45,35.93 221.98,32.98 221.58,30.10 221.18,27.21 220.96,24.65 220.74,22.09 220.24,19.28 219.74,16.47 219.30,13.86 218.87,11.24 218.62,8.76 218.37,6.27 217.87,4.13 217.36,1.99 217.28,0.80 217.19,-0.39 216.96,-1.73 216.73,-3.07 215.57,-3.69 214.41,-4.32 213.34,-4.44 212.26,-4.56 210.41,-4.61 208.56,-4.67 206.24,-4.66 203.92,-4.65 201.15,-4.63 198.39,-4.61 195.28,-4.56 192.16,-4.50 188.89,-4.39 185.61,-4.27 181.86,-3.98 178.10,-3.70 174.11,-3.70 170.11,-3.71 166.14,-3.74 162.16,-3.76 158.21,-3.81 154.26,-3.86 150.38,-3.99 146.49,-4.11 142.89,-4.39 139.30,-4.68 136.12,-4.68 132.94,-4.68 129.52,-4.68 126.10,-4.67 122.78,-4.67 119.47,-4.66 116.40,-4.65 113.34,-4.64 110.19,-4.61 107.04,-4.58 103.68,-4.52 100.33,-4.46 97.17,-4.31 94.01,-4.16 90.50,-3.81 87.00,-3.45 82.94,-3.30 78.88,-3.15 74.63,-2.80 70.38,-2.44 65.90,-2.29 61.42,-2.14 56.21,-1.78 51.00,-1.43 46.27,-1.28 41.54,-1.13 37.08,-0.77 32.62,-0.42 28.99,-0.28 25.36,-0.15 22.08,0.16 18.79,0.48 15.95,0.53 13.11,0.58 10.49,0.67 7.87,0.75 5.80,0.91 3.72,1.08 1.99,1.32 0.26,1.57 0.07,1.57 -0.12,1.58 -0.30,1.54 -0.49,1.51 -0.67,1.43 -0.84,1.34 -0.99,1.22 -1.14,1.10 -1.25,0.95 -1.37,0.80 -1.45,0.62 -1.52,0.44 -1.55,0.25 -1.59,0.07 -1.57,-0.12 -1.56,-0.31 -1.50,-0.49 -1.44,-0.67 -1.33,-0.83 -1.23,-1.00 -1.09,-1.13 -0.96,-1.26 -0.79,-1.36 -0.62,-1.46 -0.44,-1.51 -0.26,-1.57 -0.26,-1.57 L -0.26,-1.57 Z"></path></g><g transform="translate(560.5 291.5) rotate(0 35.5 18)"><text x="0" y="25" font-family="Virgil, Segoe UI Emoji" font-size="28px" fill="#364fc7" text-anchor="start" style="white-space: pre;" direction="ltr">reroll</text></g><g transform="translate(242 272) rotate(0 118 -102.5)" stroke="none"><path fill="#364fc7" d="M -1.21,-0.97 Q -1.21,-0.97 0.41,-2.96 2.05,-4.95 3.88,-7.49 5.71,-10.02 8.59,-13.71 11.47,-17.41 15.91,-23.00 20.36,-28.59 27.08,-37.28 33.79,-45.97 41.94,-56.28 50.10,-66.59 57.72,-75.31 65.35,-84.02 72.51,-91.76 79.66,-99.49 85.92,-106.22 92.18,-112.95 97.61,-118.41 103.05,-123.87 107.88,-128.77 112.71,-133.67 117.31,-138.07 121.91,-142.47 125.96,-145.80 130.02,-149.13 133.33,-151.96 136.63,-154.80 140.12,-157.73 143.60,-160.67 146.91,-163.62 150.21,-166.58 153.73,-169.31 157.24,-172.04 160.38,-174.08 163.51,-176.13 166.50,-177.59 169.50,-179.06 172.09,-180.52 174.68,-181.97 177.41,-183.46 180.14,-184.95 182.91,-186.45 185.68,-187.94 188.47,-189.44 191.26,-190.94 193.66,-191.89 196.06,-192.85 198.68,-193.82 201.29,-194.80 203.76,-195.78 206.24,-196.76 208.73,-197.48 211.23,-198.21 213.35,-199.07 215.48,-199.92 217.34,-200.62 219.19,-201.33 220.81,-202.18 222.42,-203.04 223.96,-203.55 225.49,-204.06 227.46,-204.89 229.44,-205.71 230.53,-206.14 231.62,-206.56 233.61,-206.95 235.59,-207.34 235.97,-207.30 236.36,-207.26 236.70,-207.11 237.05,-206.95 237.33,-206.68 237.61,-206.42 237.79,-206.08 237.97,-205.75 238.04,-205.37 238.10,-204.99 238.04,-204.61 237.98,-204.24 237.80,-203.90 237.63,-203.56 237.35,-203.29 237.07,-203.03 236.73,-202.86 236.38,-202.70 236.00,-202.66 235.62,-202.61 235.24,-202.69 234.87,-202.78 234.54,-202.97 234.21,-203.17 233.96,-203.46 233.71,-203.75 233.57,-204.10 233.42,-204.46 233.40,-204.84 233.38,-205.22 233.48,-205.59 233.58,-205.96 233.79,-206.28 234.01,-206.60 234.31,-206.83 234.61,-207.07 234.98,-207.19 235.34,-207.31 235.72,-207.32 236.11,-207.32 236.47,-207.20 236.83,-207.08 237.14,-206.85 237.45,-206.62 237.66,-206.30 237.88,-205.98 237.98,-205.62 238.09,-205.25 238.07,-204.86 238.05,-204.48 237.91,-204.13 237.77,-203.77 237.52,-203.48 237.28,-203.18 236.95,-202.98 236.62,-202.78 236.25,-202.70 235.87,-202.62 235.87,-202.62 235.88,-202.62 234.85,-202.55 233.82,-202.48 232.82,-202.10 231.82,-201.72 230.27,-201.67 228.73,-201.63 227.53,-201.24 226.32,-200.85 225.02,-200.64 223.72,-200.42 221.93,-199.57 220.13,-198.71 218.29,-198.10 216.45,-197.48 214.21,-196.59 211.96,-195.69 209.58,-195.00 207.20,-194.32 204.71,-193.32 202.21,-192.33 199.62,-191.37 197.03,-190.41 194.76,-189.52 192.50,-188.62 189.71,-187.13 186.93,-185.63 184.16,-184.14 181.40,-182.64 178.68,-181.16 175.96,-179.68 173.31,-178.19 170.65,-176.70 167.80,-175.31 164.94,-173.92 161.90,-171.94 158.86,-169.96 155.41,-167.29 151.97,-164.62 148.63,-161.64 145.30,-158.65 141.82,-155.73 138.35,-152.80 135.02,-149.95 131.69,-147.10 127.71,-143.83 123.73,-140.56 119.16,-136.19 114.59,-131.82 109.76,-126.91 104.92,-122.01 99.52,-116.57 94.12,-111.14 87.87,-104.41 81.62,-97.68 74.49,-89.97 67.37,-82.26 59.79,-73.59 52.22,-64.92 44.08,-54.61 35.95,-44.30 29.24,-35.59 22.53,-26.87 18.11,-21.28 13.70,-15.69 10.88,-12.02 8.06,-8.34 6.22,-5.72 4.38,-3.09 2.80,-1.05 1.21,0.97 1.08,1.10 0.95,1.23 0.78,1.33 0.62,1.43 0.44,1.48 0.26,1.53 0.07,1.54 -0.11,1.55 -0.29,1.52 -0.47,1.48 -0.65,1.40 -0.82,1.32 -0.96,1.21 -1.11,1.09 -1.23,0.94 -1.34,0.79 -1.42,0.62 -1.49,0.44 -1.52,0.26 -1.56,0.07 -1.54,-0.10 -1.53,-0.29 -1.47,-0.47 -1.41,-0.65 -1.31,-0.81 -1.21,-0.97 -1.21,-0.97 L -1.21,-0.97 Z"></path></g><g transform="translate(247 284) rotate(0 116.5 -52)" stroke="none"><path fill="#364fc7" d="M -0.92,-1.35 Q -0.92,-1.35 0.78,-2.48 2.48,-3.61 3.76,-4.68 5.04,-5.75 6.69,-7.02 8.34,-8.30 9.90,-9.46 11.46,-10.63 13.18,-11.92 14.89,-13.22 16.75,-14.38 18.61,-15.54 20.58,-17.12 22.56,-18.69 24.68,-20.51 26.80,-22.33 29.44,-24.28 32.09,-26.24 34.90,-28.21 37.71,-30.19 40.60,-32.18 43.49,-34.16 46.40,-36.16 49.32,-38.15 52.02,-40.13 54.73,-42.11 57.62,-43.86 60.52,-45.60 63.45,-47.20 66.37,-48.80 69.07,-50.34 71.78,-51.87 74.59,-53.66 77.41,-55.44 80.11,-57.08 82.81,-58.71 85.66,-60.28 88.52,-61.85 90.97,-63.36 93.41,-64.86 96.23,-66.13 99.04,-67.39 101.42,-68.74 103.80,-70.09 106.07,-71.53 108.35,-72.96 110.87,-74.19 113.39,-75.42 115.71,-76.50 118.03,-77.59 120.29,-78.62 122.54,-79.66 125.00,-80.68 127.46,-81.71 129.82,-82.45 132.17,-83.18 134.32,-84.31 136.46,-85.43 139.16,-86.53 141.86,-87.63 144.24,-88.65 146.62,-89.68 148.96,-90.43 151.31,-91.17 153.80,-91.78 156.30,-92.39 158.61,-92.93 160.93,-93.47 163.18,-93.99 165.43,-94.51 167.88,-95.02 170.33,-95.53 172.84,-96.03 175.36,-96.54 178.69,-97.60 182.01,-98.66 184.75,-99.41 187.48,-100.16 189.99,-100.49 192.50,-100.83 194.54,-101.24 196.58,-101.66 198.36,-101.92 200.15,-102.19 201.62,-102.61 203.10,-103.04 204.93,-103.25 206.77,-103.46 208.60,-103.55 210.43,-103.65 211.90,-103.99 213.36,-104.33 214.75,-104.55 216.15,-104.77 218.26,-105.00 220.36,-105.23 222.24,-105.35 224.11,-105.47 225.82,-105.96 227.52,-106.44 230.12,-106.60 232.71,-106.75 233.16,-106.68 233.60,-106.62 233.99,-106.41 234.39,-106.21 234.70,-105.89 235.01,-105.56 235.20,-105.16 235.39,-104.76 235.45,-104.31 235.50,-103.87 235.41,-103.43 235.32,-103.00 235.09,-102.61 234.86,-102.23 234.52,-101.93 234.19,-101.64 233.77,-101.47 233.36,-101.30 232.92,-101.27 232.47,-101.25 232.04,-101.36 231.61,-101.48 231.23,-101.72 230.86,-101.97 230.59,-102.32 230.32,-102.68 230.17,-103.10 230.02,-103.52 230.02,-103.97 230.01,-104.41 230.15,-104.84 230.29,-105.26 230.56,-105.62 230.82,-105.98 231.19,-106.23 231.56,-106.49 231.99,-106.61 232.42,-106.73 232.86,-106.71 233.31,-106.69 233.72,-106.53 234.14,-106.37 234.48,-106.09 234.83,-105.80 235.06,-105.42 235.30,-105.04 235.40,-104.60 235.50,-104.17 235.45,-103.72 235.41,-103.28 235.22,-102.87 235.04,-102.47 234.74,-102.14 234.43,-101.81 234.04,-101.60 233.65,-101.39 233.21,-101.31 232.77,-101.23 232.77,-101.23 232.77,-101.23 231.24,-101.21 229.71,-101.20 228.19,-101.16 226.68,-101.12 225.45,-100.81 224.21,-100.51 222.34,-100.60 220.47,-100.69 218.51,-100.76 216.55,-100.83 215.31,-100.78 214.07,-100.73 212.32,-100.44 210.57,-100.15 208.82,-100.11 207.07,-100.07 205.45,-99.97 203.82,-99.88 202.14,-99.57 200.45,-99.27 198.77,-99.18 197.10,-99.08 194.97,-98.65 192.84,-98.22 190.51,-97.93 188.17,-97.63 185.49,-96.89 182.81,-96.15 179.34,-95.06 175.88,-93.96 173.37,-93.46 170.86,-92.96 168.44,-92.45 166.02,-91.95 163.77,-91.43 161.52,-90.92 159.22,-90.38 156.92,-89.84 154.51,-89.25 152.10,-88.67 149.88,-87.97 147.66,-87.27 145.25,-86.23 142.85,-85.19 140.26,-84.15 137.67,-83.10 135.32,-81.89 132.96,-80.68 130.71,-79.98 128.47,-79.28 126.05,-78.28 123.64,-77.27 121.39,-76.24 119.15,-75.21 116.84,-74.13 114.54,-73.05 112.14,-71.90 109.75,-70.74 107.42,-69.27 105.10,-67.81 102.61,-66.40 100.12,-64.99 97.45,-63.81 94.79,-62.62 92.29,-61.08 89.79,-59.54 86.98,-58.00 84.17,-56.46 81.50,-54.84 78.82,-53.22 75.95,-51.39 73.08,-49.57 70.36,-48.03 67.64,-46.48 64.76,-44.91 61.89,-43.33 59.10,-41.65 56.30,-39.97 53.57,-37.96 50.83,-35.94 47.93,-33.95 45.02,-31.95 42.15,-29.96 39.28,-27.97 36.51,-26.00 33.73,-24.03 31.18,-22.12 28.64,-20.21 26.50,-18.33 24.36,-16.46 22.29,-14.76 20.21,-13.06 18.50,-11.93 16.79,-10.80 15.09,-9.41 13.38,-8.01 11.87,-6.91 10.35,-5.81 8.74,-4.45 7.12,-3.10 5.70,-2.04 4.27,-0.98 2.59,0.18 0.92,1.35 0.74,1.44 0.56,1.53 0.37,1.57 0.18,1.62 -0.01,1.62 -0.20,1.62 -0.39,1.57 -0.59,1.52 -0.76,1.43 -0.93,1.34 -1.08,1.20 -1.23,1.07 -1.34,0.91 -1.45,0.75 -1.52,0.56 -1.59,0.38 -1.61,0.18 -1.63,-0.01 -1.61,-0.20 -1.58,-0.40 -1.51,-0.58 -1.44,-0.77 -1.33,-0.93 -1.21,-1.09 -1.06,-1.22 -0.92,-1.35 -0.92,-1.35 L -0.92,-1.35 Z"></path></g><g transform="translate(249 293) rotate(0 117 18)" stroke="none"><path fill="#364fc7" d="M 1.04,-1.85 Q 1.04,-1.85 2.49,-1.03 3.94,-0.21 5.15,0.34 6.35,0.90 7.49,1.38 8.63,1.86 9.74,2.32 10.85,2.77 11.96,3.22 13.06,3.68 14.35,4.52 15.63,5.36 16.87,5.85 18.11,6.34 19.97,7.26 21.83,8.18 24.01,9.15 26.18,10.13 28.85,10.82 31.51,11.51 34.78,12.40 38.05,13.28 40.85,13.94 43.65,14.60 46.49,15.17 49.32,15.73 51.86,16.55 54.39,17.37 56.84,17.97 59.28,18.58 61.96,19.11 64.64,19.65 67.64,20.15 70.64,20.65 73.57,21.14 76.51,21.63 79.61,22.11 82.72,22.60 85.50,23.08 88.28,23.56 91.11,24.03 93.95,24.51 97.06,25.27 100.17,26.03 103.55,26.89 106.93,27.76 110.19,28.39 113.45,29.02 116.70,29.56 119.95,30.10 122.99,30.61 126.03,31.11 128.98,31.60 131.93,32.08 134.37,32.28 136.81,32.48 139.36,32.85 141.91,33.21 144.37,33.36 146.84,33.51 149.20,33.85 151.57,34.20 153.74,34.33 155.91,34.47 157.87,34.50 159.83,34.53 161.81,34.29 163.79,34.05 166.18,33.95 168.56,33.85 171.02,33.81 173.48,33.77 175.98,33.75 178.47,33.74 181.19,33.73 183.90,33.73 186.50,33.73 189.11,33.73 191.80,33.46 194.50,33.19 197.09,32.81 199.68,32.42 202.09,32.25 204.50,32.08 206.90,31.75 209.31,31.41 211.64,31.26 213.98,31.11 216.00,31.02 218.03,30.93 219.82,30.60 221.62,30.27 222.93,29.79 224.25,29.32 225.64,28.81 227.03,28.31 228.37,28.01 229.71,27.71 230.97,27.08 232.23,26.45 232.47,26.23 232.71,26.01 233.00,25.87 233.30,25.74 233.62,25.70 233.95,25.67 234.27,25.74 234.59,25.81 234.86,25.98 235.14,26.15 235.35,26.40 235.56,26.65 235.68,26.95 235.80,27.25 235.82,27.58 235.84,27.90 235.75,28.22 235.66,28.53 235.48,28.80 235.29,29.07 235.03,29.27 234.77,29.46 234.46,29.57 234.15,29.67 233.83,29.67 233.50,29.67 233.19,29.56 232.88,29.46 232.62,29.26 232.36,29.06 232.18,28.79 232.00,28.52 231.91,28.21 231.83,27.89 231.85,27.57 231.87,27.24 231.99,26.94 232.11,26.63 232.32,26.39 232.53,26.14 232.81,25.97 233.09,25.80 233.41,25.74 233.73,25.67 234.06,25.70 234.38,25.74 234.68,25.88 234.97,26.02 235.21,26.24 235.44,26.47 235.59,26.75 235.75,27.04 235.80,27.36 235.85,27.69 235.80,28.01 235.74,28.33 235.59,28.62 235.43,28.91 235.43,28.91 235.43,28.91 232.88,30.24 230.32,31.57 229.20,31.65 228.08,31.73 226.61,32.10 225.13,32.48 223.60,32.81 222.07,33.13 220.09,33.40 218.11,33.67 216.13,33.70 214.14,33.73 211.91,33.87 209.67,34.02 207.18,34.36 204.68,34.71 202.38,34.87 200.07,35.03 197.42,35.43 194.76,35.82 191.94,36.10 189.11,36.38 186.51,36.38 183.91,36.39 181.20,36.40 178.49,36.41 176.01,36.44 173.53,36.46 171.11,36.51 168.68,36.56 166.40,36.67 164.12,36.78 161.93,37.03 159.75,37.28 157.74,37.19 155.74,37.09 153.47,36.95 151.19,36.80 148.93,36.46 146.68,36.13 144.11,35.97 141.54,35.82 139.07,35.46 136.60,35.10 134.05,34.89 131.50,34.68 128.55,34.19 125.60,33.71 122.56,33.20 119.51,32.70 116.23,32.15 112.95,31.61 109.62,30.96 106.28,30.32 102.91,29.46 99.55,28.60 96.53,27.86 93.51,27.13 90.67,26.66 87.83,26.18 85.07,25.71 82.31,25.24 79.19,24.77 76.07,24.30 73.13,23.82 70.19,23.34 67.15,22.85 64.12,22.36 61.37,21.84 58.62,21.32 56.07,20.72 53.53,20.13 51.15,19.40 48.77,18.67 45.88,18.16 42.99,17.66 40.11,17.07 37.24,16.49 33.98,15.74 30.71,14.98 27.74,14.38 24.76,13.77 22.44,12.98 20.13,12.20 18.23,11.52 16.33,10.85 14.58,10.15 12.83,9.46 11.95,8.80 11.06,8.14 9.98,7.62 8.90,7.11 7.79,6.56 6.69,6.02 5.53,5.43 4.38,4.84 3.11,4.16 1.85,3.48 0.40,2.67 -1.04,1.85 -1.25,1.70 -1.46,1.55 -1.62,1.35 -1.79,1.15 -1.90,0.92 -2.01,0.69 -2.07,0.44 -2.12,0.19 -2.11,-0.06 -2.10,-0.32 -2.04,-0.56 -1.97,-0.81 -1.84,-1.04 -1.71,-1.26 -1.54,-1.45 -1.36,-1.63 -1.14,-1.77 -0.93,-1.91 -0.69,-2.00 -0.44,-2.08 -0.19,-2.10 0.06,-2.13 0.31,-2.09 0.57,-2.05 0.81,-1.95 1.04,-1.85 1.04,-1.85 L 1.04,-1.85 Z"></path></g><g transform="translate(24 217) rotate(0 100 59.5)" stroke="none"><path fill="#364fc7" d="M 2.05,-1.54 Q 2.05,-1.54 3.67,-1.17 5.29,-0.79 7.43,-0.58 9.56,-0.37 12.10,-0.26 14.64,-0.14 17.65,-0.08 20.66,-0.02 24.51,0.00 28.36,0.04 32.32,0.49 36.28,0.94 40.46,1.14 44.64,1.33 49.30,1.41 53.97,1.50 58.85,1.54 63.73,1.58 68.05,1.60 72.37,1.61 77.16,2.05 81.95,2.49 86.18,2.68 90.40,2.86 94.83,3.37 99.26,3.88 103.65,4.10 108.04,4.31 112.15,4.40 116.27,4.49 120.26,4.53 124.26,4.57 127.57,4.59 130.87,4.60 133.57,4.61 136.26,4.62 139.11,5.06 141.96,5.50 144.67,5.67 147.39,5.85 149.83,5.93 152.27,6.00 154.92,6.04 157.56,6.07 160.08,6.52 162.60,6.97 165.17,7.15 167.73,7.33 170.11,7.41 172.49,7.49 174.90,7.96 177.31,8.44 179.51,8.62 181.70,8.81 184.34,9.33 186.98,9.85 189.29,10.06 191.60,10.27 193.23,10.27 194.87,10.27 196.20,10.20 197.53,10.14 199.81,10.49 202.10,10.84 204.59,11.43 207.07,12.03 208.28,12.76 209.49,13.49 210.42,14.31 211.34,15.13 211.94,16.20 212.54,17.27 213.32,19.45 214.11,21.64 214.40,23.36 214.70,25.08 214.77,27.30 214.84,29.52 214.80,31.73 214.75,33.94 215.00,36.03 215.26,38.12 215.03,40.96 214.80,43.79 214.68,46.60 214.56,49.40 214.16,51.97 213.77,54.54 213.60,57.24 213.43,59.94 213.35,62.38 213.27,64.82 213.23,67.57 213.19,70.31 213.16,72.76 213.14,75.21 213.13,77.53 213.12,79.86 213.43,82.04 213.73,84.21 213.87,86.51 214.01,88.82 214.13,90.64 214.25,92.47 214.35,94.11 214.45,95.74 214.54,97.30 214.62,98.85 214.68,100.36 214.75,101.88 214.83,102.95 214.92,104.02 215.06,105.74 215.19,107.46 214.85,108.66 214.50,109.87 214.03,111.50 213.56,113.13 213.00,114.06 212.44,114.98 210.87,116.09 209.31,117.20 207.83,117.68 206.35,118.16 204.59,118.61 202.83,119.06 200.21,119.20 197.58,119.34 194.58,119.33 191.57,119.32 188.83,119.69 186.09,120.06 183.18,120.21 180.28,120.35 177.12,120.39 173.95,120.43 170.68,120.44 167.41,120.44 163.45,120.43 159.49,120.42 155.80,119.97 152.11,119.53 148.69,119.34 145.28,119.15 141.58,119.07 137.88,118.98 134.38,118.94 130.88,118.91 127.46,118.89 124.04,118.87 120.34,118.86 116.64,118.85 113.14,118.84 109.64,118.84 106.22,118.84 102.81,118.83 99.43,118.83 96.05,118.83 92.69,118.83 89.32,118.83 85.96,118.83 82.61,118.82 78.61,118.82 74.61,118.82 70.66,118.82 66.71,118.82 63.11,118.82 59.50,118.82 56.36,118.82 53.22,118.82 50.28,118.82 47.34,118.82 44.81,118.82 42.27,118.82 39.59,118.82 36.90,118.82 34.48,118.82 32.05,118.82 29.74,118.82 27.42,118.82 25.15,118.82 22.88,118.82 20.95,118.86 19.02,118.91 16.92,118.90 14.81,118.89 12.95,118.94 11.10,118.99 9.66,119.09 8.23,119.18 6.66,119.24 5.08,119.31 3.77,119.38 2.46,119.46 1.26,119.53 0.06,119.60 -1.43,119.74 -2.94,119.87 -4.68,119.65 -6.43,119.44 -8.39,117.84 -10.35,116.24 -11.19,115.55 -12.03,114.87 -12.95,113.93 -13.86,112.98 -14.47,111.27 -15.08,109.55 -15.24,107.98 -15.40,106.40 -15.71,105.17 -16.02,103.94 -16.19,102.28 -16.36,100.62 -16.42,99.06 -16.47,97.50 -16.40,95.55 -16.32,93.59 -16.31,91.92 -16.29,90.24 -16.20,88.24 -16.11,86.24 -16.11,84.54 -16.10,82.84 -16.11,81.26 -16.13,79.68 -15.73,77.56 -15.32,75.45 -15.20,73.84 -15.08,72.24 -14.97,70.29 -14.85,68.34 -14.42,66.10 -13.98,63.86 -13.79,61.75 -13.59,59.65 -13.16,57.36 -12.72,55.07 -12.54,52.92 -12.36,50.77 -12.33,49.00 -12.31,47.22 -12.01,45.45 -11.70,43.68 -11.55,41.83 -11.40,39.97 -11.03,38.15 -10.67,36.33 -10.47,34.04 -10.27,31.74 -10.21,29.88 -10.16,28.01 -10.18,26.37 -10.20,24.73 -10.28,23.60 -10.36,22.47 -10.43,20.16 -10.49,17.84 -10.44,17.51 -10.38,17.17 -10.22,16.88 -10.06,16.58 -9.82,16.35 -9.57,16.11 -9.27,15.97 -8.96,15.83 -8.62,15.80 -8.29,15.76 -7.96,15.84 -7.63,15.91 -7.34,16.08 -7.05,16.26 -6.83,16.52 -6.62,16.77 -6.49,17.09 -6.37,17.40 -6.35,17.74 -6.33,18.08 -6.42,18.40 -6.52,18.73 -6.71,19.01 -6.90,19.28 -7.17,19.49 -7.43,19.69 -7.76,19.80 -8.08,19.90 -8.41,19.90 -8.75,19.90 -9.07,19.79 -9.39,19.69 -9.66,19.48 -9.93,19.28 -10.11,19.00 -10.30,18.72 -10.39,18.39 -10.48,18.06 -10.46,17.73 -10.44,17.39 -10.32,17.08 -10.19,16.76 -9.97,16.51 -9.75,16.25 -9.46,16.08 -9.17,15.90 -8.84,15.83 -8.51,15.76 -8.18,15.80 -7.84,15.84 -7.54,15.98 -7.23,16.12 -6.99,16.35 -6.74,16.59 -6.58,16.89 -6.43,17.18 -6.37,17.52 -6.32,17.85 -6.32,17.85 -6.32,17.85 -6.41,20.18 -6.49,22.52 -6.60,23.65 -6.70,24.79 -6.78,26.46 -6.86,28.13 -6.95,30.05 -7.03,31.96 -7.16,34.53 -7.28,37.09 -7.69,38.66 -8.09,40.23 -8.24,42.31 -8.39,44.40 -8.78,45.87 -9.18,47.35 -9.29,49.17 -9.41,50.99 -9.55,53.29 -9.70,55.59 -10.03,57.73 -10.36,59.87 -10.46,62.14 -10.56,64.41 -10.82,66.43 -11.07,68.46 -11.08,70.51 -11.08,72.56 -11.23,74.33 -11.38,76.09 -11.62,77.89 -11.86,79.68 -11.87,81.26 -11.88,82.83 -11.87,84.53 -11.86,86.23 -11.76,88.22 -11.66,90.21 -11.62,91.86 -11.58,93.52 -11.45,95.39 -11.32,97.26 -11.23,98.65 -11.15,100.05 -11.00,101.32 -10.85,102.59 -10.41,104.22 -9.96,105.86 -9.85,107.00 -9.74,108.14 -9.14,109.41 -8.55,110.68 -7.02,112.26 -5.49,113.85 -4.22,114.49 -2.94,115.14 -1.43,115.28 0.06,115.41 1.26,115.48 2.46,115.56 3.77,115.63 5.08,115.71 6.66,115.77 8.23,115.83 9.66,115.93 11.10,116.02 12.95,116.07 14.81,116.12 16.92,116.11 19.02,116.11 20.95,116.15 22.88,116.19 25.15,116.19 27.42,116.19 29.74,116.19 32.05,116.19 34.48,116.19 36.90,116.19 39.59,116.19 42.27,116.19 44.81,116.19 47.34,116.19 50.28,116.19 53.22,116.19 56.36,116.19 59.50,116.19 63.11,116.19 66.71,116.19 70.66,116.19 74.61,116.19 78.61,116.19 82.61,116.19 85.96,116.19 89.32,116.19 92.69,116.19 96.05,116.19 99.43,116.19 102.81,116.19 106.23,116.18 109.64,116.18 113.14,116.18 116.65,116.18 120.35,116.19 124.06,116.19 127.48,116.20 130.90,116.21 134.42,116.23 137.93,116.26 141.68,116.32 145.42,116.39 148.93,116.56 152.43,116.73 155.96,117.13 159.48,117.53 163.43,117.49 167.38,117.45 170.62,117.37 173.87,117.30 176.96,117.17 180.04,117.04 182.78,116.79 185.51,116.54 188.47,115.97 191.43,115.40 194.29,115.19 197.14,114.97 199.24,114.63 201.34,114.29 203.12,113.62 204.90,112.94 206.47,112.41 208.04,111.88 208.75,110.92 209.46,109.96 210.01,108.64 210.56,107.33 210.69,105.68 210.83,104.03 210.91,102.96 210.99,101.89 211.05,100.38 211.11,98.87 211.17,97.33 211.23,95.79 211.28,94.18 211.33,92.56 211.34,90.77 211.35,88.98 211.21,86.78 211.08,84.59 210.75,82.22 210.42,79.86 210.41,77.53 210.41,75.20 210.41,72.74 210.41,70.28 210.43,67.52 210.44,64.75 210.49,62.27 210.53,59.79 210.66,56.95 210.79,54.12 211.10,51.72 211.41,49.31 211.44,46.45 211.46,43.58 211.58,41.13 211.69,38.67 211.24,36.37 210.79,34.07 210.60,31.98 210.41,29.89 210.13,28.03 209.86,26.17 209.34,23.60 208.82,21.04 208.33,19.76 207.83,18.49 206.69,17.35 205.54,16.21 204.31,15.74 203.08,15.28 201.80,14.96 200.51,14.64 198.97,14.09 197.43,13.54 196.07,13.39 194.70,13.25 193.03,13.07 191.36,12.88 188.92,12.65 186.47,12.43 183.97,11.93 181.47,11.43 179.14,11.22 176.80,11.01 174.60,10.56 172.39,10.11 169.97,10.03 167.54,9.95 164.84,9.76 162.13,9.56 159.83,9.13 157.52,8.70 154.86,8.66 152.19,8.63 149.70,8.55 147.22,8.47 144.38,8.28 141.55,8.09 138.90,7.67 136.25,7.25 133.55,7.24 130.86,7.24 127.55,7.22 124.24,7.20 120.22,7.17 116.21,7.13 112.06,7.04 107.91,6.95 103.43,6.73 98.96,6.51 94.62,6.01 90.29,5.51 86.00,5.32 81.71,5.14 77.03,4.71 72.36,4.28 68.03,4.27 63.71,4.26 58.82,4.24 53.93,4.21 49.22,4.14 44.52,4.07 40.25,3.89 35.98,3.71 32.16,3.30 28.35,2.89 24.49,2.89 20.63,2.90 17.59,2.90 14.55,2.89 11.93,2.85 9.31,2.81 6.86,2.66 4.42,2.50 2.83,2.02 1.23,1.54 1.05,1.47 0.87,1.40 0.72,1.28 0.56,1.17 0.44,1.02 0.31,0.88 0.22,0.71 0.14,0.53 0.10,0.35 0.05,0.16 0.06,-0.02 0.06,-0.22 0.11,-0.40 0.16,-0.59 0.25,-0.76 0.34,-0.93 0.47,-1.07 0.61,-1.21 0.77,-1.32 0.93,-1.42 1.11,-1.49 1.29,-1.55 1.48,-1.57 1.67,-1.59 1.86,-1.57 2.05,-1.54 2.05,-1.54 L 2.05,-1.54 Z"></path></g><g transform="translate(50 228) rotate(0 80 54)"><text x="0" y="25" font-family="Virgil, Segoe UI Emoji" font-size="28px" fill="#364fc7" text-anchor="start" style="white-space: pre;" direction="ltr">gold at the</text><text x="0" y="61" font-family="Virgil, Segoe UI Emoji" font-size="28px" fill="#364fc7" text-anchor="start" style="white-space: pre;" direction="ltr">end of </text><text x="0" y="97" font-family="Virgil, Segoe UI Emoji" font-size="28px" fill="#364fc7" text-anchor="start" style="white-space: pre;" direction="ltr">the round</text></g><g transform="translate(514.5 401.5) rotate(0 115.5 43.5)" stroke="none"><path fill="#364fc7" d="M -0.26,-1.57 Q -0.26,-1.57 1.45,-1.90 3.17,-2.23 5.43,-2.31 7.70,-2.39 10.37,-2.41 13.05,-2.42 15.91,-2.42 18.77,-2.42 21.93,-2.69 25.10,-2.97 28.81,-3.08 32.52,-3.20 36.93,-3.52 41.33,-3.85 46.13,-3.99 50.92,-4.13 56.08,-4.47 61.24,-4.82 65.77,-4.96 70.29,-5.11 74.47,-5.45 78.66,-5.80 82.78,-5.95 86.90,-6.10 90.32,-6.44 93.74,-6.79 96.97,-6.94 100.21,-7.09 103.60,-7.16 106.99,-7.22 110.15,-7.24 113.32,-7.27 116.39,-7.28 119.46,-7.29 122.77,-7.30 126.09,-7.30 129.51,-7.30 132.94,-7.31 136.12,-7.31 139.30,-7.31 143.00,-7.02 146.70,-6.73 150.52,-6.61 154.34,-6.49 158.27,-6.44 162.19,-6.39 166.16,-6.36 170.13,-6.34 174.12,-6.33 178.10,-6.32 181.76,-6.60 185.41,-6.89 188.74,-7.01 192.07,-7.13 195.21,-7.18 198.35,-7.23 201.12,-7.25 203.89,-7.28 206.22,-7.29 208.55,-7.29 210.40,-7.36 212.26,-7.42 213.33,-7.54 214.40,-7.66 216.19,-7.46 217.98,-7.25 219.42,-5.52 220.86,-3.79 221.50,-1.15 222.14,1.48 222.35,3.51 222.56,5.55 222.62,8.29 222.68,11.02 222.94,13.51 223.21,15.99 223.58,18.79 223.96,21.59 224.11,24.30 224.26,27.00 224.59,29.80 224.92,32.60 225.34,35.52 225.76,38.44 226.22,41.11 226.67,43.78 227.15,46.05 227.62,48.32 228.10,50.43 228.59,52.55 229.08,54.59 229.57,56.64 230.13,58.33 230.68,60.03 230.94,62.03 231.21,64.03 231.36,65.74 231.52,67.44 231.65,68.74 231.78,70.04 232.12,71.27 232.47,72.50 232.82,74.48 233.18,76.46 233.31,77.85 233.44,79.24 233.07,80.33 232.70,81.42 231.13,82.99 229.55,84.56 227.89,84.97 226.23,85.39 224.63,85.68 223.02,85.98 220.67,86.01 218.33,86.03 216.22,85.99 214.11,85.95 211.77,85.88 209.44,85.81 207.01,85.75 204.58,85.69 201.83,85.64 199.07,85.59 196.46,85.56 193.85,85.52 191.02,85.49 188.18,85.46 185.25,85.44 182.33,85.42 179.42,85.69 176.52,85.96 173.20,86.07 169.89,86.19 166.76,86.23 163.63,86.27 160.34,86.58 157.05,86.88 153.58,87.01 150.12,87.14 146.63,87.19 143.15,87.24 139.42,87.55 135.68,87.86 132.04,87.99 128.39,88.12 124.88,88.46 121.37,88.80 118.10,88.95 114.83,89.10 112.07,89.44 109.31,89.78 106.64,89.94 103.96,90.09 101.38,90.15 98.81,90.22 96.35,90.53 93.89,90.83 91.33,90.97 88.78,91.11 86.33,91.45 83.88,91.79 81.32,91.94 78.77,92.09 76.54,92.15 74.30,92.22 71.91,92.24 69.53,92.27 67.15,92.56 64.77,92.86 62.25,92.99 59.73,93.12 57.22,93.17 54.71,93.23 51.91,93.25 49.12,93.27 46.78,93.28 44.45,93.29 42.02,93.30 39.59,93.30 37.41,93.30 35.22,93.31 33.14,93.32 31.07,93.33 29.32,93.40 27.58,93.48 26.12,93.83 24.65,94.18 23.04,94.38 21.42,94.58 19.45,94.83 17.49,95.08 15.89,95.23 14.30,95.37 12.66,95.48 11.02,95.58 8.79,95.23 6.57,94.87 5.72,93.98 4.88,93.09 4.14,91.08 3.39,89.07 2.89,86.66 2.38,84.26 2.34,82.74 2.30,81.22 2.05,79.98 1.80,78.73 1.64,77.40 1.48,76.07 1.43,74.60 1.38,73.13 1.38,71.66 1.37,70.18 1.35,68.98 1.33,67.78 1.33,66.40 1.34,65.03 1.32,63.87 1.30,62.71 1.31,61.35 1.32,60.00 1.30,58.85 1.29,57.70 1.08,56.28 0.87,54.86 0.77,53.18 0.66,51.50 0.62,49.92 0.59,48.33 0.58,46.80 0.57,45.26 0.62,43.46 0.68,41.66 0.65,40.32 0.62,38.98 0.58,37.83 0.53,36.69 0.52,35.34 0.51,33.99 0.51,32.55 0.51,31.12 0.48,29.93 0.45,28.75 0.42,27.67 0.39,26.59 0.31,25.24 0.23,23.89 0.62,22.15 1.01,20.42 0.96,19.05 0.92,17.69 0.91,16.09 0.90,14.48 0.99,13.99 1.07,13.50 1.31,13.05 1.54,12.61 1.91,12.27 2.27,11.93 2.73,11.72 3.18,11.52 3.68,11.46 4.18,11.41 4.66,11.52 5.15,11.63 5.58,11.89 6.00,12.15 6.33,12.53 6.65,12.92 6.83,13.38 7.01,13.85 7.04,14.35 7.06,14.85 6.92,15.33 6.79,15.81 6.51,16.22 6.22,16.63 5.82,16.93 5.43,17.23 4.95,17.39 4.48,17.55 3.98,17.54 3.48,17.54 3.00,17.38 2.53,17.22 2.14,16.91 1.74,16.61 1.46,16.19 1.18,15.78 1.05,15.30 0.92,14.81 0.95,14.31 0.98,13.82 1.17,13.35 1.35,12.89 1.68,12.51 2.01,12.13 2.44,11.88 2.86,11.62 3.35,11.52 3.84,11.41 4.34,11.47 4.83,11.52 5.29,11.74 5.74,11.95 6.10,12.29 6.46,12.64 6.69,13.08 6.92,13.53 7.00,14.02 7.08,14.51 7.08,14.51 7.08,14.51 7.04,16.22 7.01,17.93 6.87,19.28 6.73,20.62 6.25,22.25 5.76,23.89 5.68,25.24 5.60,26.59 5.57,27.67 5.54,28.75 5.51,29.93 5.48,31.12 5.48,32.55 5.48,33.99 5.47,35.33 5.46,36.68 5.42,37.82 5.39,38.96 5.36,40.30 5.34,41.63 5.42,43.41 5.49,45.19 5.52,46.68 5.56,48.16 5.62,49.63 5.69,51.10 5.83,52.54 5.97,53.97 6.34,55.83 6.71,57.69 6.69,58.84 6.68,59.99 6.69,61.35 6.70,62.70 6.68,63.85 6.67,65.01 6.68,66.37 6.69,67.73 6.69,68.91 6.69,70.09 6.73,71.50 6.78,72.91 6.84,74.19 6.91,75.46 7.01,76.53 7.12,77.59 7.50,79.27 7.88,80.95 8.08,83.27 8.27,85.59 8.61,87.39 8.95,89.19 9.98,89.80 11.01,90.41 12.64,90.51 14.28,90.60 15.83,90.72 17.39,90.84 19.26,90.95 21.14,91.05 22.61,91.01 24.08,90.96 25.83,90.74 27.57,90.51 29.32,90.58 31.07,90.66 33.14,90.67 35.22,90.68 37.40,90.68 39.58,90.68 42.01,90.67 44.44,90.67 46.77,90.66 49.10,90.65 51.87,90.62 54.65,90.60 57.12,90.55 59.59,90.50 62.02,90.37 64.46,90.25 66.98,89.95 69.50,89.64 71.86,89.62 74.23,89.59 76.42,89.53 78.62,89.47 81.07,89.33 83.52,89.18 86.08,88.83 88.64,88.49 91.10,88.36 93.56,88.23 96.15,87.91 98.74,87.59 101.28,87.52 103.81,87.46 106.40,87.32 108.99,87.17 111.85,86.82 114.72,86.46 117.92,86.32 121.12,86.17 124.70,85.83 128.29,85.48 131.88,85.35 135.47,85.21 139.29,84.90 143.10,84.58 146.56,84.52 150.02,84.47 153.41,84.33 156.80,84.20 160.19,83.88 163.58,83.56 166.68,83.50 169.78,83.44 173.02,83.31 176.25,83.18 179.29,82.87 182.32,82.57 185.25,82.55 188.18,82.53 191.02,82.50 193.85,82.47 196.46,82.42 199.06,82.38 201.81,82.32 204.56,82.26 206.98,82.18 209.39,82.09 211.68,81.96 213.97,81.83 215.98,81.66 217.99,81.48 219.92,81.19 221.86,80.89 223.55,80.43 225.25,79.97 226.88,79.50 228.52,79.03 228.59,77.87 228.65,76.72 228.64,75.02 228.63,73.33 228.36,71.74 228.10,70.16 228.15,68.89 228.20,67.62 228.18,66.00 228.16,64.38 228.00,62.61 227.84,60.84 227.39,59.06 226.94,57.28 226.44,55.22 225.94,53.16 225.43,51.03 224.92,48.90 224.42,46.58 223.91,44.27 223.42,41.57 222.92,38.87 222.45,35.93 221.98,32.98 221.58,30.10 221.18,27.21 220.96,24.65 220.74,22.09 220.24,19.28 219.74,16.47 219.30,13.86 218.87,11.24 218.62,8.76 218.37,6.27 217.87,4.13 217.36,1.99 217.28,0.80 217.19,-0.39 216.96,-1.73 216.73,-3.07 215.57,-3.69 214.41,-4.32 213.34,-4.44 212.26,-4.56 210.41,-4.61 208.56,-4.67 206.24,-4.66 203.92,-4.65 201.15,-4.63 198.39,-4.61 195.28,-4.56 192.16,-4.50 188.89,-4.39 185.61,-4.27 181.86,-3.98 178.10,-3.70 174.11,-3.70 170.11,-3.71 166.14,-3.74 162.16,-3.76 158.21,-3.81 154.26,-3.86 150.38,-3.99 146.49,-4.11 142.89,-4.39 139.30,-4.68 136.12,-4.68 132.94,-4.68 129.52,-4.68 126.10,-4.67 122.78,-4.67 119.47,-4.66 116.40,-4.65 113.34,-4.64 110.19,-4.61 107.04,-4.58 103.68,-4.52 100.33,-4.46 97.17,-4.31 94.01,-4.16 90.50,-3.81 87.00,-3.45 82.94,-3.30 78.88,-3.15 74.63,-2.80 70.38,-2.44 65.90,-2.29 61.42,-2.14 56.21,-1.78 51.00,-1.43 46.27,-1.28 41.54,-1.13 37.08,-0.77 32.62,-0.42 28.99,-0.28 25.36,-0.15 22.08,0.16 18.79,0.48 15.95,0.53 13.11,0.58 10.49,0.67 7.87,0.75 5.80,0.91 3.72,1.08 1.99,1.32 0.26,1.57 0.07,1.57 -0.12,1.58 -0.30,1.54 -0.49,1.51 -0.67,1.43 -0.84,1.34 -0.99,1.22 -1.14,1.10 -1.25,0.95 -1.37,0.80 -1.45,0.62 -1.52,0.44 -1.55,0.25 -1.59,0.07 -1.57,-0.12 -1.56,-0.31 -1.50,-0.49 -1.44,-0.67 -1.33,-0.83 -1.23,-1.00 -1.09,-1.13 -0.96,-1.26 -0.79,-1.36 -0.62,-1.46 -0.44,-1.51 -0.26,-1.57 -0.26,-1.57 L -0.26,-1.57 Z"></path></g><g transform="translate(574.5 427.5) rotate(0 47.5 18)"><text x="0" y="25" font-family="Virgil, Segoe UI Emoji" font-size="28px" fill="#364fc7" text-anchor="start" style="white-space: pre;" direction="ltr">keep it</text></g><g transform="translate(244 310) rotate(0 115 70)" stroke="none"><path fill="#364fc7" d="M 1.56,-0.52 Q 1.56,-0.52 2.16,1.18 2.76,2.89 3.56,3.99 4.36,5.09 5.30,6.85 6.24,8.62 7.19,10.87 8.15,13.12 9.45,15.42 10.76,17.72 12.27,20.15 13.79,22.59 15.39,25.06 17.00,27.54 18.66,30.36 20.33,33.17 22.16,35.74 23.98,38.32 25.90,40.54 27.81,42.76 29.81,45.17 31.81,47.59 34.02,50.34 36.22,53.10 38.52,56.00 40.81,58.89 43.30,61.52 45.79,64.14 48.36,66.38 50.94,68.62 53.37,70.42 55.81,72.22 58.23,74.17 60.66,76.11 63.40,78.06 66.14,80.01 69.26,82.29 72.38,84.57 75.65,86.98 78.91,89.38 81.64,91.25 84.37,93.13 87.27,95.07 90.18,97.02 92.76,98.71 95.35,100.39 98.03,102.28 100.70,104.16 103.17,105.81 105.64,107.45 108.05,109.01 110.46,110.58 113.01,112.09 115.56,113.61 118.03,115.12 120.49,116.64 123.07,118.14 125.64,119.63 128.37,120.50 131.09,121.38 133.69,122.35 136.28,123.33 138.86,124.01 141.44,124.69 144.15,125.57 146.86,126.46 149.32,127.10 151.78,127.75 154.42,128.62 157.07,129.48 159.50,130.12 161.93,130.76 164.06,131.02 166.18,131.28 168.51,131.69 170.84,132.10 173.01,132.57 175.17,133.03 177.17,133.20 179.17,133.38 181.27,133.75 183.37,134.12 185.15,134.21 186.93,134.31 188.95,134.66 190.96,135.00 192.69,135.10 194.42,135.20 196.12,135.21 197.82,135.23 199.51,135.21 201.20,135.20 202.87,135.46 204.53,135.72 205.85,135.77 207.17,135.82 208.32,135.81 209.46,135.79 211.11,136.10 212.75,136.41 213.86,136.47 214.97,136.53 217.21,136.53 219.46,136.52 220.86,136.82 222.26,137.13 223.91,137.19 225.56,137.25 227.79,137.26 230.02,137.27 230.46,137.34 230.89,137.42 231.28,137.63 231.67,137.84 231.97,138.16 232.27,138.48 232.45,138.89 232.63,139.29 232.67,139.73 232.72,140.17 232.62,140.60 232.52,141.03 232.29,141.40 232.06,141.78 231.72,142.06 231.38,142.35 230.97,142.51 230.56,142.67 230.12,142.69 229.67,142.71 229.25,142.58 228.83,142.46 228.46,142.21 228.10,141.96 227.84,141.60 227.57,141.25 227.43,140.83 227.30,140.41 227.30,139.97 227.31,139.53 227.45,139.11 227.60,138.69 227.87,138.35 228.14,138.00 228.50,137.75 228.87,137.51 229.30,137.39 229.73,137.28 230.17,137.31 230.61,137.34 231.02,137.50 231.42,137.67 231.76,137.96 232.09,138.25 232.32,138.63 232.54,139.01 232.63,139.44 232.72,139.87 232.67,140.31 232.62,140.75 232.43,141.15 232.24,141.55 231.93,141.87 231.63,142.18 231.23,142.39 230.84,142.59 230.41,142.66 229.97,142.72 229.97,142.72 229.97,142.72 226.69,142.55 223.41,142.37 221.37,141.89 219.33,141.40 218.06,141.35 216.79,141.29 215.63,141.18 214.47,141.07 213.17,140.87 211.86,140.67 210.56,140.35 209.26,140.04 208.04,139.92 206.82,139.79 205.31,139.59 203.80,139.39 202.47,139.05 201.13,138.71 199.41,138.64 197.69,138.57 195.93,138.46 194.16,138.35 192.29,138.14 190.43,137.94 188.56,137.58 186.68,137.22 184.79,137.00 182.89,136.78 180.90,136.41 178.92,136.03 176.77,135.82 174.62,135.60 172.50,135.14 170.39,134.69 168.12,134.29 165.86,133.89 163.56,133.60 161.26,133.30 158.76,132.64 156.25,131.98 153.68,131.14 151.10,130.29 148.57,129.62 146.04,128.95 143.41,128.09 140.77,127.23 138.06,126.51 135.36,125.79 132.82,124.83 130.28,123.87 127.31,122.89 124.33,121.91 121.72,120.39 119.11,118.88 116.67,117.37 114.22,115.87 111.63,114.32 109.03,112.78 106.61,111.21 104.18,109.64 101.69,107.97 99.19,106.31 96.55,104.45 93.92,102.60 91.31,100.90 88.71,99.20 85.80,97.25 82.88,95.29 80.11,93.40 77.35,91.50 74.09,89.10 70.83,86.70 67.72,84.43 64.61,82.16 61.81,80.16 59.01,78.17 56.62,76.26 54.23,74.35 51.72,72.48 49.21,70.62 46.53,68.29 43.86,65.97 41.29,63.26 38.73,60.55 36.43,57.66 34.14,54.78 31.93,52.04 29.73,49.31 27.74,46.93 25.75,44.54 23.74,42.24 21.74,39.93 19.82,37.27 17.91,34.61 16.25,31.87 14.59,29.13 12.93,26.66 11.27,24.19 9.67,21.75 8.07,19.30 6.60,16.89 5.14,14.48 4.13,12.40 3.13,10.33 2.20,8.68 1.28,7.04 0.41,5.52 -0.44,4.00 -1.00,2.26 -1.56,0.52 -1.60,0.33 -1.64,0.13 -1.64,-0.06 -1.63,-0.26 -1.57,-0.45 -1.52,-0.64 -1.42,-0.81 -1.32,-0.99 -1.18,-1.13 -1.05,-1.27 -0.88,-1.38 -0.71,-1.49 -0.52,-1.55 -0.33,-1.62 -0.13,-1.63 0.06,-1.65 0.25,-1.62 0.45,-1.59 0.63,-1.51 0.82,-1.43 0.98,-1.31 1.14,-1.19 1.26,-1.04 1.39,-0.88 1.48,-0.70 1.56,-0.52 1.56,-0.52 L 1.56,-0.52 Z"></path></g><g transform="translate(733 13) rotate(0 462.5 36)"><text x="0" y="25" font-family="Virgil, Segoe UI Emoji" font-size="28px" fill="#364fc7" text-anchor="start" style="white-space: pre;" direction="ltr">prospect of long term gain or actual progression</text><text x="0" y="61" font-family="Virgil, Segoe UI Emoji" font-size="28px" fill="#364fc7" text-anchor="start" style="white-space: pre;" direction="ltr">depending on how much you are invested in your current composition</text></g><g transform="translate(749 138) rotate(0 74.5 18)"><text x="0" y="25" font-family="Virgil, Segoe UI Emoji" font-size="28px" fill="#364fc7" text-anchor="start" style="white-space: pre;" direction="ltr">progression</text></g><g transform="translate(753 273) rotate(0 182 18)"><text x="0" y="25" font-family="Virgil, Segoe UI Emoji" font-size="28px" fill="#364fc7" text-anchor="start" style="white-space: pre;" direction="ltr">prospect of long term gain</text></g><g transform="translate(764 409) rotate(0 269 18)"><text x="0" y="25" font-family="Virgil, Segoe UI Emoji" font-size="28px" fill="#364fc7" text-anchor="start" style="white-space: pre;" direction="ltr">long term gain in the form of interests</text></g></svg>